<svg width="18" height="19" viewBox="0 0 18 19" fill="none" xmlns="http://www.w3.org/2000/svg">
<path d="M5.61361 5.31212C5.61361 5.13752 5.67472 4.98911 5.79694 4.86689C5.91915 4.74467 6.06174 4.68356 6.2247 4.68356L14.3087 4.4915C14.4949 4.4915 14.6462 4.5497 14.7626 4.6661C14.879 4.7825 14.9372 4.93382 14.9372 5.12006L14.7452 13.204C14.7452 13.367 14.6841 13.5096 14.5619 13.6318C14.4396 13.754 14.2912 13.8122 14.1166 13.8064C13.942 13.8006 13.7936 13.7366 13.6714 13.6143C13.5492 13.4921 13.4939 13.3437 13.5055 13.1691L13.6801 5.74862L6.25962 5.92322C6.08503 5.92322 5.93661 5.86502 5.81439 5.74862C5.69217 5.63222 5.62524 5.48672 5.61361 5.31212ZM3.81523 15.4738C3.69883 15.3458 3.64062 15.1974 3.64062 15.0286C3.64062 14.8598 3.69883 14.7172 3.81523 14.6008L13.5754 4.8407C13.7034 4.71266 13.8518 4.64864 14.0206 4.64864C14.1894 4.64864 14.3349 4.70975 14.4571 4.83197C14.5793 4.95419 14.6404 5.1026 14.6404 5.2772C14.6404 5.4518 14.5764 5.5973 14.4484 5.7137L4.68823 15.4738C4.57182 15.5902 4.42923 15.6484 4.26046 15.6484C4.09167 15.6484 3.94326 15.5902 3.81523 15.4738Z" fill="white"/>
</svg>
