<svg width="40" height="35" viewBox="0 0 40 35" fill="none" xmlns="http://www.w3.org/2000/svg">
<path d="M28.5 7H30.625C31.7522 7 32.8332 7.4425 33.6302 8.23015C34.4272 9.0178 34.875 10.0861 34.875 11.2V12.25C34.875 12.5285 34.9869 12.7955 35.1862 12.9925C35.3855 13.1894 35.6557 13.3 35.9375 13.3C36.2193 13.3 36.4895 13.4106 36.6888 13.6075C36.8881 13.8044 37 14.0715 37 14.35V20.65C37 20.9285 36.8881 21.1955 36.6888 21.3925C36.4895 21.5894 36.2193 21.7 35.9375 21.7C35.6557 21.7 35.3855 21.8106 35.1862 22.0075C34.9869 22.2044 34.875 22.4715 34.875 22.75V23.8C34.875 24.9139 34.4272 25.9822 33.6302 26.7698C32.8332 27.5575 31.7522 28 30.625 28H26.375M11.5 7H7.25C6.12283 7 5.04183 7.4425 4.2448 8.23015C3.44777 9.0178 3 10.0861 3 11.2V23.8C3 24.9139 3.44777 25.9822 4.2448 26.7698C5.04183 27.5575 6.12283 28 7.25 28H9.375M20 9.1L15.75 17.5H22.125L17.875 25.9" stroke="white" stroke-width="2.2" stroke-linecap="round" stroke-linejoin="round"/>
</svg>
