<svg width="35" height="35" viewBox="0 0 35 35" fill="none" xmlns="http://www.w3.org/2000/svg">
<g clip-path="url(#clip0_68_80)">
<path d="M28.8444 2.8102C27.513 2.17166 26.0554 2.00746 24.8404 2.34191C24.4556 1.6702 23.8756 1.13148 23.1773 0.797353C21.3669 -0.0708836 19.2054 0.617125 18.2152 2.32605C16.8881 2.08687 15.5373 2.75439 14.9358 4.00858C14.8562 4.17449 14.7919 4.347 14.7435 4.52376C14.3682 4.81404 14.066 5.18806 13.861 5.61595C13.1348 7.1302 13.776 8.95305 15.2904 9.67934C15.4482 9.75504 15.6122 9.81707 15.7806 9.86477C15.7802 10.0979 15.8066 10.3303 15.8594 10.5573C14.6238 10.2317 13.5592 10.8298 13.2124 12.1751C12.4627 12.1848 11.9197 12.0521 11.5197 12.8275C11.1927 13.4614 11.246 14.2199 11.583 14.9065C10.8366 15.0736 10.2306 15.5153 9.92215 16.1586C9.56932 16.8942 9.91912 17.8949 10.1791 18.5605C9.39293 18.9603 8.88132 19.9417 8.96978 21.0386C8.97804 21.1405 8.99145 21.2419 9.00994 21.3424L6.51486 24.1012L10.6184 23.6354C11.0962 23.829 11.5098 23.99 11.9196 24.2703C12.5659 24.5803 13.3197 24.5891 14.032 24.304C14.1322 24.3657 14.2357 24.4222 14.3415 24.473C15.9974 25.2672 17.9907 24.566 18.7848 22.9102C18.8782 22.7156 18.9519 22.515 19.0056 22.3094C19.5228 22.4011 20.0543 22.3688 20.5565 22.2153C21.0588 22.0618 21.5175 21.7914 21.8951 21.4264C22.5473 21.5213 23.213 21.4469 23.8282 21.2104C25.6359 22.0648 27.8172 21.5222 29.0187 19.9505C30.3167 19.7375 31.426 18.9509 32.0551 17.7965C33.4229 17.9171 34.7319 17.1869 35.3407 15.9175C36.1024 14.3293 35.4885 12.4308 33.9762 11.5773C34.4224 10.0421 33.7055 8.36034 32.2173 7.64661C32.1495 7.61409 32.0805 7.58386 32.0103 7.55592C32.2562 5.79628 30.985 3.83679 28.8444 2.8102ZM28.365 3.8098C30.1986 4.68916 31.2808 6.42255 30.8287 7.75593L30.8123 7.80401C30.4696 6.91646 29.7964 6.19398 28.9317 5.78573C28.3791 5.52555 27.7704 5.40411 27.159 5.43207C26.5477 5.46003 25.9523 5.63654 25.4253 5.9461C26.3153 5.67621 27.2741 5.74521 28.1145 6.13962C28.5577 6.34847 28.9549 6.64199 29.2836 7.00342C29.6122 7.36484 29.8658 7.7871 30.0299 8.24608C30.194 8.70506 30.2654 9.19177 30.2399 9.67843C30.2144 10.1651 30.0927 10.6422 29.8815 11.0824C29.5609 11.75 29.0468 12.3076 28.4053 12.6838C28.9033 12.5339 29.3645 12.2826 29.7594 11.9459C30.1543 11.6092 30.4742 11.1945 30.6986 10.7283C31.0417 10.0094 31.1432 9.20051 30.9883 8.4208C31.2453 8.47417 31.4885 8.53226 31.738 8.64614C32.841 9.17514 33.3088 10.5017 32.7831 11.6053L32.5084 12.1773C32.78 12.2748 33.0446 12.3596 33.2985 12.4736C34.4031 13.0034 34.8708 14.3333 34.341 15.438C33.8913 16.3757 32.8691 16.8723 31.8552 16.6456L31.4034 16.5447C31.321 16.74 31.2441 16.9304 31.1583 17.1161C30.683 18.1071 29.7455 18.7672 28.6501 18.8817L28.3923 18.9088L28.2477 19.1239C27.3856 20.4073 25.6824 20.8702 24.2861 20.2005C24.1579 20.1361 24.0062 20.0517 23.8708 19.9758L23.6139 20.0971C23.04 20.3591 22.2169 20.3957 21.4967 20.2072C20.8294 20.9953 19.9831 21.3491 18.761 21.0925L18.0398 20.8044L18.0016 21.5801C17.9872 21.8753 17.9136 22.1646 17.7852 22.4308C17.2555 23.5354 15.9258 24.0031 14.8211 23.4733C14.5986 23.3655 14.3547 23.1807 14.1402 23.0101C13.5452 23.3286 13.1517 23.4976 12.3993 23.2705C11.8972 23.0214 11.385 22.6434 10.7737 22.5019L9.30549 22.6686L9.93185 21.9759L10.245 21.6661C10.1694 21.4133 10.0984 21.2105 10.0752 20.9497C10.0143 20.1952 10.4003 19.5227 10.9179 19.481C11.0064 19.4737 11.0919 19.4458 11.1678 19.3996C11.2436 19.3535 11.3076 19.2902 11.3547 19.215C11.5231 18.9445 11.4273 18.7022 11.2684 18.3005C11.127 17.9431 10.7515 16.9939 10.9221 16.6383C11.1645 16.1328 11.8087 15.8662 12.5634 15.9594L14.1999 16.1613L13.0177 15.0118C12.4726 14.4817 12.2771 13.8126 12.5196 13.307C12.6478 13.0518 13.639 13.1873 13.9777 13.0506C14.1908 12.0854 14.7549 11.4695 15.9127 11.7532C16.1431 11.865 16.3875 12.0657 16.6039 12.2461C16.978 12.0144 17.3441 11.8044 17.7624 11.6339L17.3205 11.0866C17.1445 10.8691 17.0178 10.616 16.949 10.3448C16.8802 10.0736 16.871 9.79069 16.9222 9.51559L17.0331 8.91835C16.5713 8.87549 16.1906 8.87177 15.7699 8.6798C14.8068 8.2179 14.399 7.05852 14.8609 6.09548C15.0131 5.77813 15.2479 5.50876 15.5404 5.31623L15.7355 5.1878C15.785 4.93214 15.8218 4.73129 15.9355 4.48805C16.3643 3.59388 17.3917 3.16856 18.3251 3.49855L18.8174 3.67246C18.9033 3.46918 18.9854 3.26603 19.0744 3.07153C19.722 1.72116 21.3474 1.14945 22.6978 1.79708C23.311 2.09116 23.7885 2.60039 24.0423 3.23107L24.2519 3.75172L24.7701 3.53577C25.7829 3.11349 27.1267 3.21592 28.365 3.8098ZM20.8782 4.83083C20.4449 4.62869 19.9407 4.56929 19.4318 4.66041C18.9229 4.75152 18.433 4.98891 18.0263 5.34146C17.491 5.80546 17.138 6.43552 17.0451 7.09301C16.9521 7.75051 17.1267 8.3816 17.5305 8.84746C17.5624 8.88398 17.5957 8.91934 17.6302 8.95349C17.4181 8.51367 17.3747 7.99538 17.5072 7.48248C17.6398 6.96957 17.9404 6.49204 18.3605 6.12716C18.8558 5.69775 19.4794 5.45718 20.0939 5.45838C20.7085 5.45958 21.2636 5.70244 21.6374 6.13354C21.6558 6.15648 21.6737 6.17985 21.6911 6.20364C21.3939 6.20599 21.1112 6.27411 20.865 6.40271C20.6188 6.5313 20.4157 6.71689 20.2716 6.94505C20.2486 6.98177 20.2272 7.01948 20.2074 7.05812C20.5249 6.89066 20.9115 6.82201 21.3203 6.86048C21.7292 6.89896 22.1426 7.04291 22.5103 7.27486C22.8698 7.50236 23.1705 7.80451 23.3773 8.14614C23.5841 8.48776 23.6885 8.85481 23.6784 9.20453C23.6873 9.19254 23.696 9.18041 23.7045 9.16816C23.9526 8.77448 24.0096 8.27985 23.8631 7.79305C23.7166 7.30625 23.3786 6.86717 22.9234 6.57238C22.8256 6.50902 22.7234 6.45299 22.618 6.40493C22.4223 6.3162 22.2172 6.25575 22.0106 6.22583C21.9327 5.89697 21.7816 5.59786 21.5671 5.34828C21.3784 5.1306 21.1448 4.95514 20.8782 4.83083ZM19.7793 15.4678C19.2158 15.1813 18.5972 15.0716 18.0183 15.1554C17.4394 15.2393 16.932 15.5121 16.5739 15.9321C16.4653 16.0609 16.3719 16.202 16.295 16.3532C16.3007 16.3467 16.3064 16.3402 16.3122 16.3338C16.5202 16.1162 16.7757 15.9481 17.0641 15.839C17.3526 15.73 17.6683 15.6822 17.9932 15.6983C18.3182 15.7145 18.646 15.7942 18.9579 15.9331C19.2699 16.0719 19.5599 16.2672 19.8114 16.5076C20.0629 16.748 20.271 17.0289 20.4238 17.3343C20.5765 17.6397 20.671 17.9636 20.7017 18.2875C20.7325 18.6114 20.6989 18.929 20.603 19.222C20.507 19.5151 20.3506 19.7779 20.1425 19.9955C19.9136 20.2336 19.6279 20.4116 19.305 20.5176C19.9898 20.4887 20.6007 20.2037 21.0153 19.7195C21.2305 19.4672 21.3861 19.1684 21.4733 18.8401C21.5605 18.5118 21.5775 18.1605 21.5234 17.8062C21.4694 17.4519 21.3452 17.1017 21.1581 16.7753C20.971 16.449 20.7246 16.1531 20.433 15.9044C20.2323 15.7332 20.0124 15.5863 19.7793 15.4678ZM6.07132 21.8243C4.35976 21.0034 2.30667 21.7256 1.48584 23.4371C0.664953 25.1487 1.38709 27.2017 3.09866 28.0226C4.81022 28.8434 6.86325 28.1214 7.68414 26.4098C7.89893 25.9619 8.00787 25.4908 8.02136 25.0243C8.02857 24.7746 6.2212 25.7082 5.5693 24.5861C5.25813 24.0505 6.07001 23.233 6.56367 22.7599C6.77891 22.5534 6.93372 22.4126 6.90826 22.3893C6.65858 22.1609 6.37659 21.9704 6.07132 21.8243ZM4.56992 22.4288C4.63801 22.4785 3.5441 23.0586 3.5015 24.8696C3.49291 25.2332 3.17108 25.5135 2.80039 25.4966C2.42972 25.4798 2.14262 25.1718 2.15907 24.8087C2.17569 24.4454 3.2045 22.6361 4.50907 22.4297C4.54341 22.4242 4.56285 22.4236 4.56992 22.4288Z" fill="white"/>
</g>
<defs>
<clipPath id="clip0_68_80">
<rect width="35" height="35" fill="white"/>
</clipPath>
</defs>
</svg>
