<svg width="20" height="21" viewBox="0 0 20 21" fill="none" xmlns="http://www.w3.org/2000/svg">
<path d="M11.3281 19.0957V11.0951H14.1597L14.5778 7.99742H11.3281V6.00201C11.3281 5.54592 11.4294 5.17851 11.6321 4.89978C11.8349 4.62106 12.2783 4.4817 12.9624 4.4817H14.6918V1.70713C14.5397 1.68179 14.2293 1.65328 13.7606 1.62161C13.2918 1.58994 12.7597 1.5741 12.1643 1.5741C11.5435 1.5741 10.9733 1.66279 10.4539 1.84015C9.93447 2.01752 9.49104 2.28041 9.12363 2.62882C8.75622 2.97722 8.47117 3.41115 8.26846 3.93058C8.06575 4.43736 7.96439 5.02648 7.96439 5.69795V7.99742H5.13281V11.0951H7.96439V19.0957H11.3281Z" fill="white"/>
</svg>
