<svg width="226" height="330" viewBox="0 0 226 330" fill="none" xmlns="http://www.w3.org/2000/svg">
<path d="M40.0546 153.64C40.0546 153.64 45.8316 -13.1619 112.151 0.833959C178.489 14.8007 150.67 115.035 63.0646 159.913C63.0646 159.913 175.272 91.8831 215.557 140.226C255.843 188.57 174.437 246.75 60.7616 194.961C60.7616 194.961 195.326 260.75 162.171 314.719C129.016 368.688 9.33556 267.135 44.0336 183.75C44.0336 183.75 -2.23145 338.621 -75.9645 267.904C-149.678 197.157 30.8456 162.757 30.8456 162.757C30.8456 162.757 -125.004 155.843 -95.2157 75.2231C-65.4474 -5.36723 9.78755 45.0541 39.9765 153.63L40.0546 153.64Z" fill="#FF6316"/>
</svg>
