<svg width="204" height="331" viewBox="0 0 204 331" fill="none" xmlns="http://www.w3.org/2000/svg">
<path d="M229.967 234.273C229.967 234.273 105.732 400.11 62.58 297.495C25.0061 208.102 155.803 272.588 149.14 216.755C142.448 160.902 26.9179 262.788 5.40756 208.67C-25.8273 130.122 88.4943 190.47 87.3529 152.57C86.2491 114.616 -18.5334 123.433 23.7618 66.1761C71.0533 2.20668 104.412 123.607 125.481 100.215C146.595 76.8125 87.0896 16.3931 143.893 1.65699C228.46 -20.3253 150.283 184.138 193.405 157.951C236.528 131.765 160.95 57.3362 229.457 44.2187C315.225 27.7702 304.824 125.853 229.939 234.255L229.967 234.273Z" fill="#5FCA56"/>
</svg>
