<svg width="1423" height="352" viewBox="0 0 1423 352" fill="none" xmlns="http://www.w3.org/2000/svg">
<path d="M97.1606 321.042V84.9967H264.719V132.206H122.427L155.008 98.6274V206.676L122.427 182.074H258.735V229.283H122.427L155.008 204.681V321.042H97.1606ZM283.865 321.042V84.9967H391.914C409.423 84.9967 424.605 87.878 437.46 93.6406C450.537 99.4032 460.622 107.604 467.714 118.242C474.806 128.659 478.353 140.96 478.353 155.145C478.353 166.227 476.136 175.979 471.704 184.402C467.271 192.824 461.065 199.805 453.086 205.346C445.329 210.666 436.02 214.212 425.159 215.985L424.162 212.66C440.342 212.66 452.532 216.096 460.732 222.967C469.155 229.837 473.809 240.144 474.696 253.885L480.347 321.042H421.17L417.513 263.527C416.848 254.661 414.188 248.123 409.534 243.912C405.101 239.7 397.233 237.595 385.929 237.595H341.712V321.042H283.865ZM341.712 190.386H382.937C394.684 190.386 403.66 187.837 409.866 182.739C416.072 177.642 419.175 170.438 419.175 161.13C419.175 151.599 415.961 144.396 409.534 139.52C403.328 134.644 394.241 132.206 382.272 132.206H341.712V190.386ZM610.118 326.361C585.738 326.361 564.682 321.374 546.951 311.4C529.442 301.427 516.033 287.242 506.724 268.846C497.415 250.45 492.761 228.618 492.761 203.352C492.761 178.085 497.415 156.253 506.724 137.857C516.033 119.24 529.442 104.944 546.951 94.9704C564.682 84.775 585.738 79.6773 610.118 79.6773C634.72 79.6773 655.665 84.775 672.953 94.9704C690.462 104.944 703.871 119.24 713.18 137.857C722.711 156.253 727.476 178.085 727.476 203.352C727.476 228.618 722.711 250.45 713.18 268.846C703.871 287.242 690.462 301.427 672.953 311.4C655.665 321.374 634.72 326.361 610.118 326.361ZM610.118 279.152C622.308 279.152 632.615 276.16 641.037 270.176C649.681 264.191 656.33 255.548 660.984 244.244C665.639 232.94 667.966 219.31 667.966 203.352C667.966 187.394 665.639 173.763 660.984 162.459C656.33 150.934 649.681 142.179 641.037 136.195C632.393 129.989 621.976 126.886 609.786 126.886C597.817 126.886 587.511 129.989 578.867 136.195C570.223 142.179 563.574 150.934 558.92 162.459C554.487 173.763 552.271 187.394 552.271 203.352C552.271 219.31 554.487 232.94 558.92 244.244C563.574 255.548 570.223 264.191 578.867 270.176C587.511 276.16 597.928 279.152 610.118 279.152ZM734.541 321.042V275.827L842.59 132.206H740.193V84.9967H915.398V130.211L804.69 273.833H920.053V321.042H734.541ZM936.507 321.042V84.9967H1106.06V132.206H994.355V179.082H1102.07V226.291H994.355V273.833H1108.72V321.042H936.507ZM1131.98 321.042V84.9967H1192.82L1279.26 232.94V84.9967H1337.1V321.042H1275.93L1189.83 179.415V321.042H1131.98Z" fill="#100A3E"/>
<mask id="path-2-outside-1_2060_4" maskUnits="userSpaceOnUse" x="96.8086" y="10" width="313" height="69" fill="black">
<rect fill="white" x="96.8086" y="10" width="313" height="69"/>
<path d="M100.256 74V15.0976H142.567V26.8781H114.692V38.5756H141.571V50.3561H114.692V62.2195H143.23V74H100.256ZM149.358 74V15.0976H170.347C180.081 15.0976 187.548 17.6694 192.747 22.813C198.001 27.9012 200.628 35.1742 200.628 44.6317C200.628 54.034 198.056 61.2793 192.913 66.3676C187.769 71.4559 180.413 74 170.845 74H149.358ZM163.793 62.2195H170.347C175.657 62.2195 179.556 60.7815 182.045 57.9055C184.533 55.0295 185.778 50.5773 185.778 44.5488C185.778 38.5203 184.533 34.068 182.045 31.192C179.556 28.3161 175.657 26.8781 170.347 26.8781H163.793V62.2195ZM205.265 74V15.0976H219.7V74H205.265ZM238.54 74V26.8781H221.118V15.0976H270.48V26.8781H253.058V74H238.54ZM272.762 74V15.0976H287.198V74H272.762ZM321.121 75.3274C315.037 75.3274 309.782 74.083 305.358 71.5941C300.989 69.1053 297.642 65.5656 295.32 60.9751C292.997 56.3846 291.835 50.9368 291.835 44.6317C291.835 38.3267 292.997 32.8789 295.32 28.2884C297.642 23.6426 300.989 20.0752 305.358 17.5864C309.782 15.0423 315.037 13.7702 321.121 13.7702C327.26 13.7702 332.486 15.0423 336.8 17.5864C341.169 20.0752 344.516 23.6426 346.838 28.2884C349.217 32.8789 350.406 38.3267 350.406 44.6317C350.406 50.9368 349.217 56.3846 346.838 60.9751C344.516 65.5656 341.169 69.1053 336.8 71.5941C332.486 74.083 327.26 75.3274 321.121 75.3274ZM321.121 63.5469C324.162 63.5469 326.734 62.8002 328.836 61.3069C330.993 59.8136 332.652 57.6567 333.814 54.836C334.975 52.0153 335.556 48.6139 335.556 44.6317C335.556 40.6496 334.975 37.2482 333.814 34.4275C332.652 31.5515 330.993 29.3669 328.836 27.8736C326.679 26.325 324.079 25.5507 321.038 25.5507C318.051 25.5507 315.479 26.325 313.322 27.8736C311.165 29.3669 309.506 31.5515 308.344 34.4275C307.238 37.2482 306.685 40.6496 306.685 44.6317C306.685 48.6139 307.238 52.0153 308.344 54.836C309.506 57.6567 311.165 59.8136 313.322 61.3069C315.479 62.8002 318.079 63.5469 321.121 63.5469ZM355.086 74V15.0976H370.268L391.838 52.0153V15.0976H406.273V74H391.008L369.521 38.6585V74H355.086Z"/>
</mask>
<path d="M100.256 74H97.2395V77.017H100.256V74ZM100.256 15.0976V12.0806H97.2395V15.0976H100.256ZM142.567 15.0976H145.584V12.0806H142.567V15.0976ZM142.567 26.8781V29.895H145.584V26.8781H142.567ZM114.692 26.8781V23.8611H111.675V26.8781H114.692ZM114.692 38.5756H111.675V41.5926H114.692V38.5756ZM141.571 38.5756H144.588V35.5586H141.571V38.5756ZM141.571 50.3561V53.373H144.588V50.3561H141.571ZM114.692 50.3561V47.3391H111.675V50.3561H114.692ZM114.692 62.2195H111.675V65.2365H114.692V62.2195ZM143.23 62.2195H146.247V59.2025H143.23V62.2195ZM143.23 74V77.017H146.247V74H143.23ZM100.256 74H103.273V15.0976H100.256H97.2395V74H100.256ZM100.256 15.0976V18.1146H142.567V15.0976V12.0806H100.256V15.0976ZM142.567 15.0976H139.55V26.8781H142.567H145.584V15.0976H142.567ZM142.567 26.8781V23.8611H114.692V26.8781V29.895H142.567V26.8781ZM114.692 26.8781H111.675V38.5756H114.692H117.709V26.8781H114.692ZM114.692 38.5756V41.5926H141.571V38.5756V35.5586H114.692V38.5756ZM141.571 38.5756H138.554V50.3561H141.571H144.588V38.5756H141.571ZM141.571 50.3561V47.3391H114.692V50.3561V53.373H141.571V50.3561ZM114.692 50.3561H111.675V62.2195H114.692H117.709V50.3561H114.692ZM114.692 62.2195V65.2365H143.23V62.2195V59.2025H114.692V62.2195ZM143.23 62.2195H140.213V74H143.23H146.247V62.2195H143.23ZM143.23 74V70.983H100.256V74V77.017H143.23V74ZM149.358 74H146.341V77.017H149.358V74ZM149.358 15.0976V12.0806H146.341V15.0976H149.358ZM192.747 22.813L190.625 24.9577L190.636 24.969L190.648 24.9802L192.747 22.813ZM192.913 66.3676L195.034 68.5124L192.913 66.3676ZM163.793 62.2195H160.776V65.2365H163.793V62.2195ZM182.045 57.9055L179.763 55.9313L182.045 57.9055ZM182.045 31.192L179.763 33.1663L182.045 31.192ZM163.793 26.8781V23.8611H160.776V26.8781H163.793ZM149.358 74H152.375V15.0976H149.358H146.341V74H149.358ZM149.358 15.0976V18.1146H170.347V15.0976V12.0806H149.358V15.0976ZM170.347 15.0976V18.1146C179.558 18.1146 186.158 20.5385 190.625 24.9577L192.747 22.813L194.869 20.6683C188.937 14.8002 180.604 12.0806 170.347 12.0806V15.0976ZM192.747 22.813L190.648 24.9802C195.156 29.3464 197.611 35.7399 197.611 44.6317H200.628H203.645C203.645 34.6085 200.845 26.4561 194.845 20.6457L192.747 22.813ZM200.628 44.6317H197.611C197.611 53.4802 195.204 59.8568 190.791 64.2227L192.913 66.3676L195.034 68.5124C200.908 62.7018 203.645 54.5878 203.645 44.6317H200.628ZM192.913 66.3676L190.791 64.2227C186.376 68.5901 179.884 70.983 170.845 70.983V74V77.017C180.943 77.017 189.162 74.3216 195.034 68.5124L192.913 66.3676ZM170.845 74V70.983H149.358V74V77.017H170.845V74ZM163.793 62.2195V65.2365H170.347V62.2195V59.2025H163.793V62.2195ZM170.347 62.2195V65.2365C176.172 65.2365 181.064 63.6491 184.326 59.8798L182.045 57.9055L179.763 55.9313C178.048 57.9139 175.142 59.2025 170.347 59.2025V62.2195ZM182.045 57.9055L184.326 59.8798C187.499 56.2135 188.795 50.9009 188.795 44.5488H185.778H182.761C182.761 50.2537 181.568 53.8456 179.763 55.9313L182.045 57.9055ZM185.778 44.5488H188.795C188.795 38.1967 187.499 32.884 184.326 29.2178L182.045 31.192L179.763 33.1663C181.568 35.252 182.761 38.8439 182.761 44.5488H185.778ZM182.045 31.192L184.326 29.2178C181.064 25.4485 176.172 23.8611 170.347 23.8611V26.8781V29.895C175.142 29.895 178.048 31.1837 179.763 33.1663L182.045 31.192ZM170.347 26.8781V23.8611H163.793V26.8781V29.895H170.347V26.8781ZM163.793 26.8781H160.776V62.2195H163.793H166.81V26.8781H163.793ZM205.265 74H202.248V77.017H205.265V74ZM205.265 15.0976V12.0806H202.248V15.0976H205.265ZM219.7 15.0976H222.717V12.0806H219.7V15.0976ZM219.7 74V77.017H222.717V74H219.7ZM205.265 74H208.282V15.0976H205.265H202.248V74H205.265ZM205.265 15.0976V18.1146H219.7V15.0976V12.0806H205.265V15.0976ZM219.7 15.0976H216.683V74H219.7H222.717V15.0976H219.7ZM219.7 74V70.983H205.265V74V77.017H219.7V74ZM238.54 74H235.523V77.017H238.54V74ZM238.54 26.8781H241.557V23.8611H238.54V26.8781ZM221.118 26.8781H218.101V29.895H221.118V26.8781ZM221.118 15.0976V12.0806H218.101V15.0976H221.118ZM270.48 15.0976H273.497V12.0806H270.48V15.0976ZM270.48 26.8781V29.895H273.497V26.8781H270.48ZM253.058 26.8781V23.8611H250.041V26.8781H253.058ZM253.058 74V77.017H256.075V74H253.058ZM238.54 74H241.557V26.8781H238.54H235.523V74H238.54ZM238.54 26.8781V23.8611H221.118V26.8781V29.895H238.54V26.8781ZM221.118 26.8781H224.135V15.0976H221.118H218.101V26.8781H221.118ZM221.118 15.0976V18.1146H270.48V15.0976V12.0806H221.118V15.0976ZM270.48 15.0976H267.463V26.8781H270.48H273.497V15.0976H270.48ZM270.48 26.8781V23.8611H253.058V26.8781V29.895H270.48V26.8781ZM253.058 26.8781H250.041V74H253.058H256.075V26.8781H253.058ZM253.058 74V70.983H238.54V74V77.017H253.058V74ZM272.762 74H269.745V77.017H272.762V74ZM272.762 15.0976V12.0806H269.745V15.0976H272.762ZM287.198 15.0976H290.215V12.0806H287.198V15.0976ZM287.198 74V77.017H290.215V74H287.198ZM272.762 74H275.779V15.0976H272.762H269.745V74H272.762ZM272.762 15.0976V18.1146H287.198V15.0976V12.0806H272.762V15.0976ZM287.198 15.0976H284.181V74H287.198H290.215V15.0976H287.198ZM287.198 74V70.983H272.762V74V77.017H287.198V74ZM305.358 71.5941L303.865 74.2156L303.872 74.2197L303.879 74.2237L305.358 71.5941ZM295.32 60.9751L298.012 59.6129L295.32 60.9751ZM295.32 28.2884L298.012 29.6506L298.015 29.6441L298.018 29.6376L295.32 28.2884ZM305.358 17.5864L306.851 20.2079L306.862 20.2019L305.358 17.5864ZM336.8 17.5864L335.268 20.1851L335.287 20.1967L335.307 20.2079L336.8 17.5864ZM346.838 28.2884L344.14 29.6376L344.15 29.657L344.16 29.6762L346.838 28.2884ZM346.838 60.9751L344.16 59.5873L344.153 59.6001L344.147 59.6129L346.838 60.9751ZM336.8 71.5941L335.307 68.9726L335.3 68.9767L335.293 68.9809L336.8 71.5941ZM328.836 61.3069L327.119 58.8264L327.103 58.8369L327.088 58.8476L328.836 61.3069ZM333.814 54.836L336.603 55.9847V55.9847L333.814 54.836ZM333.814 34.4275L331.016 35.5573L331.02 35.5668L331.024 35.5762L333.814 34.4275ZM328.836 27.8736L327.076 30.3244L327.097 30.3394L327.119 30.3541L328.836 27.8736ZM313.322 27.8736L315.039 30.3541L315.061 30.3394L315.082 30.3244L313.322 27.8736ZM308.344 34.4275L305.547 33.2978L305.541 33.3119L305.536 33.3261L308.344 34.4275ZM308.344 54.836L305.536 55.9374L305.545 55.9611L305.555 55.9847L308.344 54.836ZM313.322 61.3069L315.039 58.8264H315.039L313.322 61.3069ZM321.12 75.3274V72.3104C315.452 72.3104 310.728 71.1534 306.837 68.9646L305.358 71.5941L303.879 74.2237C308.837 77.0125 314.621 78.3444 321.12 78.3444V75.3274ZM305.358 71.5941L306.851 68.9726C303.009 66.784 300.074 63.6881 298.012 59.6129L295.32 60.9751L292.628 62.3373C295.211 67.4431 298.968 71.4266 303.865 74.2156L305.358 71.5941ZM295.32 60.9751L298.012 59.6129C295.945 55.5294 294.852 50.5686 294.852 44.6317H291.835H288.818C288.818 51.305 290.048 57.2398 292.628 62.3373L295.32 60.9751ZM291.835 44.6317H294.852C294.852 38.6949 295.945 33.7341 298.012 29.6506L295.32 28.2884L292.628 26.9262C290.048 32.0237 288.818 37.9585 288.818 44.6317H291.835ZM295.32 28.2884L298.018 29.6376C300.083 25.5072 303.018 22.3911 306.851 20.2079L305.358 17.5864L303.865 14.9649C298.959 17.7594 295.202 21.778 292.621 26.9392L295.32 28.2884ZM305.358 17.5864L306.862 20.2019C310.748 17.9672 315.463 16.7872 321.12 16.7872V13.7702V10.7532C314.611 10.7532 308.817 12.1173 303.854 14.971L305.358 17.5864ZM321.12 13.7702V16.7872C326.842 16.7872 331.512 17.9705 335.268 20.1851L336.8 17.5864L338.333 14.9877C333.46 12.1141 327.677 10.7532 321.12 10.7532V13.7702ZM336.8 17.5864L335.307 20.2079C339.14 22.3911 342.075 25.5072 344.14 29.6376L346.838 28.2884L349.537 26.9392C346.956 21.778 343.199 17.7594 338.293 14.9649L336.8 17.5864ZM346.838 28.2884L344.16 29.6762C346.272 33.7537 347.389 38.705 347.389 44.6317H350.406H353.423C353.423 37.9484 352.161 32.0042 349.517 26.9006L346.838 28.2884ZM350.406 44.6317H347.389C347.389 50.5585 346.272 55.5098 344.16 59.5873L346.838 60.9751L349.517 62.3629C352.161 57.2593 353.423 51.3151 353.423 44.6317H350.406ZM346.838 60.9751L344.147 59.6129C342.084 63.6881 339.149 66.784 335.307 68.9726L336.8 71.5941L338.293 74.2156C343.19 71.4266 346.947 67.4431 349.53 62.3373L346.838 60.9751ZM336.8 71.5941L335.293 68.9809C331.532 71.1502 326.853 72.3104 321.12 72.3104V75.3274V78.3444C327.667 78.3444 333.44 77.0157 338.308 74.2074L336.8 71.5941ZM321.12 63.5469V66.5639C324.673 66.5639 327.884 65.6841 330.583 63.7663L328.836 61.3069L327.088 58.8476C325.584 59.9164 323.652 60.5299 321.12 60.5299V63.5469ZM328.836 61.3069L330.553 63.7875C333.262 61.9119 335.257 59.254 336.603 55.9847L333.814 54.836L331.024 53.6873C330.047 56.0593 328.723 57.7154 327.119 58.8264L328.836 61.3069ZM333.814 54.836L336.603 55.9847C337.953 52.7069 338.573 48.8934 338.573 44.6317H335.556H332.539C332.539 48.3344 331.997 51.3237 331.024 53.6873L333.814 54.836ZM335.556 44.6317H338.573C338.573 40.3701 337.953 36.5566 336.603 33.2788L333.814 34.4275L331.024 35.5762C331.997 37.9398 332.539 40.9291 332.539 44.6317H335.556ZM333.814 34.4275L336.611 33.2978C335.27 29.9771 333.277 27.2788 330.553 25.3931L328.836 27.8736L327.119 30.3541C328.709 31.455 330.034 33.126 331.016 35.5573L333.814 34.4275ZM328.836 27.8736L330.595 25.4228C327.853 23.4541 324.615 22.5337 321.038 22.5337V25.5507V28.5677C323.544 28.5677 325.505 29.1959 327.076 30.3244L328.836 27.8736ZM321.038 25.5507V22.5337C317.502 22.5337 314.295 23.4608 311.563 25.4228L313.322 27.8736L315.082 30.3244C316.663 29.1891 318.6 28.5677 321.038 28.5677V25.5507ZM313.322 27.8736L311.605 25.3931C308.881 27.2788 306.888 29.9771 305.547 33.2978L308.344 34.4275L311.142 35.5573C312.124 33.126 313.449 31.455 315.039 30.3541L313.322 27.8736ZM308.344 34.4275L305.536 33.3261C304.256 36.5889 303.668 40.3849 303.668 44.6317H306.685H309.702C309.702 40.9143 310.22 37.9076 311.153 35.529L308.344 34.4275ZM306.685 44.6317H303.668C303.668 48.8786 304.256 52.6746 305.536 55.9374L308.344 54.836L311.153 53.7345C310.22 51.3559 309.702 48.3492 309.702 44.6317H306.685ZM308.344 54.836L305.555 55.9847C306.901 59.254 308.896 61.9119 311.605 63.7875L313.322 61.3069L315.039 58.8264C313.435 57.7154 312.111 56.0593 311.134 53.6873L308.344 54.836ZM313.322 61.3069L311.605 63.7875C314.343 65.6834 317.566 66.5639 321.12 66.5639V63.5469V60.5299C318.591 60.5299 316.615 59.9171 315.039 58.8264L313.322 61.3069ZM355.086 74H352.069V77.017H355.086V74ZM355.086 15.0976V12.0806H352.069V15.0976H355.086ZM370.268 15.0976L372.873 13.5756L371.999 12.0806H370.268V15.0976ZM391.838 52.0153L389.233 53.5373L394.855 63.1594V52.0153H391.838ZM391.838 15.0976V12.0806H388.821V15.0976H391.838ZM406.273 15.0976H409.29V12.0806H406.273V15.0976ZM406.273 74V77.017H409.29V74H406.273ZM391.008 74L388.43 75.5673L389.312 77.017H391.008V74ZM369.521 38.6585L372.099 37.0912L366.504 27.8888V38.6585H369.521ZM369.521 74V77.017H372.538V74H369.521ZM355.086 74H358.103V15.0976H355.086H352.069V74H355.086ZM355.086 15.0976V18.1146H370.268V15.0976V12.0806H355.086V15.0976ZM370.268 15.0976L367.663 16.6196L389.233 53.5373L391.838 52.0153L394.443 50.4933L372.873 13.5756L370.268 15.0976ZM391.838 52.0153H394.855V15.0976H391.838H388.821V52.0153H391.838ZM391.838 15.0976V18.1146H406.273V15.0976V12.0806H391.838V15.0976ZM406.273 15.0976H403.256V74H406.273H409.29V15.0976H406.273ZM406.273 74V70.983H391.008V74V77.017H406.273V74ZM391.008 74L393.586 72.4327L372.099 37.0912L369.521 38.6585L366.943 40.2259L388.43 75.5673L391.008 74ZM369.521 38.6585H366.504V74H369.521H372.538V38.6585H369.521ZM369.521 74V70.983H355.086V74V77.017H369.521V74Z" fill="#100A3E" mask="url(#path-2-outside-1_2060_4)"/>
</svg>
