<svg width="20" height="21" viewBox="0 0 20 21" fill="none" xmlns="http://www.w3.org/2000/svg">
<path d="M9.99908 13.3375C10.8226 13.3375 11.5289 13.043 12.118 12.4538C12.7071 11.8647 13.0017 11.1584 13.0017 10.3349C13.0017 9.5114 12.7071 8.80509 12.118 8.21597C11.5289 7.62685 10.8226 7.33228 9.99908 7.33228C9.17558 7.33228 8.46927 7.62685 7.88015 8.21597C7.29103 8.80509 6.99647 9.5114 6.99647 10.3349C6.99647 11.1584 7.29103 11.8647 7.88015 12.4538C8.46927 13.043 9.17558 13.3375 9.99908 13.3375ZM2.07445 3.83557C1.65637 4.45636 1.41248 5.25769 1.3428 6.23956C1.27312 7.22143 1.23828 8.58654 1.23828 10.3349C1.23828 12.0833 1.27312 13.4484 1.3428 14.4302C1.41248 15.4121 1.65637 16.2134 2.07445 16.8342C2.26449 17.1256 2.4767 17.3885 2.71108 17.6229C2.94547 17.8573 3.20835 18.0695 3.49975 18.2595C4.12054 18.6776 4.92187 18.9215 5.90374 18.9912C6.88561 19.0609 8.25072 19.0957 9.99908 19.0957C11.7474 19.0957 13.1126 19.0609 14.0944 18.9912C15.0763 18.9215 15.8776 18.6776 16.4984 18.2595C16.7898 18.0695 17.0527 17.8573 17.2871 17.6229C17.5215 17.3885 17.7337 17.1256 17.9237 16.8342C18.3418 16.2134 18.5857 15.4121 18.6554 14.4302C18.725 13.4484 18.7599 12.0833 18.7599 10.3349C18.7599 8.58654 18.725 7.22143 18.6554 6.23956C18.5857 5.25769 18.3418 4.45636 17.9237 3.83557C17.7337 3.54417 17.5215 3.28129 17.2871 3.0469C17.0527 2.81252 16.7898 2.60031 16.4984 2.41027C15.8776 1.99219 15.0763 1.7483 14.0944 1.67862C13.1126 1.60894 11.7474 1.5741 9.99908 1.5741C8.25072 1.5741 6.88561 1.60894 5.90374 1.67862C4.92187 1.7483 4.12054 1.99219 3.49975 2.41027C3.20835 2.60031 2.94547 2.81252 2.71108 3.0469C2.4767 3.28129 2.26449 3.54417 2.07445 3.83557ZM15.7763 5.56492C15.7763 5.86898 15.6717 6.12237 15.4627 6.32508C15.2537 6.52779 15.0034 6.62914 14.7121 6.62914C14.4207 6.62914 14.1704 6.52779 13.9614 6.32508C13.7524 6.12237 13.6478 5.86898 13.6478 5.56492C13.6478 5.27353 13.7524 5.02331 13.9614 4.81427C14.1704 4.60522 14.4207 4.5007 14.7121 4.5007C15.0034 4.5007 15.2537 4.60522 15.4627 4.81427C15.6717 5.02331 15.7763 5.27353 15.7763 5.56492ZM14.541 10.3349C14.541 10.9557 14.4207 11.5448 14.1799 12.1023C13.9392 12.647 13.613 13.1253 13.2012 13.5371C12.7895 13.9488 12.3112 14.275 11.7664 14.5158C11.209 14.7565 10.6199 14.8768 9.99908 14.8768C9.37829 14.8768 8.78917 14.7565 8.23172 14.5158C7.68694 14.275 7.20868 13.9488 6.79692 13.5371C6.38517 13.1253 6.05894 12.647 5.81822 12.1023C5.57751 11.5448 5.45715 10.9557 5.45715 10.3349C5.45715 9.71411 5.57751 9.12499 5.81822 8.56754C6.05894 8.02276 6.38517 7.54449 6.79692 7.13274C7.20868 6.72099 7.68694 6.39476 8.23172 6.15404C8.78917 5.91333 9.37829 5.79297 9.99908 5.79297C10.6199 5.79297 11.209 5.91333 11.7664 6.15404C12.3112 6.39476 12.7895 6.72099 13.2012 7.13274C13.613 7.54449 13.9392 8.02276 14.1799 8.56754C14.4207 9.12499 14.541 9.71411 14.541 10.3349Z" fill="white"/>
</svg>
