<svg width="20" height="21" viewBox="0 0 20 21" fill="none" xmlns="http://www.w3.org/2000/svg">
<path d="M1.23828 3.51273C1.23828 3.23401 1.28896 2.97746 1.39031 2.74308C1.49167 2.50869 1.63736 2.30282 1.8274 2.12545C2.03011 1.94808 2.25816 1.81188 2.51154 1.71686C2.76493 1.62185 3.04999 1.57434 3.36672 1.57434C3.68345 1.57434 3.96534 1.61868 4.21239 1.70736C4.45944 1.79605 4.67799 1.93541 4.86803 2.12545C5.07074 2.30282 5.22277 2.51186 5.32412 2.75258C5.42548 2.99329 5.47615 3.26568 5.47615 3.56975C5.47615 3.8358 5.42548 4.08285 5.32412 4.3109C5.22277 4.53894 5.07707 4.74165 4.88703 4.91902C4.69699 5.09639 4.47211 5.23259 4.21239 5.32761C3.95267 5.42263 3.66445 5.47014 3.34771 5.47014H3.32871C3.01198 5.47014 2.73009 5.42263 2.48304 5.32761C2.23599 5.23259 2.01111 5.09639 1.8084 4.91902C1.61836 4.72898 1.47583 4.51677 1.38081 4.28239C1.28579 4.04801 1.23828 3.79146 1.23828 3.51273ZM1.46633 18.2598V7.00945H5.2101V18.2598H1.46633ZM7.30053 18.2598H11.0443V11.9695C11.0443 11.7794 11.057 11.6084 11.0823 11.4564C11.1076 11.3043 11.1393 11.1713 11.1773 11.0573C11.2533 10.8672 11.3515 10.693 11.4719 10.5347C11.5922 10.3763 11.7348 10.2274 11.8995 10.0881C12.0642 9.96139 12.2479 9.86637 12.4506 9.80303C12.6533 9.73968 12.875 9.70801 13.1157 9.70801C13.7365 9.70801 14.2053 9.91705 14.522 10.3351C14.8387 10.7532 14.9971 11.3867 14.9971 12.2355V18.2598H18.7599V11.7984C18.7599 10.9749 18.6617 10.2465 18.4653 9.61299C18.2689 8.97952 17.9744 8.44741 17.5816 8.01666C17.1762 7.5859 16.7138 7.26284 16.1944 7.04746C15.6749 6.83208 15.0921 6.72439 14.446 6.72439C13.7238 6.72439 13.0777 6.88276 12.5076 7.19949C11.9375 7.51622 11.4497 7.98499 11.0443 8.60578V8.64379H11.0253L11.0443 8.60578V7.00945H7.30053C7.3132 7.18682 7.31953 7.55423 7.31953 8.11168C7.31953 8.66913 7.31953 9.41661 7.31953 10.3541C7.31953 10.8229 7.31953 11.3423 7.31953 11.9125C7.31953 12.4699 7.31953 13.078 7.31953 13.7368C7.31953 14.3956 7.3132 15.1051 7.30053 15.8653C7.30053 16.6128 7.30053 17.4109 7.30053 18.2598Z" fill="white"/>
</svg>
