<svg width="1395" height="268" viewBox="0 0 1395 268" fill="none" xmlns="http://www.w3.org/2000/svg">
<path d="M1393.16 4.7389L1382 1M1393.16 4.7389H1360.06M1393.16 4.7389L1404.71 8.60198H1416.61M1393.16 4.7389H1416.61M1382 1L1386.06 1.00159L1390.08 1.00951L1394.02 1.03224L1397.84 1.07716L1401.49 1.15008L1404.93 1.25948L1408.13 1.41167L1411.1 1.60562L1413.65 1.87355L1415.97 2.18482L1416.61 2.29368V4.7389M1382 1H1349.43M1360.06 4.7389L1349.43 1M1360.06 4.7389H1326.96M1360.06 4.7389L1362.78 5.69278L1371.06 8.60145H1404.71L1416.61 12.5856M1416.61 4.7389V8.60198M1349.43 1H1316.85M1316.85 1H1284.28M1316.85 1L1326.96 4.7389M1284.28 1H1251.71M1284.28 1L1293.86 4.7389M1326.96 4.7389H1293.86M1326.96 4.7389L1337.4 8.60145H1303.75H1270.1H1236.44L1230.91 6.1721L1229.82 5.69278L1227.65 4.7389M1251.71 1H1219.14M1251.71 1L1260.75 4.7389M1293.86 4.7389H1260.75M1293.86 4.7389L1303.75 8.60198L1313.98 12.5951M1219.14 1H1186.57M1219.14 1L1227.65 4.7389M1260.75 4.7389H1227.65M1260.75 4.7389L1270.1 8.60198L1279.76 12.5951M1186.57 1H1154M1186.57 1L1194.55 4.7389M1227.65 4.7389H1194.55M1154 1H1121.42M1154 1L1161.44 4.7389M1194.55 4.7389H1161.44M1194.55 4.7389L1196.58 5.69278L1202.79 8.60145M1121.42 1H1088.85M1121.42 1L1128.34 4.7389M1161.44 4.7389H1128.34M1161.44 4.7389L1169.14 8.60198M1088.85 1H1056.28M1088.85 1L1095.24 4.7389M1128.34 4.7389H1095.24M1128.34 4.7389L1130.11 5.69278L1131 6.1721L1135.49 8.60145H1101.83L1106.07 11.0821L1107.79 12.0877L1108.65 12.5951M1056.28 1H1023.71M1056.28 1L1062.14 4.7389M1095.24 4.7389H1062.14M1095.24 4.7389L1101.83 8.60198H1068.18M1023.71 1H991.142M1023.71 1L1029.03 4.7389M1062.14 4.7389H1029.03M1062.14 4.7389L1063.63 5.69278L1064.38 6.1721L1068.18 8.60145M991.142 1H958.571M991.142 1L992.321 1.92376L994.113 3.32208L995.925 4.7389M1029.03 4.7389H995.925M1029.03 4.7389L1029.71 5.21452L1030.39 5.69278L1034.53 8.60145L1038.06 11.0821L1040.21 12.5951M958.571 1H925.999M958.571 1L959.622 1.92376L962.825 4.7389M995.925 4.7389H962.825M995.925 4.7389L997.151 5.69278L997.765 6.1721L1000.87 8.60145L1005.34 12.0877L1005.99 12.5951M925.999 1H893.427M925.999 1L929.72 4.7389M962.825 4.7389H929.72M962.825 4.7389L967.222 8.60198M893.427 1H860.856M893.427 1L894.611 2.38828L895.811 3.79241L896.213 4.26486L896.62 4.7389M929.72 4.7389H896.62M929.72 4.7389L930.195 5.21452L930.671 5.69278L931.152 6.1721L933.567 8.60145M860.856 1H828.284M860.856 1L861.844 2.38828L862.177 2.85386L862.51 3.32208L863.514 4.7389M896.62 4.7389H863.514M896.62 4.7389L897.433 5.69278L897.84 6.1721L898.253 6.65406L899.917 8.60145L902.031 11.0821L903.326 12.5951M828.284 1H795.712M828.284 1L830.414 4.7389M863.514 4.7389H830.414M863.514 4.7389L864.196 5.69278L865.57 7.62379L865.914 8.11157L866.262 8.60145M795.712 1L795.908 1.46082L796.109 1.92376L797.108 4.26486L797.308 4.7389M795.712 1H763.141M830.414 4.7389H797.308M830.414 4.7389L830.683 5.21452L830.953 5.69278L831.228 6.1721L832.607 8.60145M797.308 4.7389H764.203M797.308 4.7389L798.957 8.60198M763.141 1H730.569M763.141 1L764.203 4.7389M730.569 1H697.997M730.569 1L730.77 2.38828L731.103 4.7389M764.203 4.7389H731.103M764.203 4.7389L764.34 5.21452L764.478 5.69278L764.615 6.1721L765.302 8.60145M697.997 1H665.426M697.997 1V4.7389M731.103 4.7389H697.997M731.103 4.7389L731.652 8.60198M665.426 1H632.854M665.426 1L665.23 2.38828L664.897 4.7389M697.997 4.7389H664.897M697.997 4.7389V8.60198M632.854 1H600.282M632.854 1L631.792 4.7389M664.897 4.7389H631.792M664.897 4.7389L664.348 8.60198H697.997M600.282 1L600.087 1.46082L599.891 1.92376L598.892 4.26486L598.692 4.7389M600.282 1H567.716M631.792 4.7389H598.692M631.792 4.7389L631.654 5.21452L631.522 5.69278L631.385 6.1721L630.973 7.62379L630.692 8.60145M598.692 4.7389H565.586M598.692 4.7389L597.043 8.60198M567.716 1H535.144M567.716 1L565.856 4.26486L565.586 4.7389M535.144 1H502.571M535.144 1L534.156 2.38828L533.823 2.85386L533.157 3.79241L532.819 4.26486L532.481 4.7389M565.586 4.7389H532.481M565.586 4.7389L565.317 5.21452L565.042 5.69278L564.772 6.1721L563.387 8.60145L561.976 11.0821L561.4 12.0877L561.115 12.5951M502.571 1H470M502.571 1L501.387 2.38828L500.187 3.79241L499.784 4.26486L499.379 4.7389M532.481 4.7389H499.379M532.481 4.7389L531.804 5.69278L530.43 7.62379L529.732 8.60145M470 1H437.429M470 1L466.277 4.7389M499.379 4.7389H466.277M499.379 4.7389L498.565 5.69278L498.155 6.1721L497.744 6.65406L496.082 8.60145L493.965 11.0821L492.673 12.5951M437.429 1H404.857M437.429 1L436.378 1.92376L433.173 4.7389M466.277 4.7389L465.802 5.21452L462.429 8.60198H496.082H529.732M466.277 4.7389H433.173M404.857 1H372.286M404.857 1L400.07 4.7389M433.173 4.7389H400.07M433.173 4.7389L432.631 5.21452L428.776 8.60198H395.124M372.286 1H339.715M372.286 1L366.967 4.7389M400.07 4.7389H366.967M400.07 4.7389L398.848 5.69278L398.234 6.1721L395.124 8.60145M339.715 1H307.143M339.715 1L333.863 4.7389M366.967 4.7389H333.863M366.967 4.7389L366.289 5.21452L365.609 5.69278L361.471 8.60145M307.143 1H274.572M307.143 1L300.76 4.7389M333.863 4.7389H300.76M333.863 4.7389L332.371 5.69278L331.619 6.1721L327.817 8.60145M274.572 1H242.001M274.572 1L267.656 4.7389M300.76 4.7389H267.656M300.76 4.7389L299.947 5.21452L294.165 8.60198M242.001 1H209.43M242.001 1L234.553 4.7389M267.656 4.7389H234.553M267.656 4.7389L265.892 5.69278L265.004 6.1721L260.512 8.60145L254.062 12.0877L253.126 12.5951M209.43 1H176.858M209.43 1L201.45 4.7389L199.415 5.69278L193.206 8.60145L184.684 12.5951M234.553 4.7389H201.449H168.347M234.553 4.7389L226.859 8.60198M176.858 1H144.287M176.858 1L168.347 4.7389M144.287 1H111.716M144.287 1L135.244 4.7389M168.347 4.7389H135.244M168.347 4.7389L166.176 5.69278L165.083 6.1721L159.554 8.60145L150.462 12.5951M111.716 1H79.144M111.716 1L102.14 4.7389M135.244 4.7389L125.901 8.60198M79.144 1H46.5729M79.144 1L69.0375 4.7389M46.5729 1H14.0012M46.5729 1L35.9341 4.7389M14.0012 1L9.93701 1.00159L5.91404 1.00951L1.97511 1.03224L-1.84016 1.07716L-5.49001 1.15008L-8.93585 1.25948L-12.1354 1.41167L-15.1056 1.60562L-17.6546 1.87355L-19.9752 2.18482L-20.6131 2.29368V4.7389M14.0012 1L2.83022 4.7389M35.9341 4.7389H69.0369M35.9341 4.7389H2.83022M35.9341 4.7389L33.2202 5.69225L24.9418 8.60145H58.5947M-20.6131 4.7389H2.83022M-20.6131 4.7389V8.60198V12.585M2.83022 4.7389L-8.71071 8.60198M69.0369 4.7389H102.14M69.0369 4.7389L58.5942 8.60198M102.14 4.7389L92.2467 8.60198M102.14 4.7389H135.243M226.859 8.60198L218.905 12.5951M226.859 8.60198H260.512H294.165M226.859 8.60198H193.206H159.554H125.901M327.817 8.60145L321.568 12.5951M327.817 8.60145H361.471M361.471 8.60145H395.124M597.043 8.60198L596.62 9.58704L595.98 11.0821L595.552 12.0877L595.336 12.5951M597.043 8.60198H563.387H529.732M630.692 8.60145H664.348L664.062 10.5816L663.993 11.0821L663.777 12.5951M630.692 8.60145H597.043M731.652 8.60198L731.721 9.09346L731.79 9.58704L731.864 10.0833L731.933 10.5816L732.007 11.0821L732.218 12.5951M731.652 8.60198H765.302M1169.14 8.60198L1177.09 12.5951M1169.14 8.60198H1202.79M1169.14 8.60198H1135.49L1142.87 12.5951M-20.7289 39.7054H-20.6126M-20.6126 39.7054H12.5901L25.2282 34.7706M-20.6126 39.7054L-20.6131 44.8288M-20.6126 39.7054L-20.6131 37.9012M25.2282 34.7706L37.4097 30.0138M25.2282 34.7706L62.6045 34.77M-0.532115 44.8283L12.5906 39.7048H50.6688M25.2293 34.77H-12.1476M-12.1476 34.77L0.710396 30.0138M-12.1476 34.77H-20.6126M-12.1476 34.77L-20.6131 37.9012M37.4097 30.0138L49.1573 25.4273M37.4097 30.0138L74.109 30.0144M37.4097 30.0138H0.710396M62.6045 34.77L74.109 30.0144M62.6045 34.77L50.6683 39.7054M62.6045 34.77L99.9808 34.7706M0.710396 30.0138L13.1101 25.4273M0.710396 30.0138L-20.6131 30.0144M-20.6131 37.9012V34.7706V30.0144M25.0771 21.0003H60.4942M25.0771 21.0003L36.6333 16.725M25.0771 21.0003H-10.339M25.0771 21.0003L13.1101 25.4273M60.4942 21.0003L71.4427 16.725M60.4942 21.0003L49.1573 25.4273M60.4942 21.0003H95.9113M36.6333 16.725H71.4427M36.6333 16.725L47.7995 12.5951M36.6333 16.725H1.82501M-10.339 21.0003L1.82501 16.725M-10.339 21.0003H-20.6131M-10.339 21.0003L-20.6131 24.6103M13.1101 25.4273H49.1573M13.1101 25.4273H-20.6131M71.4427 16.725H106.251M71.4427 16.725L82.0207 12.5951M49.1573 25.4273H85.2044M95.9113 21.0003L106.251 16.725M95.9113 21.0003L85.2044 25.4273M95.9113 21.0003H131.328M47.7995 12.5951H82.0207M47.7995 12.5951L58.5947 8.60198H92.2472M47.7995 12.5951H13.5789M1.82501 16.725L13.5789 12.5951M1.82501 16.725H-20.6131M106.251 16.725H141.06M106.251 16.725L116.241 12.5951M82.0207 12.5951H116.241M82.0207 12.5951L92.2472 8.60198M-20.9778 117.596H-20.6131M-20.6131 117.596H9.74781M-20.6131 117.596V109.415M-20.6131 117.596V126.185M9.74781 117.596L26.0453 109.415M9.74781 117.596L-7.35985 126.185M9.74781 117.596H58.9087M26.0453 109.415L41.5896 101.612H-5.2971M26.0453 109.415H74.0418M26.0453 109.415H-20.6131M-7.35985 126.185H43.0229M-7.35985 126.185H-20.6131M-7.35985 126.185L-20.6131 132.839M58.9087 117.596L43.0229 126.185M58.9087 117.596H108.07M74.0418 109.415L88.4753 101.611M74.0418 109.415L58.9087 117.596M74.0418 109.415H122.039M-20.6131 109.415L-20.6137 108.787M-5.2971 101.612L10.6035 94.1617M-5.2971 101.612L-20.6137 108.787M10.6035 94.1617L25.8006 87.0406M10.6035 94.1617H-20.6131M-5.29816 101.612H-20.6131M-20.6131 101.612L-20.6137 108.787M-20.6131 101.612V94.1617M25.7995 87.0406H70.6129M25.7995 87.0406L40.3397 80.2281M25.7995 87.0406H-19.0128M40.3397 80.2281H84.1844M40.3397 80.2281H-3.50336M40.3397 80.2281L54.2647 73.7037M-19.0128 87.0406L-3.50336 80.2281M-19.0128 87.0406H-20.6131M-19.0128 87.0406L-20.6131 87.7435M70.6134 87.0406L84.1844 80.2281M70.6134 87.0406L56.4289 94.1617M70.6134 87.0406H115.427M84.1844 80.2281L97.1803 73.7037M84.1844 80.2281H128.028M115.427 87.0406L128.028 80.2276M115.427 87.0406L102.255 94.1611M115.427 87.0406H160.24M-3.50336 80.2281L11.3497 73.7032M-3.50336 80.2281H-20.6131M54.2647 73.7037H97.1803M54.2647 73.7037L11.3497 73.7032M54.2647 73.7037L67.6115 67.4498M97.1803 73.7037L109.638 67.4498M97.1803 73.7037L140.096 73.7032M80.4161 61.4502H121.588M80.4161 61.4502L92.7112 55.6894M80.4161 61.4502H39.2441M80.4161 61.4502L67.6115 67.4498M121.588 61.4502L133.064 55.6894M121.588 61.4502L109.638 67.4498M121.588 61.4502H162.761M92.7112 55.6894H133.064M92.7112 55.6894H52.3589M92.7112 55.6894L104.526 50.1531M39.2441 61.4502H-1.92684M39.2441 61.4502L52.3589 55.6894M39.2441 61.4502L25.586 67.4498L11.3497 73.7032M67.6115 67.4498H109.638M67.6115 67.4498L25.5865 67.4493L-16.4401 67.4498M133.064 55.6894L144.091 50.1531M133.064 55.6894H173.417M109.638 67.4498L151.664 67.4493M162.761 61.4502L173.417 55.6894M162.761 61.4502L151.664 67.4493M162.761 61.4502H203.933M52.3589 55.6894L64.9616 50.1526M104.526 50.1531H144.091M104.526 50.1531L64.9616 50.1526M104.526 50.1531L115.889 44.8288M144.091 50.1531L154.696 44.8288M144.091 50.1531L183.656 50.1526M173.417 55.6894L183.656 50.1526M173.417 55.6894H213.769M126.825 39.7054H164.903M126.825 39.7054L137.357 34.7706M126.825 39.7054H88.7464M126.825 39.7054L115.889 44.8288M164.903 39.7054L174.733 34.7706M164.903 39.7054L154.696 44.8288M164.903 39.7054H202.981M137.357 34.7706H174.733M137.357 34.7706H99.9808M137.357 34.7706L147.508 30.0144M88.7464 39.7054H50.6683M88.7464 39.7054L99.9808 34.7706M88.7464 39.7054L77.0818 44.8288M115.889 44.8288H154.696M115.889 44.8288H77.0818M174.733 34.7706L184.207 30.0144M174.733 34.7706H212.109M154.696 44.8288L193.503 44.8283M202.981 39.7054L212.109 34.7706M202.981 39.7054L193.503 44.8283M202.981 39.7054L241.059 39.7048M99.9808 34.7706L110.808 30.0144M147.508 30.0144H184.207M147.508 30.0144H110.808M147.508 30.0144L157.298 25.4273M184.207 30.0144L193.344 25.4273M184.207 30.0144H220.907M212.109 34.7706L220.907 30.0144M212.109 34.7706L249.485 34.77M166.745 21.0003H202.162M166.745 21.0003L175.868 16.725M166.745 21.0003H131.328M166.745 21.0003L157.298 25.4273M202.162 21.0003L210.677 16.725M202.162 21.0003L193.344 25.4273M202.162 21.0003H237.579M175.868 16.725H210.677M175.868 16.725L184.684 12.5951M175.868 16.725H141.06M131.328 21.0003L141.06 16.725M131.328 21.0003L121.251 25.4273M157.298 25.4273H193.344M157.298 25.4273H121.251M210.677 16.725H245.486M210.677 16.725L218.905 12.5951M193.344 25.4273H229.391M237.579 21.0003L245.486 16.725M237.579 21.0003L229.391 25.4273M237.579 21.0003H272.996M184.684 12.5951H218.905M184.684 12.5951H150.462M141.06 16.725L150.462 12.5951M245.486 16.725H280.295M245.486 16.725L253.126 12.5951M218.905 12.5951H253.126M4.57376 259.441L27.5108 243.32M4.57376 259.441L-19.9895 276.704M4.57376 259.441H73.9166M4.57376 259.441H-20.6131M27.5108 243.32L48.9802 228.231M27.5108 243.32H94.5594M27.5108 243.32H-20.6131M-19.9895 276.704H51.8098M-19.9895 276.704H-20.6131M-19.9895 276.704L-20.6131 277.142M-20.6131 259.441V276.704M-20.6131 259.441V243.32M48.9802 228.231L69.1162 214.078M48.9802 228.231H113.882M48.9802 228.231H-15.9216L-20.6126 231.228M94.5594 243.32L113.882 228.231M94.5594 243.32L73.9161 259.441M94.5594 243.32H161.608M-20.6131 243.32L-20.6126 231.228M27.0452 200.777H88.0414M27.0452 200.777L46.6463 188.253M27.0452 200.777L6.22745 214.078M27.0452 200.777H-20.6131M88.0414 200.777L105.86 188.253M88.0414 200.777L69.1162 214.078M88.0414 200.777H149.037M46.6463 188.253H105.86M46.6463 188.253H-12.5672M46.6463 188.253L65.1344 176.44M6.22745 214.078H69.1162M6.22745 214.078L-15.9221 228.231H-20.6126M-20.6131 200.777V214.078M-20.6131 200.777V192.965M105.86 188.253L122.668 176.44M105.86 188.253H165.074M69.1162 214.078H132.004M149.037 200.777L165.074 188.253M149.037 200.777L132.004 214.078M149.037 200.777H210.033M65.1344 176.44H122.668M65.1344 176.44H7.60155M65.1344 176.44L82.602 165.28M122.668 176.44L138.547 165.28M122.668 176.44H180.201M165.074 188.253L180.201 176.44M165.074 188.253H224.287M99.131 154.718H153.574M99.131 154.718L114.796 144.709M99.131 154.718H44.6888M99.131 154.718L82.602 165.28M153.574 154.718L167.815 144.709M153.574 154.718L138.547 165.28M153.574 154.718H208.016M114.796 144.709H167.815M114.796 144.709H61.7774M114.796 144.709L129.662 135.211M44.6888 154.718H-9.75397M44.6888 154.718L61.7774 144.709M44.6888 154.718L26.6567 165.28M82.602 165.28H138.547M82.602 165.28H26.6567M167.815 144.709L181.329 135.211M167.815 144.709H220.832M138.547 165.28H194.492M208.016 154.718L220.832 144.709M208.016 154.718L194.492 165.28M208.016 154.718H262.459M61.7774 144.709H8.75898M61.7774 144.709L77.9945 135.211M129.662 135.211H181.329M129.662 135.211H77.9945M129.662 135.211L143.789 126.185M181.329 135.211L194.171 126.185M181.329 135.211H232.996M220.832 144.709L232.996 135.211M220.832 144.709H273.851M157.23 117.596H206.391M157.23 117.596L170.036 109.415M157.23 117.596H108.07M157.23 117.596L143.789 126.185M206.391 117.596L218.032 109.415M206.391 117.596L194.171 126.185M206.391 117.596H255.552M170.036 109.415H218.032M170.036 109.415H122.039M170.036 109.415L182.248 101.612M108.07 117.596L122.039 109.415M108.07 117.596L93.4062 126.185M143.789 126.185H194.171M143.789 126.185H93.4062M218.032 109.415L229.134 101.612M218.032 109.415H266.029M194.171 126.185H244.554M255.552 117.596L266.029 109.415M255.552 117.596L244.554 126.185M255.552 117.596H304.712M122.039 109.415L135.361 101.612M182.248 101.612H229.134M182.248 101.612H135.361M182.248 101.612L193.909 94.1617M229.134 101.612L239.735 94.1617M229.134 101.612H276.021M266.029 109.415L276.021 101.612M266.029 109.415H314.025M205.054 87.0406H249.867M205.054 87.0406L215.716 80.2281M205.054 87.0406H160.24M205.054 87.0406L193.909 94.1617M249.867 87.0406L259.56 80.2281M249.867 87.0406L239.735 94.1617M249.867 87.0406H294.679M215.716 80.2281H259.56M215.716 80.2281H171.873M215.716 80.2281L225.927 73.7037M160.24 87.0406L171.873 80.2276M160.24 87.0406L148.082 94.1611M193.909 94.1617H239.735M193.909 94.1617H148.082M259.56 80.2281L268.843 73.7037M259.56 80.2281H303.404M239.735 94.1617H285.561M294.679 87.0406L303.404 80.2281M294.679 87.0406L285.561 94.1617M294.679 87.0406H339.493M225.927 73.7037H268.843M225.927 73.7037H183.012M225.927 73.7037L235.715 67.4498M268.843 73.7037L277.741 67.4498M268.843 73.7037H311.759M303.404 80.2281L311.759 73.7037M303.404 80.2281H347.248M245.105 61.4502H286.277M245.105 61.4502L254.122 55.6894M245.105 61.4502H203.933M245.105 61.4502L235.715 67.4498M286.277 61.4502L287.32 60.7172L294.474 55.6894M286.277 61.4502L277.741 67.4498M286.277 61.4502H327.45M254.122 55.6894H294.474M254.122 55.6894H213.769M254.122 55.6894L262.786 50.1531M203.933 61.4502L213.769 55.6894M203.933 61.4502L193.689 67.4498M235.715 67.4498H277.741M235.715 67.4498H193.689M294.474 55.6894L302.351 50.1531M294.474 55.6894H334.827M277.741 67.4498H319.766M327.45 61.4502L334.827 55.6894M327.45 61.4502L319.766 67.4498M327.45 61.4502H368.622M213.769 55.6894L223.221 50.1531M262.786 50.1531H302.351M262.786 50.1531H223.221M262.786 50.1531L271.118 44.8283M302.351 50.1531L308.995 45.4841L309.925 44.8283M302.351 50.1531H341.915M334.827 55.6894L341.915 50.1531M334.827 55.6894H375.179M279.137 39.7054H317.216M279.137 39.7054L286.862 34.7706M279.137 39.7054L241.059 39.7048M279.137 39.7054L271.118 44.8283M317.216 39.7054L324.238 34.77M317.216 39.7054L314.515 41.6036L309.925 44.8283M317.216 39.7054L355.295 39.7048M286.862 34.7706L324.238 34.77M286.862 34.7706L249.485 34.77M286.862 34.7706L294.305 30.0138M241.059 39.7048L248.449 35.3762L249.485 34.77M241.059 39.7048L232.311 44.8283M271.118 44.8283H309.925M324.238 34.77L331.004 30.0138M324.238 34.77H361.614M309.925 44.8283H348.733M355.295 39.7048L361.614 34.77M355.295 39.7048L353.677 40.9673L348.733 44.8283M355.295 39.7048L393.373 39.7054M249.485 34.77L257.606 30.0138M294.305 30.0138H331.004M294.305 30.0138H257.606M294.305 30.0138L301.484 25.4273M331.004 30.0138L367.704 30.0144M361.614 34.77L367.704 30.0144M361.614 34.77L398.99 34.7706M308.413 21.0003H343.83M308.413 21.0003L315.103 16.725M308.413 21.0003H272.996M308.413 21.0003L301.484 25.4273M343.83 21.0003L348.411 17.7804L349.163 17.2514L349.912 16.725M343.83 21.0003L337.531 25.4273M343.83 21.0003H379.247M315.103 16.725H349.912M315.103 16.725L321.568 12.5951M315.103 16.725H280.295M272.996 21.0003L280.295 16.725M272.996 21.0003L265.438 25.4268M301.484 25.4273H337.532M301.484 25.4273L265.438 25.4268M349.912 16.725H384.721M349.912 16.725L355.788 12.5951M321.568 12.5951H355.788M321.568 12.5951H287.346M280.295 16.725L287.346 12.5951M355.788 12.5951H390.01M355.788 12.5951L357.942 11.0821L361.471 8.60145M29.6972 443.084H125.169M29.6972 443.084L59.759 412.901M29.6972 443.084L-3.33635 476.252M29.6972 443.084L-20.6131 443.085M125.169 443.084L150.937 412.901M125.169 443.084L96.8547 476.252M125.169 443.084H220.641M59.759 412.901H150.937M59.759 412.901L87.2333 385.316M59.759 412.901H-20.6131M-3.33635 476.252H96.8547M-3.33635 476.252L-20.6131 493.599M-3.33635 476.252H-20.6131M-20.6131 443.085V476.252M-20.6131 443.085V412.901M150.937 412.901L174.486 385.316M150.937 412.901H242.114M96.8547 476.252L65.5948 512.869M96.8547 476.252H197.046M220.641 443.084L242.114 412.901M220.641 443.084L197.046 476.252M220.641 443.084H316.113M87.2333 385.316H174.486M87.2333 385.316H-0.0189374M87.2333 385.316L112.44 360.008M-20.6131 412.901V403.409M174.486 385.316L196.091 360.008M174.486 385.316H261.738M242.114 412.901L261.738 385.316M242.114 412.901H333.291M135.647 336.706H215.984M135.647 336.706L157.086 315.18M135.647 336.706H55.3122M135.647 336.706L112.44 360.008M215.984 336.706L234.36 315.18M215.984 336.706L196.091 360.008M215.984 336.706H296.319M157.086 315.18H234.36M157.086 315.18H79.8131M157.086 315.18L176.95 295.236M55.3122 336.706L79.8131 315.18M55.3122 336.706L28.7882 360.008M55.3122 336.706H-20.6126M112.44 360.008H196.091M112.44 360.008H28.7882M234.36 315.18L251.386 295.236M234.36 315.18H311.633M196.091 360.008H279.742M296.319 336.706L311.633 315.18M296.319 336.706L279.742 360.008M296.319 336.706H376.655M79.8131 315.18H2.53955M79.8131 315.18L102.515 295.236M176.95 295.236H251.386M176.95 295.236H102.515M176.95 295.236L195.407 276.704M251.386 295.236L267.206 276.704M251.386 295.236H325.821M311.633 315.18L325.821 295.236M311.633 315.18H388.906M212.601 259.441H281.944M212.601 259.441L228.658 243.32M212.601 259.441H143.258M212.601 259.441L195.407 276.704M281.944 259.441L295.706 243.32M281.944 259.441L267.206 276.704M281.944 259.441H351.286M228.658 243.32H295.706M228.658 243.32H161.608M228.658 243.32L243.686 228.231M143.258 259.441H73.9161M143.258 259.441L161.608 243.32M143.258 259.441L123.608 276.704M195.407 276.704H267.206M195.407 276.704H123.608M295.706 243.32L308.588 228.231M295.706 243.32H362.755M267.206 276.704H339.005M351.286 259.441L362.755 243.32M351.286 259.441L339.005 276.704M351.286 259.441H420.629M161.608 243.32L178.784 228.231M243.686 228.231H308.588M243.686 228.231H178.784M243.686 228.231L257.781 214.078M308.588 228.231L320.669 214.078M308.588 228.231H373.489M362.755 243.32L373.489 228.231M362.755 243.32H429.804M271.028 200.777H332.024M271.028 200.777L283.502 188.253M271.028 200.777H210.033M271.028 200.777L257.781 214.078M332.024 200.777L342.716 188.253M332.024 200.777L320.669 214.078M332.024 200.777H393.02M283.502 188.253H342.716M283.502 188.253H224.287M283.502 188.253L295.267 176.44M210.033 200.777L224.287 188.253M210.033 200.777L194.893 214.078M257.781 214.078H320.669M257.781 214.078H194.893M342.716 188.253L352.8 176.44M342.716 188.253H401.929M320.669 214.078H383.557M393.02 200.777L401.929 188.253M393.02 200.777L383.557 214.078M393.02 200.777H454.016M224.287 188.253L237.734 176.44M295.267 176.44H352.8M295.267 176.44H237.734M295.267 176.44L306.383 165.28M352.8 176.44L362.328 165.279M352.8 176.44H410.333M401.929 188.253L410.333 176.44M401.929 188.253H461.144M316.901 154.718H371.344M316.901 154.718L326.869 144.709M316.901 154.718H262.459M316.901 154.718L306.383 165.28M371.344 154.718L379.888 144.709M371.344 154.718L362.328 165.28M371.344 154.718H425.786M326.869 144.709H379.888M326.869 144.709H273.851M326.869 144.709L336.33 135.211M262.459 154.718L273.851 144.709M262.459 154.718L250.438 165.28M306.383 165.28H362.328M306.383 165.28H250.438M379.888 144.709L387.996 135.211M379.888 144.709H432.907M362.328 165.28H418.273M273.851 144.709L284.663 135.211M353.873 117.596H403.034M353.873 117.596L362.022 109.415M353.873 117.596H304.712M353.873 117.596L345.32 126.185M403.034 117.596L410.019 109.415M403.034 117.596L395.702 126.185M403.034 117.596H452.195M362.022 109.415H410.019M362.022 109.415H314.025M362.022 109.415L369.794 101.612M304.712 117.596L314.025 109.415M304.712 117.596L294.937 126.185M410.019 109.415L416.68 101.612M410.019 109.415H458.016M314.025 109.415L322.907 101.611M369.794 101.612H416.68M369.794 101.612L322.907 101.611M369.794 101.612L377.214 94.1611M416.68 101.612L423.041 94.1611M416.68 101.612L463.567 101.611M458.016 109.415L461.516 104.495L463.567 101.611M458.016 109.415L452.195 117.596M458.016 109.415H506.012M384.306 87.0406H429.12M384.306 87.0406L391.092 80.2281M384.306 87.0406H339.493M384.306 87.0406L377.214 94.1617M429.12 87.0406L434.935 80.2281M429.12 87.0406L423.041 94.1617M429.12 87.0406H473.932M391.092 80.2281H434.935M391.092 80.2281H347.248M391.092 80.2281L397.59 73.7037M339.493 87.0406L347.248 80.2281M339.493 87.0406L331.388 94.1617M434.935 80.2281L440.505 73.7037M434.935 80.2281H478.779M473.932 87.0406L478.779 80.2276M473.932 87.0406L472.687 88.7903L468.867 94.1611M473.932 87.0406H518.745M347.248 80.2281L354.674 73.7032M397.59 73.7037H440.505M397.59 73.7037L354.674 73.7032M397.59 73.7037L403.818 67.4498M440.505 73.7037L443.202 70.5429L445.844 67.4498M440.505 73.7037L483.421 73.7032M409.794 61.4502H450.966M409.794 61.4502L415.531 55.6894M409.794 61.4502H368.622M409.794 61.4502L403.818 67.4498M450.966 61.4502L450.337 62.1863L445.844 67.4498M450.966 61.4502L455.884 55.6894M450.966 61.4502H492.138M415.531 55.6894H455.884M415.531 55.6894H375.179M415.531 55.6894L421.045 50.1531M368.622 61.4502L375.179 55.6894M368.622 61.4502L361.792 67.4493M403.818 67.4498H445.844M403.818 67.4498L361.792 67.4493M445.844 67.4498L487.87 67.4493M455.884 55.6894L460.61 50.1531M455.884 55.6894H496.236M492.138 61.4502L496.236 55.6894M492.138 61.4502L487.87 67.4493M492.138 61.4502H533.31M375.179 55.6894L381.48 50.1526M421.045 50.1531H460.61M421.045 50.1531L381.48 50.1526M421.045 50.1531L426.348 44.8288M460.61 50.1531L465.155 44.8288M460.61 50.1531L500.175 50.1526M496.236 55.6894L500.175 50.1526M496.236 55.6894H536.587M431.451 39.7054H469.529M431.451 39.7054L436.366 34.7706M431.451 39.7054H393.373M431.451 39.7054L426.348 44.8288M469.529 39.7054L473.742 34.7706M469.529 39.7054L467.909 41.6042L466.815 42.8852L465.155 44.8288M469.529 39.7054H507.609M436.366 34.7706H473.742M436.366 34.7706H398.99M436.366 34.7706L441.102 30.0144M393.373 39.7054L398.99 34.7706M393.373 39.7054L387.54 44.8288M426.348 44.8288H465.155M426.348 44.8288H387.54M473.742 34.7706L475.282 32.9664L476.298 31.7773L477.803 30.0144M473.742 34.7706H511.119M465.155 44.8288L503.963 44.8283M507.609 39.7054L508.497 38.454L511.119 34.7706M507.609 39.7054L507.159 40.3348L506.709 40.9673L505.346 42.8846L504.886 43.5294L503.963 44.8283M507.609 39.7054H545.688H583.767M398.99 34.7706L404.403 30.0144M441.102 30.0144H477.803M441.102 30.0144H404.403M441.102 30.0144L444.544 26.5582L445.672 25.4273M477.803 30.0144L479.778 27.6997L481.718 25.4273M477.803 30.0144H514.501M511.119 34.7706L511.547 34.1665L511.975 33.5641L513.666 31.186L514.501 30.0144M511.119 34.7706H548.494M450.081 21.0003H485.497M450.081 21.0003L453.288 17.7804L454.338 16.725M450.081 21.0003H414.663M450.081 21.0003L446.231 24.865L445.672 25.4273M485.497 21.0003L488.246 17.7804L488.697 17.2514L489.147 16.725M485.497 21.0003L483.624 23.1935L481.718 25.4273M485.497 21.0003H520.912M454.338 16.725H489.147M454.338 16.725L458.452 12.5951M454.338 16.725H419.529M445.672 25.4273H481.718M445.672 25.4273H409.624M489.147 16.725H523.956M489.147 16.725L492.673 12.5951M481.718 25.4273H517.767M520.912 21.0003L523.956 16.725M520.912 21.0003L517.767 25.4273M520.912 21.0003H556.332M458.452 12.5951H492.673M458.452 12.5951L462.429 8.60145L428.776 8.60093L425.953 11.0815L424.231 12.5945L458.452 12.5951ZM419.529 16.725H384.721M419.529 16.725L414.664 21.0003M419.529 16.725L423.071 13.6145L424.231 12.5951H390.01M523.956 16.725H558.763M523.956 16.725L526.17 13.6145L526.894 12.5951M492.673 12.5951H526.894M411.584 443.084H507.055M411.584 443.084L424.468 412.901M411.584 443.084H316.113M411.584 443.084L397.427 476.252M507.055 443.084L515.648 412.901M507.055 443.084L497.618 476.252M507.055 443.084H602.528M424.468 412.901H515.648M424.468 412.901H333.291M424.468 412.901L436.242 385.316M316.113 443.084L333.291 412.901M316.113 443.084L297.236 476.252M397.427 476.252H497.618M397.427 476.252L381.797 512.869M397.427 476.252H297.236M515.648 412.901L523.496 385.316M515.648 412.901H606.82M497.618 476.252L487.198 512.869M497.618 476.252H597.809M602.528 443.084L606.82 412.901M602.528 443.084L597.809 476.252M602.528 443.084H697.997M333.291 412.901L348.99 385.316M436.242 385.316H523.496M436.242 385.316H348.99M436.242 385.316L447.045 360.008M523.496 385.316L530.694 360.008M523.496 385.316H610.747M606.82 412.901L610.747 385.316M606.82 412.901H697.997M456.991 336.706H537.327M456.991 336.706L466.179 315.18M456.991 336.706H376.655M456.991 336.706L447.045 360.008M537.327 336.706L543.452 315.18M537.327 336.706L530.694 360.008M537.327 336.706H617.665M466.179 315.18H543.452M466.179 315.18H388.906M466.179 315.18L474.692 295.236M376.655 336.706L388.906 315.18M376.655 336.706L363.394 360.008M447.045 360.008H530.694M447.045 360.008H363.394M543.452 315.18L549.128 295.236M543.452 315.18H620.725M530.694 360.008H614.346M617.665 336.706L620.725 315.18M617.665 336.706L614.346 360.008M617.665 336.706H697.997M388.906 315.18L400.257 295.236M474.692 295.236H549.128M474.692 295.236H400.257M474.692 295.236L482.603 276.704M549.128 295.236L554.403 276.704M549.128 295.236H623.563M620.725 315.18L623.563 295.236M620.725 315.18H697.997M489.971 259.441H559.313M489.971 259.441L496.853 243.32M489.971 259.441H420.629M489.971 259.441L482.603 276.704M559.313 259.441L563.9 243.32M559.313 259.441L554.403 276.704M559.313 259.441H628.658M496.853 243.32H563.9M496.853 243.32H429.804M496.853 243.32L503.293 228.231M420.629 259.441L429.804 243.32M420.629 259.441L410.803 276.704M482.603 276.704H554.403M482.603 276.704H410.803M563.9 243.32L568.197 228.231M563.9 243.32H630.951M554.403 276.704H626.2M628.658 259.441L630.951 243.32M628.658 259.441L626.2 276.704M628.658 259.441H697.997M429.804 243.32L438.391 228.231M503.293 228.231H568.197M503.293 228.231H438.391M503.293 228.231L509.332 214.078M568.197 228.231L572.224 214.078M568.197 228.231H633.097M630.951 243.32L633.097 228.231M630.951 243.32H697.997M515.014 200.777H576.008M515.014 200.777L520.357 188.253M515.014 200.777H454.016M515.014 200.777L509.332 214.078M576.008 200.777L579.57 188.253M576.008 200.777L572.224 214.078M576.008 200.777H637.003M520.357 188.253H579.57M520.357 188.253H461.144M520.357 188.253L525.399 176.44M454.016 200.777L461.144 188.253M454.016 200.777L446.446 214.078M509.332 214.078H572.224M509.332 214.078H446.446M579.57 188.253L582.932 176.44M579.57 188.253H638.784M572.224 214.078H635.111M637.003 200.777L638.784 188.253M637.003 200.777L635.111 214.078M637.003 200.777H697.997M461.144 188.253L467.866 176.44M525.399 176.44H582.932M525.399 176.44H467.866M525.399 176.44L530.166 165.28M582.932 176.44L586.108 165.28M582.932 176.44H640.464M638.784 188.253L640.464 176.44M638.784 188.253H697.997M534.669 154.718H589.115M534.669 154.718L538.944 144.709M534.669 154.718H480.229M534.669 154.718L530.166 165.28M589.115 154.718L591.964 144.709M589.115 154.718L586.108 165.28M589.115 154.718H643.556M538.944 144.709H591.964M538.944 144.709H485.925M538.944 144.709L542.998 135.211M530.166 165.28H586.108M530.166 165.28H474.218M591.964 144.709L594.664 135.211M591.964 144.709H644.978M586.108 165.28H642.055M643.556 154.718L644.978 144.709M643.556 154.718L642.055 165.28M643.556 154.718H697.997M542.998 135.211H594.664M542.998 135.211H491.331M542.998 135.211L546.851 126.185M594.664 135.211L597.233 126.185M594.664 135.211H646.331M644.978 144.709L646.331 135.211M644.978 144.709H697.997M550.518 117.596H599.675M550.518 117.596L554.007 109.415M550.518 117.596H501.356M550.518 117.596L546.851 126.185M599.675 117.596L602.005 109.415M599.675 117.596L597.233 126.185M599.675 117.596H648.836M554.007 109.415H602.005M554.007 109.415H506.012M554.007 109.415L555.275 106.446L557.341 101.612M546.851 126.185H597.233M546.851 126.185H496.468M602.005 109.415L604.225 101.612M602.005 109.415H650.004M597.233 126.185H647.615M648.836 117.596L650.004 109.415M648.836 117.596L647.615 126.185M648.836 117.596H697.997M506.012 109.415L510.453 101.612M506.012 109.415L501.356 117.596M557.341 101.612H604.225M557.341 101.612H510.453M557.341 101.612L560.518 94.1617M604.225 101.612L606.344 94.1617M604.225 101.612H651.114M650.004 109.415L651.114 101.612M650.004 109.415H697.997M563.562 87.0406H608.374M563.562 87.0406L566.469 80.2281M563.562 87.0406H518.745M563.562 87.0406L561.295 92.3517L560.518 94.1617M608.374 87.0406L609.108 84.4506L610.313 80.2281M608.374 87.0406L606.344 94.1617M608.374 87.0406H653.186M566.469 80.2281L566.823 79.3969L569.254 73.7037M566.469 80.2281H610.313M566.469 80.2281H522.624M518.745 87.0406L522.624 80.2276M518.745 87.0406L518.248 87.9131L516.742 90.5607L514.691 94.1611M560.518 94.1617H606.344M560.518 94.1617H514.691M610.313 80.2281L611.016 77.7486L611.249 76.9305L611.481 76.1177L612.168 73.7037M610.313 80.2281H654.153M606.344 94.1617H652.171M653.186 87.0406L654.153 80.2281M653.186 87.0406L652.171 94.1617M653.186 87.0406H697.997M569.254 73.7037H612.168M569.254 73.7037H526.334M569.254 73.7037L571.923 67.4498M612.168 73.7037L612.845 71.3277L613.067 70.5435L613.949 67.4498M612.168 73.7037H655.083M654.153 80.2281L654.274 79.3969L655.083 73.7037M654.153 80.2281H697.997M574.481 61.4502H615.657M574.481 61.4502L575.723 58.5404L576.029 57.8228L576.336 57.1078L576.637 56.397L576.944 55.6894M574.481 61.4502H533.31M574.481 61.4502L571.923 67.4498M615.657 61.4502L616.888 57.1078L617.094 56.397L617.295 55.6894M615.657 61.4502L613.949 67.4498M615.657 61.4502H656.827M576.944 55.6894H617.295M576.944 55.6894H536.587M576.944 55.6894L578.429 52.2036L578.719 51.5166L579.306 50.1531M533.31 61.4502L535.784 57.1072L536.587 55.6894M533.31 61.4502L532.047 63.6702L530.763 65.9257L529.896 67.4498M571.923 67.4498H613.949M571.923 67.4498H529.896M617.295 55.6894L618.283 52.2036L618.484 51.5166L618.674 50.8333L618.87 50.1531M617.295 55.6894H657.646M613.949 67.4498H655.971M656.827 61.4502L657.646 55.6894M656.827 61.4502L656.51 63.6708L656.187 65.9263L655.971 67.4498M656.827 61.4502H697.997M536.587 55.6894L539.737 50.1531M579.306 50.1531H618.87M579.306 50.1531H539.737M579.306 50.1531L581.579 44.8288M618.87 50.1531L620.387 44.8288M618.87 50.1531H658.434M657.646 55.6894L658.434 50.1531M657.646 55.6894H697.997M583.767 39.7054H621.84M583.767 39.7054L585.87 34.7706M583.767 39.7054L583.222 40.9679L582.408 42.8852L581.579 44.8288M621.84 39.7054L621.66 40.3353L620.572 44.1778L620.387 44.8288M621.84 39.7054L623.246 34.7706M621.84 39.7054H659.919M585.87 34.7706H623.246M585.87 34.7706H548.494M585.87 34.7706L587.899 30.0144M581.579 44.8288H620.387M581.579 44.8288L542.771 44.8294M620.387 44.8288H659.189M623.246 34.7706L623.758 32.9664L623.928 32.3703L624.097 31.7773L624.599 30.0144M623.246 34.7706H660.622M659.919 39.7054L660.452 35.9866L660.537 35.3767L660.622 34.7706M659.919 39.7054L659.189 44.8288M659.919 39.7054H697.997M548.494 34.7706L551.2 30.0144M548.494 34.7706L548.151 35.3762L545.688 39.7043L545.329 40.3348L544.969 40.9673L544.604 41.6036L542.771 44.8283M587.899 30.0144H624.599M587.899 30.0144H551.2M587.899 30.0144L588.396 28.8517L588.645 28.2747L588.888 27.7002L589.131 27.1274L589.374 26.5582L589.617 25.9917L589.86 25.4273M624.599 30.0144L624.768 29.4315L624.932 28.8517L625.259 27.7002L625.423 27.1274L625.582 26.5582L625.746 25.9917L625.904 25.4273M624.599 30.0144H661.298M660.622 34.7706L661.298 30.0144M660.622 34.7706H697.997M591.747 21.0003H627.167M591.747 21.0003L593.121 17.7804L593.57 16.725M591.747 21.0003H556.332M591.747 21.0003L591.049 22.6417L590.812 23.1935L590.574 23.7483L589.86 25.4273M627.167 21.0003L627.321 20.4576L627.627 19.3795L627.928 18.311L628.383 16.7256M627.167 21.0003L626.538 23.1935L626.385 23.7483L626.063 24.865L625.904 25.4273M627.167 21.0003H662.582M593.57 16.725L628.383 16.7256M593.57 16.725L595.119 13.1035L595.336 12.5951M593.57 16.725H558.763M556.332 21.0003L558.763 16.725M556.332 21.0003L553.811 25.4273M589.86 25.4273H625.904M589.86 25.4273H553.811M628.383 16.7256L628.531 16.2013L628.679 15.6792L628.827 15.1597L628.975 14.6423L629.413 13.1035L629.556 12.5951M628.383 16.7256L663.19 16.725M625.904 25.4273H661.953M662.582 21.0003L663.19 16.725M662.582 21.0003L661.953 25.4273M662.582 21.0003H697.997M595.336 12.5951H629.556M595.336 12.5951H561.115M558.763 16.725L559.952 14.6429L560.824 13.1035L561.115 12.5951M629.556 12.5951L629.699 12.0877L630.27 10.0833L630.692 8.60198M629.556 12.5951H663.777M663.19 16.725L663.264 16.2013L663.338 15.6792L663.412 15.1597L663.777 12.5951M663.19 16.725H697.997M793.471 443.084H888.94M793.471 443.084L789.175 412.901M793.471 443.084H697.997M793.471 443.084L798.191 476.252M888.94 443.084L880.352 412.901M888.94 443.084L898.379 476.252M888.94 443.084H984.415M789.175 412.901H880.352M789.175 412.901H697.997M789.175 412.901L785.253 385.316M697.997 443.084V412.901M697.997 443.084V476.252M798.191 476.252H898.379M798.191 476.252L803.402 512.869M798.191 476.252H697.997M880.352 412.901L872.504 385.316M880.352 412.901H971.53M898.379 476.252L908.802 512.869M898.379 476.252H998.573M984.415 443.084L971.53 412.901M984.415 443.084L998.573 476.252M984.415 443.084H1079.88M697.997 412.901V385.316M785.253 385.316H872.504M785.253 385.316H697.997M785.253 385.316L781.649 360.008M872.504 385.316L865.3 360.008M872.504 385.316H959.755M971.53 412.901L959.755 385.316M971.53 412.901H1062.71M778.335 336.706H858.673M778.335 336.706L775.27 315.18M778.335 336.706H697.997M778.335 336.706L781.649 360.008M858.673 336.706L852.548 315.18M858.673 336.706L865.3 360.008M858.673 336.706H939.006M775.27 315.18H852.548M775.27 315.18H697.997M775.27 315.18L772.432 295.236M697.997 336.706V315.18M697.997 336.706V360.008M781.649 360.008H865.3M781.649 360.008H697.997M852.548 315.18L846.872 295.236M852.548 315.18H929.82M865.3 360.008H948.952M939.006 336.706L929.82 315.18M939.006 336.706L948.952 360.008M939.006 336.706H1019.34M697.997 315.18V295.236M772.432 295.236H846.872M772.432 295.236H697.997M772.432 295.236L769.8 276.704M846.872 295.236L841.597 276.704M846.872 295.236H921.306M929.82 315.18L921.306 295.236M929.82 315.18H1007.09M767.342 259.441H836.682M767.342 259.441L765.049 243.32M767.342 259.441H697.997M767.342 259.441L769.8 276.704M836.682 259.441L832.095 243.32M836.682 259.441L841.597 276.704M836.682 259.441H906.027M765.049 243.32H832.095M765.049 243.32H697.997M765.049 243.32L762.903 228.231M697.997 259.441V243.32M697.997 259.441V276.704M769.8 276.704H841.597M769.8 276.704H697.997M832.095 243.32L827.803 228.231M832.095 243.32H899.146M841.597 276.704H913.394M906.027 259.441L899.146 243.32M906.027 259.441L913.394 276.704M906.027 259.441H975.367M697.997 243.32V228.231M762.903 228.231H827.803M762.903 228.231H697.997M762.903 228.231L760.889 214.078M827.803 228.231L823.776 214.078M827.803 228.231H892.703M899.146 243.32L892.703 228.231M899.146 243.32H966.192M758.997 200.777H819.992M758.997 200.777L757.211 188.253M758.997 200.777H697.997M758.997 200.777L760.889 214.078M819.992 200.777L816.424 188.253M819.992 200.777L823.776 214.078M819.992 200.777H880.986M757.211 188.253H816.424M757.211 188.253H697.997M757.211 188.253L755.53 176.44M697.997 200.777V188.253M697.997 200.777V214.078M760.889 214.078H823.776M760.889 214.078H697.997M816.424 188.253L813.063 176.44M816.424 188.253H875.638M823.776 214.078H886.663M880.986 200.777L875.638 188.253M880.986 200.777L886.663 214.078M880.986 200.777H941.981M697.997 188.253V176.44M755.53 176.44H813.063M755.53 176.44H697.997M755.53 176.44L753.945 165.28M813.063 176.44L809.887 165.28M813.063 176.44H870.596M875.638 188.253L870.596 176.44M875.638 188.253H934.851M752.438 154.718H806.885M752.438 154.718L751.017 144.709M752.438 154.718H697.997M752.438 154.718L753.945 165.28M806.885 154.718L804.036 144.709M806.885 154.718L809.887 165.28M806.885 154.718H861.326M751.017 144.709H804.036M751.017 144.709H697.997M751.017 144.709L749.664 135.211M697.997 154.718V144.709M697.997 154.718V165.28M753.945 165.28H809.887M753.945 165.28H697.997M804.036 144.709L801.33 135.211M804.036 144.709H857.056M809.887 165.28H865.834M861.326 154.718L857.056 144.709M861.326 154.718L865.834 165.28M861.326 154.718H915.767M697.997 144.709V135.211M749.664 135.211H801.33M749.664 135.211H697.997M749.664 135.211L748.538 127.289L748.38 126.185M801.33 135.211L798.767 126.185M801.33 135.211H853.002M857.056 144.709L853.002 135.211M857.056 144.709H910.07M747.159 117.596H796.32M747.159 117.596L745.996 109.415M747.159 117.596H697.997M747.159 117.596L748.38 126.185M796.32 117.596L793.989 109.415M796.32 117.596L798.767 126.185M796.32 117.596H845.482M745.996 109.415H793.989M745.996 109.415H697.997M745.996 109.415L744.886 101.612M697.997 117.596V109.415M697.997 117.596V126.185M748.38 126.185H798.767M748.38 126.185H697.997M793.989 109.415L791.77 101.612M793.989 109.415H841.988M798.767 126.185H849.149M845.482 117.596L841.988 109.415M845.482 117.596L849.149 126.185M845.482 117.596H894.643M697.997 109.415V101.612M744.886 101.612H791.77M744.886 101.612H697.997M744.886 101.612L743.824 94.1617M791.77 101.612L789.65 94.1617M791.77 101.612H838.659M841.988 109.415L841.143 107.43L838.659 101.612M841.988 109.415H889.987M742.814 87.0406H787.626M742.814 87.0406L741.842 80.2281M742.814 87.0406H697.997M742.814 87.0406L743.824 94.1617M787.626 87.0406L785.925 81.0636L785.687 80.2281M787.626 87.0406L789.65 94.1617M787.626 87.0406H832.438M741.842 80.2281L741.726 79.3969L740.912 73.7037M741.842 80.2281H785.687M741.842 80.2281H697.997M697.997 87.0406V80.2281M697.997 87.0406V94.1617M743.824 94.1617H789.65M743.824 94.1617H697.997M785.687 80.2281L784.978 77.7486L784.751 76.9305L784.519 76.1177L783.832 73.7037M785.687 80.2281H829.531M789.65 94.1617H835.477M832.438 87.0406L829.531 80.2281M832.438 87.0406L834.705 92.3517L835.477 94.1617M832.438 87.0406H877.25M740.912 73.7037H783.832M740.912 73.7037H697.997M740.912 73.7037L740.69 72.1157L740.246 68.9887L740.024 67.4498M697.997 80.2281V73.7037M783.832 73.7037L783.155 71.3277L782.933 70.5435L782.051 67.4498M783.832 73.7037H826.746M829.531 80.2281L826.746 73.7037M829.531 80.2281H873.376M739.173 61.4502H780.343M739.173 61.4502L738.349 55.6894M739.173 61.4502H697.997M739.173 61.4502L739.485 63.6708L739.596 64.4191L739.702 65.1706L739.918 66.6862L740.024 67.4498M780.343 61.4502L779.107 57.1078L778.705 55.6894M780.343 61.4502L782.051 67.4498M780.343 61.4502H821.514M738.349 55.6894H778.705M738.349 55.6894H697.997M738.349 55.6894L737.561 50.1531M697.997 61.4502V55.6894M697.997 61.4502V67.4498M740.024 67.4498H782.051M740.024 67.4498H697.997M778.705 55.6894L777.712 52.2036L777.516 51.5166L777.32 50.8333L777.13 50.1531M778.705 55.6894H819.056M782.051 67.4498H824.077M821.514 61.4502L819.965 57.8228L819.664 57.1078L819.358 56.397L819.056 55.6894M821.514 61.4502L823.749 66.6862L824.077 67.4498M821.514 61.4502H862.69M697.997 55.6894V50.1531M737.561 50.1531H777.13M737.561 50.1531H697.997M737.561 50.1531L736.805 44.8288M777.13 50.1531L775.613 44.8288M777.13 50.1531H816.694M819.056 55.6894L817.862 52.8938L817.566 52.2036L817.275 51.5166L816.694 50.1531M819.056 55.6894H859.408M736.076 39.7054H774.155M736.076 39.7054L735.373 34.7706M736.076 39.7054H697.997M736.076 39.7054L736.805 44.8288M774.155 39.7054L774.334 40.3353L775.428 44.1778L775.613 44.8288M774.155 39.7054L772.749 34.7706M774.155 39.7054H812.233M735.373 34.7706H772.749M735.373 34.7706H697.997M735.373 34.7706L734.697 30.0144M697.997 39.7054V34.7706M697.997 39.7054V44.8294M736.805 44.8288H775.613M736.805 44.8288L697.997 44.8294M775.613 44.8288H814.421M772.749 34.7706L772.236 32.9664L772.067 32.3703L771.898 31.7773L771.396 30.0144M772.749 34.7706H810.125M812.233 39.7054L810.125 34.7706M812.233 39.7054L812.772 40.9679L813.592 42.8852L814.421 44.8288M812.233 39.7054H850.312M697.997 34.7706V30.0144M734.697 30.0144H771.396M734.697 30.0144H697.997M734.697 30.0144L734.047 25.4273M771.396 30.0144L771.232 29.4315L770.741 27.7002L770.577 27.1274L770.413 26.5582L770.254 25.9917L770.091 25.4273M771.396 30.0144H808.095M810.125 34.7706L808.095 30.0144M810.125 34.7706H847.5M733.418 21.0003H768.833M733.418 21.0003L732.81 16.725M733.418 21.0003H697.997M733.418 21.0003L734.047 25.4273M768.833 21.0003L768.679 20.4576L768.373 19.3795L768.22 18.8437L767.918 17.7804L767.765 17.2514L767.617 16.725M768.833 21.0003L769.456 23.1935L769.615 23.7483L769.932 24.865L770.091 25.4273M768.833 21.0003H804.248M732.81 16.725L732.731 16.2013L732.657 15.6792L732.583 15.1597L732.218 12.5951M732.81 16.725H767.617M732.81 16.725H697.997M697.997 21.0003V16.725M697.997 21.0003V25.4273M734.047 25.4273H770.091M734.047 25.4273H697.997M767.617 16.725H802.424M767.617 16.725L767.321 15.6792L767.168 15.1597L767.025 14.6423L766.587 13.1035L766.439 12.5951M770.091 25.4273H806.14M804.248 21.0003L802.874 17.7804L802.424 16.725M804.248 21.0003L805.421 23.7483L806.14 25.4273M804.248 21.0003L839.668 20.9998M732.218 12.5951H766.439M732.218 12.5951H697.997M697.997 16.725V12.5951M802.424 16.725H837.232M802.424 16.725L801.098 13.6145L800.659 12.5951M766.439 12.5951L766.296 12.0877L765.725 10.0833L765.302 8.60198M766.439 12.5951H800.659M1175.36 443.084H1270.83M1175.36 443.084L1153.88 412.901M1175.36 443.084H1079.88M1175.36 443.084L1198.96 476.252M1270.83 443.084L1245.06 412.901M1270.83 443.084L1299.14 476.252M1270.83 443.084H1366.3M1153.88 412.901H1245.06M1153.88 412.901H1062.71M1153.88 412.901L1134.26 385.316M1079.88 443.084L1062.71 412.901M1079.88 443.084L1098.76 476.252M1198.96 476.252H1299.14M1198.96 476.252L1225 512.869M1198.96 476.252H1098.76M1245.06 412.901L1221.51 385.316M1245.06 412.901H1336.24M1299.14 476.252L1330.4 512.869M1299.14 476.252H1399.33M1366.3 443.084L1336.24 412.901M1366.3 443.084L1399.33 476.252M1366.3 443.084H1416.61M1062.71 412.901L1047.01 385.316M1134.26 385.316H1221.51M1134.26 385.316H1047.01M1134.26 385.316L1116.26 360.008M1221.51 385.316L1199.91 360.008M1221.51 385.316H1308.76M1336.24 412.901L1308.76 385.316M1336.24 412.901H1416.61M1099.68 336.706H1180.01M1099.68 336.706L1084.37 315.18M1099.68 336.706H1019.34M1099.68 336.706L1116.26 360.008M1180.01 336.706L1161.64 315.18M1180.01 336.706L1199.91 360.008M1180.01 336.706H1260.35M1084.37 315.18H1161.64M1084.37 315.18H1007.09M1084.37 315.18L1070.17 295.236M1019.34 336.706L1007.09 315.18M1019.34 336.706L1032.6 360.008M1116.26 360.008H1199.91M1116.26 360.008H1032.6M1161.64 315.18L1144.61 295.236M1161.64 315.18H1238.91M1199.91 360.008H1283.56M1260.35 336.706L1238.91 315.18M1260.35 336.706L1283.56 360.008M1260.35 336.706H1340.68M1007.09 315.18L995.74 295.236M1070.17 295.236H1144.61M1070.17 295.236H995.74M1070.17 295.236L1056.99 276.704M1144.61 295.236L1128.79 276.704M1144.61 295.236H1219.05M1238.91 315.18L1219.05 295.236M1238.91 315.18H1316.18M1044.71 259.441H1114.06M1044.71 259.441L1033.24 243.32M1044.71 259.441H975.367M1044.71 259.441L1056.99 276.704M1114.06 259.441L1100.29 243.32M1114.06 259.441L1128.79 276.704M1114.06 259.441H1183.4M1033.24 243.32H1100.29M1033.24 243.32H966.192M1033.24 243.32L1022.51 228.231M975.367 259.441L966.192 243.32M975.367 259.441L985.197 276.704M1056.99 276.704H1128.79M1056.99 276.704H985.197M1100.29 243.32L1087.41 228.231M1100.29 243.32H1167.34M1128.79 276.704H1200.59M1183.4 259.441L1167.34 243.32M1183.4 259.441L1200.59 276.704M1183.4 259.441H1252.74M966.192 243.32L957.609 228.231M1022.51 228.231H1087.41M1022.51 228.231H957.609M1022.51 228.231L1012.44 214.078M1087.41 228.231L1075.33 214.078M1087.41 228.231H1152.31M1167.34 243.32L1152.31 228.231M1167.34 243.32H1234.39M1002.98 200.777H1063.98M1002.98 200.777L994.07 188.253M1002.98 200.777H941.981M1002.98 200.777L1012.44 214.078M1063.98 200.777L1053.28 188.253M1063.98 200.777L1075.33 214.078M1063.98 200.777H1124.97M994.07 188.253H1053.28M994.07 188.253H934.851M994.07 188.253L985.662 176.44M941.981 200.777L934.851 188.253M941.981 200.777L949.554 214.078M1012.44 214.078H1075.33M1012.44 214.078H949.554M1053.28 188.253L1043.2 176.44M1053.28 188.253H1112.5M1075.33 214.078H1138.21M1124.97 200.777L1112.5 188.253M1124.97 200.777L1138.21 214.078M1124.97 200.777H1185.96M934.851 188.253L928.129 176.44M985.662 176.44H1043.2M985.662 176.44H928.129M985.662 176.44L977.724 165.28M1043.2 176.44L1033.67 165.28M1043.2 176.44H1100.73M1112.5 188.253L1100.73 176.44M1112.5 188.253H1171.71M970.214 154.718H1024.65M970.214 154.718L963.089 144.709M970.214 154.718H915.767M970.214 154.718L977.724 165.28M1024.65 154.718L1016.11 144.709M1024.65 154.718L1033.67 165.28M1024.65 154.718H1079.1M963.089 144.709H1016.11M963.089 144.709H910.07M963.089 144.709L956.335 135.211M915.767 154.718L914.314 152.167L910.07 144.709M915.767 154.718L921.782 165.28M977.724 165.28H1033.67M977.724 165.28H921.782M1016.11 144.709L1008 135.211M1016.11 144.709H1069.13M1033.67 165.28H1089.61M1079.1 154.718L1069.13 144.709M1079.1 154.718L1089.61 165.28M1079.1 154.718H1133.54M910.07 144.709L904.669 135.211M956.335 135.211H1008M956.335 135.211H904.669M956.335 135.211L949.914 126.185M1008 135.211L1000.3 126.185M1008 135.211H1059.67M1069.13 144.709L1059.67 135.211M1069.13 144.709H1122.15M943.804 117.596H992.966M943.804 117.596L937.98 109.415M943.804 117.596H894.643M943.804 117.596L949.914 126.185M992.966 117.596L985.979 109.415M992.966 117.596L1000.3 126.185M992.966 117.596H1042.12M937.98 109.415H985.979M937.98 109.415H889.987M937.98 109.415L932.431 101.612M894.643 117.596L889.987 109.415M894.643 117.596L899.532 126.185M949.914 126.185H1000.3M949.914 126.185H899.532M985.979 109.415L979.32 101.612M985.979 109.415H1033.98M1000.3 126.185H1050.68M1042.12 117.596L1033.98 109.415M1042.12 117.596L1050.68 126.185M1042.12 117.596H1091.28M889.987 109.415L885.542 101.612M932.431 101.612H979.32M932.431 101.612H885.542M932.431 101.612L927.13 94.1617M979.32 101.612L972.957 94.1617M979.32 101.612H1026.2M1033.98 109.415L1026.2 101.612M1033.98 109.415H1081.97M922.067 87.0406L922.685 87.9136L923.309 88.7909L927.13 94.1617M922.067 87.0406H966.879M922.067 87.0406L917.221 80.2281M922.067 87.0406H877.25M927.13 94.1617H972.957M927.13 94.1617H881.304M966.879 87.0406L961.06 80.2281M966.879 87.0406L972.957 94.1617M966.879 87.0406H1011.69M917.221 80.2281H961.06M917.221 80.2281H873.376M917.221 80.2281L912.575 73.7037M877.25 87.0406L873.376 80.2281M877.25 87.0406L879.253 90.5612L881.304 94.1617M961.06 80.2281L955.495 73.7037M961.06 80.2281H1004.9M972.957 94.1617H1018.78M1011.69 87.0406L1004.9 80.2281M1011.69 87.0406L1018.78 94.1617M1011.69 87.0406H1056.5M873.376 80.2281L869.661 73.7037M912.575 73.7037H955.495M912.575 73.7037H869.661M912.575 73.7037L911.444 72.1157L908.125 67.4498M955.495 73.7037L953.465 71.3277L952.794 70.5435L950.152 67.4498M955.495 73.7037H998.409M1004.9 80.2281L998.409 73.7037M1004.9 80.2281H1048.75M903.86 61.4502H945.03M903.86 61.4502L899.759 55.6894M903.86 61.4502H862.69M903.86 61.4502L908.125 67.4498M945.03 61.4502L941.933 57.8228L940.115 55.6894M945.03 61.4502L950.152 67.4498M945.03 61.4502H986.206M899.759 55.6894H940.115M899.759 55.6894H859.408M899.759 55.6894L896.308 50.8327L895.822 50.1531M862.69 61.4502L860.216 57.1078L859.408 55.6894M862.69 61.4502L863.953 63.6708L866.104 67.4498M908.125 67.4498H950.152M908.125 67.4498H866.104M940.115 55.6894L935.385 50.1531M940.115 55.6894H980.467M950.152 67.4498H992.178M986.206 61.4502L980.467 55.6894M986.206 61.4502L992.178 67.4498M986.206 61.4502H1027.38M859.408 55.6894L856.258 50.1531M895.822 50.1531H935.385M895.822 50.1531H856.258M895.822 50.1531L892.037 44.8288M935.385 50.1531L930.84 44.8288M935.385 50.1531H974.954M980.467 55.6894L976.994 52.2036L976.313 51.5166L974.954 50.1531M980.467 55.6894H1020.82M888.391 39.7054H926.469M888.391 39.7054L887.503 38.454L884.882 34.7706M888.391 39.7054H850.312M888.391 39.7054L889.289 40.9679L891.113 43.5299L892.037 44.8288M926.469 39.7054L922.257 34.7706M926.469 39.7054L928.092 41.6042L929.181 42.8852L930.84 44.8288M926.469 39.7054H964.548M884.882 34.7706H922.257M884.882 34.7706H847.5M884.882 34.7706L882.329 31.1865L881.494 30.0144M850.312 39.7054L847.849 35.3767L847.5 34.7706M850.312 39.7054L850.671 40.3353L851.031 40.9679L851.39 41.6042L853.229 44.8294M892.037 44.8288H930.84M892.037 44.8288L853.229 44.8294M922.257 34.7706L920.714 32.9664L919.699 31.7773L918.193 30.0144M922.257 34.7706H959.633M930.84 44.8288H969.648M964.548 39.7054L959.633 34.7706M964.548 39.7054L967.714 42.8852L968.359 43.5299L969.648 44.8288M964.548 39.7054H1002.63M847.5 34.7706L844.794 30.0144M881.494 30.0144H918.193M881.494 30.0144H844.794M881.494 30.0144L878.233 25.4273M918.193 30.0144L916.222 27.7002L915.73 27.1274L914.277 25.4273M918.193 30.0144H954.898M959.633 34.7706L954.898 30.0144M959.633 34.7706H997.009M875.083 21.0003H910.498M875.083 21.0003L873.17 18.311L872.044 16.7256M875.083 21.0003L839.668 20.9998M875.083 21.0003L878.233 25.4273M910.498 21.0003L907.75 17.7804L907.301 17.2514L906.851 16.725M910.498 21.0003L912.374 23.1935L914.277 25.4273M910.498 21.0003H945.918M872.044 16.7256L906.851 16.725M872.044 16.7256L870.559 14.6429L869.83 13.6145L869.465 13.1035L869.106 12.5951M872.044 16.7256L837.232 16.725M839.668 20.9998L837.834 17.7804L837.232 16.725M839.668 20.9998L842.184 25.4273M878.233 25.4273H914.277M878.233 25.4273H842.184M906.851 16.725H941.659M906.851 16.725L903.326 12.5951M914.277 25.4273H950.326M945.918 21.0003L942.71 17.7804L941.659 16.725M945.918 21.0003L949.766 24.865L950.326 25.4273M945.918 21.0003H981.333M869.106 12.5951H903.326M869.106 12.5951L866.965 9.58704L866.262 8.60198M869.106 12.5951H834.885M837.232 16.725L836.048 14.6429L835.17 13.1035L834.885 12.5951M941.659 16.725H976.466M941.659 16.725L937.547 12.5951M903.326 12.5951H937.547M1393.46 315.18H1316.18M1393.46 315.18L1367.92 295.236M1393.46 315.18H1416.61M1393.46 315.18L1416.61 333.261M1316.18 315.18L1293.48 295.236M1316.18 315.18L1340.68 336.706M1367.92 295.236L1344.19 276.704M1367.92 295.236H1293.48M1367.92 295.236H1416.61M1416.61 315.18V295.236M1416.61 315.18V333.261M1416.61 333.261V336.706M1322.08 259.441H1391.43M1322.08 259.441L1301.44 243.32M1322.08 259.441H1252.74M1322.08 259.441L1344.19 276.704M1391.43 259.441L1368.49 243.32M1391.43 259.441L1415.99 276.704M1391.43 259.441H1416.61M1301.44 243.32H1368.49M1301.44 243.32H1234.39M1301.44 243.32L1282.12 228.231M1252.74 259.441L1234.39 243.32M1252.74 259.441L1272.39 276.704M1344.19 276.704H1415.99M1344.19 276.704H1272.39M1368.49 243.32L1347.02 228.231M1368.49 243.32H1416.61M1415.99 276.704H1416.61M1415.99 276.704L1416.61 277.142M1416.61 259.441V243.32M1416.61 259.441V276.704M1234.39 243.32L1217.22 228.231M1282.12 228.231H1347.02M1282.12 228.231H1217.22M1282.12 228.231L1263.99 214.078M1347.02 228.231L1326.88 214.078M1347.02 228.231H1411.92M1416.61 243.32V231.228M1246.96 200.777H1307.96M1246.96 200.777L1230.92 188.253M1246.96 200.777H1185.96M1246.96 200.777L1263.99 214.078M1307.96 200.777L1290.14 188.253M1307.96 200.777L1326.88 214.078M1307.96 200.777H1368.95M1230.92 188.253H1290.14M1230.92 188.253H1171.71M1230.92 188.253L1215.8 176.44M1185.96 200.777L1171.71 188.253M1185.96 200.777L1201.11 214.078M1263.99 214.078H1326.88M1263.99 214.078H1201.11M1290.14 188.253L1273.33 176.44M1290.14 188.253H1349.35M1326.88 214.078H1389.77M1368.95 200.777L1349.35 188.253M1368.95 200.777L1389.77 214.078M1368.95 200.777H1416.61M1171.71 188.253L1158.27 176.44M1215.8 176.44H1273.33M1215.8 176.44H1158.27M1215.8 176.44L1201.51 165.28M1273.33 176.44L1257.45 165.28M1273.33 176.44H1330.86M1349.35 188.253L1330.86 176.44M1349.35 188.253H1408.57M1187.98 154.718H1242.42M1187.98 154.718L1175.17 144.709M1187.98 154.718H1133.54M1187.98 154.718L1201.51 165.28M1242.42 154.718L1228.18 144.709M1242.42 154.718L1257.45 165.28M1242.42 154.718H1296.87M1175.17 144.709H1228.18M1175.17 144.709H1122.15M1175.17 144.709L1163 135.211M1133.54 154.718L1122.15 144.709M1133.54 154.718L1145.56 165.28M1201.51 165.28H1257.45M1201.51 165.28H1145.56M1228.18 144.709L1214.67 135.211M1228.18 144.709H1281.2M1257.45 165.28H1313.4M1296.87 154.718L1281.2 144.709M1296.87 154.718L1313.4 165.28M1296.87 154.718H1351.31M1122.15 144.709L1111.33 135.211M1163 135.211H1214.67M1163 135.211H1111.33M1163 135.211L1151.44 126.185M1214.67 135.211L1201.83 126.185M1214.67 135.211H1266.33M1281.2 144.709L1266.33 135.211M1281.2 144.709H1334.22M1140.44 117.596H1189.61M1140.44 117.596L1129.97 109.415M1140.44 117.596H1091.28M1140.44 117.596L1151.44 126.185M1189.61 117.596L1177.96 109.415M1189.61 117.596L1201.83 126.185M1189.61 117.596H1238.77M1129.97 109.415H1177.96M1129.97 109.415H1081.97M1129.97 109.415L1119.98 101.612M1091.28 117.596L1081.97 109.415M1091.28 117.596L1101.06 126.185M1151.44 126.185H1201.83M1151.44 126.185H1101.06M1177.96 109.415L1166.86 101.612M1177.96 109.415H1225.96M1201.83 126.185H1252.21M1238.77 117.596L1225.96 109.415M1238.77 117.596L1252.21 126.185M1238.77 117.596H1287.93M1081.97 109.415L1073.09 101.612M1119.98 101.612H1166.86M1119.98 101.612H1073.09M1119.98 101.612L1110.44 94.1617M1166.86 101.612L1156.26 94.1617M1166.86 101.612H1213.75M1225.96 109.415L1213.75 101.612M1225.96 109.415H1273.96M1101.32 87.0406H1146.13M1101.32 87.0406L1092.59 80.2281M1101.32 87.0406H1056.5M1101.32 87.0406L1110.44 94.1617M1146.13 87.0406L1136.44 80.2281M1146.13 87.0406L1156.26 94.1617M1146.13 87.0406H1190.94M1092.59 80.2281H1136.44M1092.59 80.2281H1048.75M1092.59 80.2281L1084.24 73.7037M1056.5 87.0406L1048.75 80.2281M1056.5 87.0406L1064.61 94.1617M1110.44 94.1617H1156.26M1110.44 94.1617H1064.61M1136.44 80.2281L1127.15 73.7037M1136.44 80.2281H1180.28M1156.26 94.1617H1202.09M1190.94 87.0406L1180.28 80.2281M1190.94 87.0406L1202.09 94.1617M1190.94 87.0406H1235.76M1048.75 80.2281L1041.32 73.7037M1084.24 73.7037H1127.15M1084.24 73.7037H1041.32M1084.24 73.7037L1076.23 67.4498M1127.15 73.7037L1118.26 67.4498M1127.15 73.7037H1170.07M1180.28 80.2281L1170.07 73.7037M1180.28 80.2281H1224.12M1068.55 61.4502H1109.72M1068.55 61.4502L1061.17 55.6894M1068.55 61.4502H1027.38M1068.55 61.4502L1076.23 67.4498M1109.72 61.4502L1101.53 55.6894M1109.72 61.4502L1118.26 67.4498M1109.72 61.4502H1150.89M1061.17 55.6894H1101.53M1061.17 55.6894H1020.82M1061.17 55.6894L1054.08 50.1531M1027.38 61.4502L1020.82 55.6894M1027.38 61.4502L1034.2 67.4498M1076.23 67.4498H1118.26M1076.23 67.4498H1034.2M1101.53 55.6894L1093.65 50.1531M1101.53 55.6894H1141.88M1118.26 67.4498H1160.28M1150.89 61.4502L1141.88 55.6894M1150.89 61.4502L1160.28 67.4498M1150.89 61.4502H1192.06M1020.82 55.6894L1014.52 50.1531M1054.08 50.1531H1093.65M1054.08 50.1531H1014.52M1054.08 50.1531L1047.26 44.8288M1093.65 50.1531L1087 45.4841L1086.07 44.8288M1093.65 50.1531H1133.21M1141.88 55.6894L1133.21 50.1531M1141.88 55.6894H1182.23M1040.71 39.7054H1078.78M1040.71 39.7054L1034.38 34.7706M1040.71 39.7054H1002.63M1040.71 39.7054L1042.32 40.9679L1043.14 41.6042L1047.26 44.8288M1078.78 39.7054L1071.76 34.7706M1078.78 39.7054L1086.07 44.8288M1078.78 39.7054H1116.86M1034.38 34.7706H1071.76M1034.38 34.7706H997.009M1034.38 34.7706L1028.3 30.0144M1002.63 39.7054L997.009 34.7706M1002.63 39.7054L1008.46 44.8294M1047.26 44.8288H1086.07M1047.26 44.8288L1008.46 44.8294M1071.76 34.7706L1065 30.0144M1071.76 34.7706H1109.14M1086.07 44.8288H1124.88M1116.86 39.7054L1109.14 34.7706M1116.86 39.7054L1124.88 44.8288M1116.86 39.7054H1154.94M997.009 34.7706L991.597 30.0144M1028.3 30.0144H1065M1028.3 30.0144H991.597M1028.3 30.0144L1022.42 25.4273M1065 30.0144L1058.47 25.4273M1065 30.0144H1101.69M1109.14 34.7706L1101.69 30.0144M1109.14 34.7706H1146.51M1016.75 21.0003H1052.17M1016.75 21.0003L1011.28 16.725M1016.75 21.0003H981.333M1016.75 21.0003L1022.42 25.4273M1052.17 21.0003L1047.59 17.7804L1046.84 17.2514L1046.09 16.725M1052.17 21.0003L1058.47 25.4273M1052.17 21.0003H1087.58M1011.28 16.725H1046.09M1011.28 16.725L1006.64 13.1035L1005.99 12.5951M1011.28 16.725H976.466M981.333 21.0003L976.466 16.725M981.333 21.0003L986.37 25.4273M1022.42 25.4273H1058.47M1022.42 25.4273H986.37M1046.09 16.725H1080.89M1046.09 16.725L1040.21 12.5951M1058.47 25.4273H1094.51M1087.58 21.0003L1080.89 16.725M1087.58 21.0003L1094.51 25.4273M1087.58 21.0003H1123M1005.99 12.5951H1040.21M1005.99 12.5951H971.767M976.466 16.725L972.925 13.6145L971.767 12.5951M1080.89 16.725H1115.71M1080.89 16.725L1074.43 12.5951M1040.21 12.5951H1074.43M1405.75 154.718L1387.24 144.709M1405.75 154.718H1351.31M1405.75 154.718L1416.61 160.589M1405.75 154.718H1416.61M1387.24 144.709H1334.22M1387.24 144.709L1369.67 135.211M1387.24 144.709H1416.61M1351.31 154.718L1334.22 144.709M1351.31 154.718L1369.34 165.28M1416.61 160.589V154.718M1416.61 160.589V165.28M1416.61 154.718V144.709M1334.22 144.709L1318 135.211M1369.67 135.211L1352.98 126.185M1369.67 135.211H1318M1369.67 135.211H1416.61M1416.61 144.709V135.211M1337.09 117.596H1386.25M1337.09 117.596L1321.95 109.415M1337.09 117.596H1287.93M1337.09 117.596L1352.98 126.185M1386.25 117.596L1369.95 109.415M1386.25 117.596L1403.36 126.185M1386.25 117.596H1416.61M1321.95 109.415H1369.95M1321.95 109.415H1273.96M1321.95 109.415L1307.52 101.612M1287.93 117.596L1273.96 109.415M1287.93 117.596L1302.59 126.185M1352.98 126.185H1403.36M1352.98 126.185H1302.59M1369.95 109.415L1354.41 101.612M1369.95 109.415H1416.61M1403.36 126.185L1416.61 132.839M1403.36 126.185H1416.61M1416.61 117.596H1416.97M1416.61 117.596V109.415M1416.61 117.596V126.185M1273.96 109.415L1260.64 101.612M1307.52 101.612H1354.41M1307.52 101.612H1260.64M1307.52 101.612L1293.74 94.1617M1354.41 101.612L1339.57 94.1617M1354.41 101.612H1401.29M1416.61 109.415V108.788M1280.57 87.0406H1325.38M1280.57 87.0406L1267.97 80.2281M1280.57 87.0406H1235.76M1280.57 87.0406L1293.74 94.1617M1325.38 87.0406L1311.81 80.2281M1325.38 87.0406L1339.57 94.1617M1325.38 87.0406H1370.2M1267.97 80.2281H1311.81M1267.97 80.2281H1224.12M1267.97 80.2281L1255.9 73.7037M1235.76 87.0406L1224.12 80.2281M1235.76 87.0406L1247.92 94.1617M1293.74 94.1617H1339.57M1293.74 94.1617H1247.92M1311.81 80.2281L1298.82 73.7037M1311.81 80.2281H1355.66M1339.57 94.1617H1385.4M1370.2 87.0406L1355.66 80.2281M1370.2 87.0406L1385.4 94.1617M1370.2 87.0406H1415.01M1224.12 80.2281L1212.99 73.7037M1255.9 73.7037H1298.82M1255.9 73.7037H1212.99M1255.9 73.7037L1244.33 67.4498M1298.82 73.7037L1286.36 67.4498M1298.82 73.7037H1341.73M1355.66 80.2281L1341.73 73.7037M1355.66 80.2281H1399.5M1233.23 61.4502H1274.41M1233.23 61.4502L1222.58 55.6894M1233.23 61.4502H1192.06M1233.23 61.4502L1244.33 67.4498M1274.41 61.4502L1262.94 55.6894M1274.41 61.4502L1286.36 67.4498M1274.41 61.4502H1315.58M1222.58 55.6894H1262.94M1222.58 55.6894H1182.23M1222.58 55.6894L1212.34 50.1531M1192.06 61.4502L1182.23 55.6894M1192.06 61.4502L1202.31 67.4498M1244.33 67.4498H1286.36M1244.33 67.4498H1202.31M1262.94 55.6894L1251.91 50.1531M1262.94 55.6894H1303.29M1286.36 67.4498H1328.39M1315.58 61.4502L1303.29 55.6894M1315.58 61.4502L1328.39 67.4498M1315.58 61.4502H1356.76M1182.23 55.6894L1172.78 50.1531M1212.34 50.1531H1251.91M1212.34 50.1531H1172.78M1212.34 50.1531L1202.5 44.8288M1251.91 50.1531L1241.3 44.8288M1251.91 50.1531H1291.47M1303.29 55.6894L1291.47 50.1531M1303.29 55.6894H1343.64M1193.01 39.7054H1231.09M1193.01 39.7054L1183.89 34.7706M1193.01 39.7054H1154.94M1193.01 39.7054L1202.5 44.8288M1231.09 39.7054L1221.26 34.7706M1231.09 39.7054L1241.3 44.8288M1231.09 39.7054H1269.17M1183.89 34.7706H1221.26M1183.89 34.7706H1146.51M1183.89 34.7706L1175.09 30.0144M1154.94 39.7054L1147.55 35.3767L1146.51 34.7706M1154.94 39.7054L1163.69 44.8294M1202.5 44.8288H1241.3M1202.5 44.8288L1163.69 44.8294M1221.26 34.7706L1211.79 30.0144M1221.26 34.7706H1258.64M1241.3 44.8288H1280.11M1269.17 39.7054L1258.64 34.7706M1269.17 39.7054L1280.11 44.8288M1269.17 39.7054H1307.25M1146.51 34.7706L1138.39 30.0144M1175.09 30.0144H1211.79M1175.09 30.0144H1138.39M1175.09 30.0144L1166.61 25.4273M1211.79 30.0144L1202.65 25.4273M1211.79 30.0144H1248.49M1258.64 34.7706L1248.49 30.0144M1258.64 34.7706H1296.01M1158.42 21.0003H1193.83M1158.42 21.0003L1150.51 16.725M1158.42 21.0003H1123M1158.42 21.0003L1166.61 25.4273M1193.83 21.0003L1185.32 16.725M1193.83 21.0003L1202.65 25.4273M1193.83 21.0003H1229.25M1150.51 16.725H1185.32M1150.51 16.725L1142.87 12.5951M1150.51 16.725H1115.71M1123 21.0003L1115.71 16.725M1123 21.0003L1130.56 25.4273M1166.61 25.4273H1202.65M1166.61 25.4273H1130.56M1185.32 16.725H1220.13M1185.32 16.725L1177.09 12.5951M1202.65 25.4273H1238.7M1229.25 21.0003L1220.13 16.725M1229.25 21.0003L1238.7 25.4273M1229.25 21.0003H1264.67M1142.87 12.5951H1177.09M1142.87 12.5951H1108.65M1115.71 16.725L1108.65 12.5951M1220.13 16.725H1254.94M1220.13 16.725L1211.31 12.5951M1177.09 12.5951H1211.31M1397.93 61.4502L1383.99 55.6894M1397.93 61.4502H1356.76M1397.93 61.4502L1412.44 67.4498M1397.93 61.4502H1416.61M1383.99 55.6894H1343.64M1383.99 55.6894L1370.6 50.1531M1383.99 55.6894H1416.61M1356.76 61.4502L1343.64 55.6894M1356.76 61.4502L1370.41 67.4498M1412.44 67.4498H1370.41M1412.44 67.4498H1416.61M1412.44 67.4498L1416.61 69.1747M1416.61 61.4502V55.6894M1416.61 61.4502V67.4498M1343.64 55.6894L1331.03 50.1531M1370.6 50.1531H1410.17M1370.6 50.1531H1331.03M1370.6 50.1531L1357.72 44.8288M1416.61 55.6894V52.6697M1345.33 39.7054H1383.41M1345.33 39.7054L1333.39 34.7706M1345.33 39.7054H1307.25M1345.33 39.7054L1357.72 44.8288M1383.41 39.7054L1370.77 34.7706M1383.41 39.7054L1396.53 44.8288M1383.41 39.7054H1416.61M1333.39 34.7706H1370.77M1333.39 34.7706H1296.01M1333.39 34.7706L1321.89 30.0144M1307.25 39.7054L1296.01 34.7706M1307.25 39.7054L1318.92 44.8288M1357.72 44.8288H1396.53M1357.72 44.8288H1318.92M1370.77 34.7706L1358.59 30.0144M1370.77 34.7706H1408.15M1396.53 44.8288L1410.17 50.1531M1396.53 44.8288H1416.61M1416.61 39.7054H1416.73M1416.61 39.7054V37.9012M1416.61 39.7054V44.8288M1296.01 34.7706L1285.19 30.0144M1321.89 30.0144H1358.59M1321.89 30.0144H1285.19M1321.89 30.0144L1310.79 25.4273M1358.59 30.0144L1346.84 25.4273M1358.59 30.0144H1395.29M1408.15 34.7706L1395.29 30.0144M1408.15 34.7706L1416.61 37.9012M1408.15 34.7706H1416.61M1300.08 21.0003H1335.5M1300.08 21.0003L1289.75 16.725M1300.08 21.0003H1264.67M1300.08 21.0003L1310.79 25.4273M1335.5 21.0003L1324.55 16.725M1335.5 21.0003L1346.84 25.4273M1335.5 21.0003H1370.92M1289.75 16.725H1324.55M1289.75 16.725L1279.76 12.5951M1289.75 16.725H1254.94M1264.67 21.0003L1254.94 16.725M1264.67 21.0003L1274.75 25.4273M1310.79 25.4273H1346.84M1310.79 25.4273H1274.75M1324.55 16.725H1359.37M1324.55 16.725L1313.98 12.5951M1346.84 25.4273H1382.89M1370.92 21.0003L1359.37 16.725M1370.92 21.0003L1382.89 25.4273M1370.92 21.0003H1406.33M1279.76 12.5951H1313.98M1279.76 12.5951H1245.54M1254.94 16.725L1245.54 12.5951M1359.37 16.725H1394.17M1359.37 16.725L1348.2 12.5951M1313.98 12.5951H1348.2M1382.89 25.4273L1395.29 30.0144M1382.89 25.4273H1416.61M1406.33 21.0003L1394.17 16.725M1406.33 21.0003L1416.61 24.6103M1406.33 21.0003H1416.61M1394.17 16.725L1382.42 12.5951M1394.17 16.725H1416.61M1348.2 12.5951H1382.42M1348.2 12.5951L1337.4 8.60198H1371.06L1382.42 12.5951M1395.29 30.0144H1416.61M1416.61 25.4273V24.6103M1416.61 25.4273V30.0144M1416.61 24.6103V21.0003M1416.61 21.0003V16.725M1382.42 12.5951H1416.61M1416.61 16.725V12.5951M1416.61 12.5951H1416.64L1416.61 12.5856M1416.61 12.5951V12.5856M1416.61 37.9012V34.7706M1416.61 34.7706V30.0144M1285.19 30.0144L1274.75 25.4273M1285.19 30.0144H1248.49M1274.75 25.4273H1238.7M1410.17 50.1531L1416.61 52.6697M1410.17 50.1531H1416.61M1416.61 44.8288V50.1531M1416.61 52.6697V50.1531M1331.03 50.1531L1318.92 44.8288M1331.03 50.1531H1291.47M1318.92 44.8288H1280.11M1238.7 25.4273L1248.49 30.0144M1211.31 12.5951H1245.54M1211.31 12.5951L1202.79 8.60198M1245.54 12.5951L1236.44 8.60198H1202.79M1138.39 30.0144L1130.56 25.4273M1138.39 30.0144H1101.69M1130.56 25.4273H1094.51M1280.11 44.8288L1291.47 50.1531M1172.78 50.1531L1163.69 44.8294M1172.78 50.1531H1133.21M1163.69 44.8294L1124.88 44.8288M1328.39 67.4498L1341.73 73.7037M1328.39 67.4498H1370.41M1370.41 67.4498L1384.65 73.7037M1341.73 73.7037H1384.65M1384.65 73.7037L1399.5 80.2281M1384.65 73.7037H1416.61M1416.61 67.4498V69.1747M1416.61 69.1747V73.7037M1399.5 80.2281L1415.01 87.0406M1399.5 80.2281H1416.61M1212.99 73.7037L1202.31 67.4498M1212.99 73.7037H1170.07M1416.61 73.7037H1416.84M1416.61 73.7037V80.2281M1202.31 67.4498H1160.28M1385.4 94.1617L1401.29 101.612M1385.4 94.1617H1416.61M1415.01 87.0406L1416.61 87.7435M1415.01 87.0406H1416.61M1416.61 80.2281V87.0406M1416.61 87.7435L1417 87.9136M1416.61 87.7435V87.0406M1416.61 87.7435V94.1617M1401.29 101.612H1416.61M1401.29 101.612L1416.61 108.788M1416.61 94.1617V101.612M1416.61 101.612V108.788M1260.64 101.612L1247.92 94.1617M1260.64 101.612H1213.75M1247.92 94.1617H1202.09M1416.61 132.839L1416.76 132.911M1416.61 132.839V126.185M1416.61 132.839V135.211M1302.59 126.185H1252.21M1302.59 126.185L1318 135.211M1094.51 25.4273L1101.69 30.0144M1074.43 12.5951H1108.65M1074.43 12.5951L1068.18 8.60198M1068.18 8.60198H1034.53H1000.87H967.222M991.597 30.0144L986.37 25.4273M991.597 30.0144H954.898M986.37 25.4273H950.326M1124.88 44.8288L1133.21 50.1531M1014.52 50.1531L1008.46 44.8294M1014.52 50.1531H974.954M1008.46 44.8294L969.648 44.8288M1160.28 67.4498L1170.07 73.7037M1041.32 73.7037L1034.2 67.4498M1041.32 73.7037H998.409M1034.2 67.4498H992.178M1202.09 94.1617L1213.75 101.612M1073.09 101.612L1064.61 94.1617M1073.09 101.612H1026.2M1064.61 94.1617H1018.78M1252.21 126.185L1266.33 135.211M1266.33 135.211H1318M1111.33 135.211L1101.06 126.185M1111.33 135.211H1059.67M1101.06 126.185H1050.68M1313.4 165.28L1330.86 176.44M1313.4 165.28H1369.34M1369.34 165.28L1388.4 176.44M1369.34 165.28H1416.61M1330.86 176.44H1388.4M1388.4 176.44L1408.57 188.253M1388.4 176.44H1416.61M1416.61 165.28V176.44M1408.57 188.253H1416.61M1408.57 188.253L1416.61 192.965M1158.27 176.44L1145.56 165.28M1158.27 176.44H1100.73M1416.61 176.44V188.253M1145.56 165.28H1089.61M1389.77 214.078L1411.92 228.231M1389.77 214.078H1416.61M1416.61 200.777V192.965M1416.61 200.777V214.078M1416.61 188.253V192.965M1411.92 228.231L1416.61 231.228M1411.92 228.231H1416.61M1416.61 214.078V228.231M1416.61 231.228V228.231M1217.22 228.231L1201.11 214.078M1217.22 228.231H1152.31M1201.11 214.078H1138.21M1416.61 276.704V277.142M1416.61 277.142V295.236M1272.39 276.704H1200.59M1272.39 276.704L1293.48 295.236M950.326 25.4273L951.452 26.5582L954.898 30.0144M937.547 12.5951H971.767M937.547 12.5951L933.567 8.60198M971.767 12.5951L970.045 11.0821L967.222 8.60145M933.567 8.60198H899.917H866.262M933.567 8.60198H967.222M844.794 30.0144L844.134 28.8517L842.184 25.4273M844.794 30.0144H808.095M842.184 25.4273H806.14M969.648 44.8288L974.954 50.1531M856.258 50.1531L855.872 49.4762L855.491 48.8029L853.229 44.8294M856.258 50.1531H816.694M853.229 44.8294L814.421 44.8288M992.178 67.4498L998.409 73.7037M869.661 73.7037L866.104 67.4498M869.661 73.7037H826.746M866.104 67.4498H824.077M1018.78 94.1617L1026.2 101.612M885.542 101.612L881.304 94.1617M885.542 101.612H838.659M881.304 94.1617H835.477M1050.68 126.185L1059.67 135.211M904.669 135.211L899.532 126.185M904.669 135.211H853.002M899.532 126.185H849.149M1089.61 165.28L1100.73 176.44M928.129 176.44L921.782 165.28M928.129 176.44H870.596M921.782 165.28H865.834M1138.21 214.078L1152.31 228.231M957.609 228.231L949.554 214.078M957.609 228.231H892.703M949.554 214.078H886.663M1200.59 276.704L1219.05 295.236M1219.05 295.236H1293.48M995.74 295.236L985.197 276.704M995.74 295.236H921.306M985.197 276.704H913.394M1283.56 360.008L1308.76 385.316M1283.56 360.008H1367.21M1340.68 336.706L1367.21 360.008M1340.68 336.706H1416.61M1367.21 360.008L1396.02 385.316M1367.21 360.008H1416.61M1416.61 336.706V360.008M1308.76 385.316H1396.02M1396.02 385.316H1416.61M1396.02 385.316L1416.61 403.409M1416.61 360.008V385.316M1416.61 412.901V403.409M1416.61 412.901V443.084M1047.01 385.316L1032.6 360.008M1047.01 385.316H959.755M1416.61 385.316V403.409M1032.6 360.008H948.952M1399.33 476.252L1416.61 493.599M1399.33 476.252H1416.61M1416.61 443.084V476.252M1330.4 512.869H1225M1330.4 512.869L1416.61 512.869M1416.61 493.599V476.252M1416.61 493.599V512.869M1225 512.869H1119.6M1416.61 512.869V513H-20.6131V512.869M1119.6 512.869L1098.76 476.252M1119.6 512.869H1014.2M1098.76 476.252H998.573M806.14 25.4273L806.378 25.9917L806.621 26.5582L806.864 27.1274L807.107 27.7002L808.095 30.0144M800.659 12.5951L800.448 12.0877L800.014 11.0821L799.592 10.0833L799.38 9.58704L798.957 8.60198M800.659 12.5951H834.885M765.302 8.60198H798.957M834.885 12.5951L832.893 9.09346L832.607 8.60198M798.957 8.60198H832.607M866.262 8.60198H832.607M697.997 30.0144V25.4273M697.997 30.0144H661.298M697.997 25.4273H661.953M814.421 44.8288L816.694 50.1531M697.997 50.1531V44.8294M697.997 50.1531H658.434M697.997 44.8294L659.189 44.8288M824.077 67.4498L826.746 73.7037M697.997 73.7037V67.4498M697.997 73.7037H655.083M697.997 67.4498H655.971M835.477 94.1617L838.659 101.612M697.997 101.612V94.1617M697.997 101.612H651.114M697.997 94.1617H652.171M849.149 126.185L853.002 135.211M697.997 135.211V126.185M697.997 135.211H646.331M697.997 126.185H647.615M865.834 165.28L870.596 176.44M697.997 176.44V165.28M697.997 176.44H640.464M697.997 165.28H642.055M886.663 214.078L892.703 228.231M697.997 228.231V214.078M697.997 228.231H633.097M697.997 214.078H635.111M913.394 276.704L921.306 295.236M697.997 295.236V276.704M697.997 295.236H623.563M697.997 276.704H626.2M948.952 360.008L959.755 385.316M697.997 385.316V360.008M697.997 385.316H610.747M697.997 360.008H614.346M998.573 476.252L1014.2 512.869M908.802 512.869H1014.2M908.802 512.869H803.402M803.402 512.869H697.997M697.997 512.869V476.252M697.997 512.869H592.598M697.997 476.252H597.809M661.953 25.4273L661.869 25.9917L661.79 26.5582L661.71 27.1274L661.298 30.0144M663.777 12.5951H697.997M697.997 12.5951V8.60198M551.2 30.0144L551.861 28.8517L553.811 25.4273M551.2 30.0144H514.501M553.811 25.4273H517.767M659.189 44.8288L658.434 50.1531M539.737 50.1531L542.771 44.8283M539.737 50.1531L500.175 50.1526M655.971 67.4498L655.754 68.9887L655.31 72.1157L655.083 73.7037M526.334 73.7037L529.896 67.4498M526.334 73.7037L483.421 73.7032M526.334 73.7037L522.624 80.2276M529.896 67.4498L487.87 67.4493M652.171 94.1617L651.114 101.612M510.453 101.612L514.691 94.1611M510.453 101.612L463.567 101.611M647.615 126.185L646.331 135.211M642.055 165.28L640.464 176.44M467.866 176.44L474.218 165.28M467.866 176.44H410.333M474.218 165.28H418.273M635.111 214.078L633.097 228.231M438.391 228.231L446.446 214.078M438.391 228.231H373.489M446.446 214.078H383.557M626.2 276.704L623.563 295.236M400.257 295.236L410.803 276.704M400.257 295.236H325.821M410.803 276.704H339.005M614.346 360.008L610.747 385.316M348.99 385.316L363.394 360.008M348.99 385.316H261.738M363.394 360.008H279.742M597.809 476.252L592.598 512.869M487.198 512.869H592.598M487.198 512.869H381.797M381.797 512.869H276.396M276.396 512.869L297.236 476.252M276.396 512.869H170.996M297.236 476.252H197.046M517.767 25.4273L514.501 30.0144M526.894 12.5951H561.115M526.894 12.5951L529.035 9.58704L529.732 8.60198M404.403 30.0144H367.704M409.624 25.4273H373.578M409.624 25.4273L414.664 21.0003M409.624 25.4273L404.404 30.0144M503.963 44.8283L500.175 50.1526M503.963 44.8283H542.771M381.48 50.1526L386.796 45.4841L387.54 44.8288M381.48 50.1526L341.915 50.1531M387.54 44.8288L348.733 44.8283M487.87 67.4493L483.421 73.7032M483.421 73.7032L478.779 80.2276M478.779 80.2276H522.624M354.674 73.7032L361.792 67.4493M354.674 73.7032L311.759 73.7037M361.792 67.4493L319.766 67.4498M468.867 94.1611H423.041M468.867 94.1611L463.567 101.611M468.867 94.1611H514.691M423.041 94.1611H377.214M377.214 94.1611H331.388M452.195 117.596L446.085 126.185M452.195 117.596H501.356M322.907 101.611L331.388 94.1617M322.907 101.611L276.021 101.612M446.085 126.185H395.702M446.085 126.185L439.664 135.211M446.085 126.185H496.468M501.356 117.596L496.468 126.185M496.468 126.185L491.331 135.211M395.702 126.185L387.996 135.211M395.702 126.185H345.32M387.996 135.211H439.664M387.996 135.211H336.33M345.32 126.185L336.33 135.211M345.32 126.185H294.937M439.664 135.211L432.907 144.709M439.664 135.211H491.331M491.331 135.211L485.925 144.709M336.33 135.211H284.663M432.907 144.709L425.786 154.718M432.907 144.709H485.925M425.786 154.718L418.273 165.279M425.786 154.718H480.229M485.925 144.709L480.229 154.718M480.229 154.718L474.218 165.279M418.273 165.28L410.333 176.44M237.734 176.44L250.438 165.28M237.734 176.44H180.201M250.438 165.28H194.492M383.557 214.078L373.489 228.231M178.784 228.231L194.893 214.078M178.784 228.231H113.882M194.893 214.078H132.004M339.005 276.704L325.821 295.236M102.515 295.236L123.608 276.704M102.515 295.236H28.079M123.608 276.704H51.8098M279.742 360.008L261.738 385.316M-0.0189374 385.316L28.7882 360.008M-0.0189374 385.316H-20.6131M-0.0189374 385.316L-20.6131 403.409M28.7882 360.008H-20.6131M197.046 476.252L170.996 512.869M65.5948 512.869H170.996M65.5948 512.869L-20.6131 512.869M-20.6131 512.869V493.599M-20.6131 493.599V476.252M337.532 25.4273L331.005 30.0144M337.532 25.4273H373.578M373.578 25.4273L379.247 21.0003M373.578 25.4273L367.704 30.0144M379.247 21.0003L384.721 16.725M379.247 21.0003H414.664M384.721 16.725L390.01 12.5951M390.01 12.5951L390.659 12.0877L395.124 8.60145M257.606 30.0138L265.438 25.4268M257.606 30.0138L220.907 30.0144M265.438 25.4268L229.391 25.4273M348.733 44.8283L341.915 50.1531M223.221 50.1531L232.311 44.8283M223.221 50.1531L183.656 50.1526M271.118 44.8294H232.311M319.766 67.4498L311.759 73.7037M183.012 73.7037L193.689 67.4498M183.012 73.7037L140.096 73.7032M183.012 73.7037L171.873 80.2276M193.689 67.4498L151.664 67.4493M285.561 94.1617L276.021 101.612M285.561 94.1617H331.388M135.361 101.612L148.082 94.1611M135.361 101.612L88.4753 101.611M244.554 126.185L232.996 135.211M244.554 126.185H294.937M294.937 126.185L284.663 135.211M232.996 135.211H284.663M77.9945 135.211L93.4062 126.185M77.9945 135.211H26.3275M93.4062 126.185H43.0229M194.492 165.28L180.201 176.44M7.60155 176.44L26.6567 165.28M7.60155 176.44L-12.5677 188.253M7.60155 176.44H-20.6131M132.004 214.078L113.882 228.231M73.9161 259.441L51.8098 276.704M-20.6126 228.231V231.228M-20.6126 228.231L-20.6131 214.078M6.2285 214.078H-20.6131M51.8098 276.704L28.079 295.236M-20.6131 276.704V277.142M-20.6131 277.142V295.236M28.079 295.236L2.53955 315.18M28.079 295.236H-20.6131M2.53955 315.18H-20.6131M2.53955 315.18L-20.6131 333.261M-20.6131 315.18V333.261M-20.6131 315.18V295.236M-20.6131 333.261L-20.6126 336.706M-20.6126 336.706L-20.6131 360.008M-20.6131 360.008V385.316M-20.6131 385.316V403.409M229.391 25.4273L220.907 30.0144M253.126 12.5951H287.346M287.346 12.5951L288.211 12.0872L294.165 8.60093M110.808 30.0144L121.251 25.4273M110.808 30.0144H74.109M121.251 25.4273H85.2044M193.503 44.8283L183.656 50.1526M193.503 44.8283H232.311M64.9616 50.1526L77.0818 44.8288M64.9616 50.1526L25.3968 50.1531M77.0818 44.8288L38.2743 44.8283M151.664 67.4493L140.096 73.7032M140.096 73.7032L128.028 80.2276M128.028 80.2276H171.873M11.3497 73.7032L-20.6131 73.7037M102.255 94.1611H56.4289M102.255 94.1611L88.4753 101.611M102.255 94.1611H148.082M56.4289 94.1611L41.5891 101.611H88.4753M56.4289 94.1611H10.6029M-20.6131 94.1617V87.7435M43.0229 126.185L26.3275 135.211M-20.6131 126.185V132.839M-20.6131 132.839L-20.759 132.911M-20.6131 132.839V135.211M26.3275 135.211L8.75898 144.709M26.3275 135.211H-20.6131M8.75898 144.709L-9.75397 154.718M8.75898 144.709H-20.6131M-9.75397 154.718H-20.6131M-9.75397 154.718L-20.6131 160.589M-20.6131 144.709V154.718M-20.6131 144.709V135.211M-20.6131 154.718V160.589M-20.6131 160.589L-20.6126 165.28M26.6573 165.28H-20.6126M-20.6126 165.28L-20.6131 176.44M-12.5677 188.253H-20.6131M-12.5677 188.253L-20.6131 192.965M-20.6131 188.253V192.965M-20.6131 188.253V176.44M85.2044 25.4273L74.109 30.0144M116.241 12.5951H150.462M116.241 12.5951L125.901 8.60198M92.2472 8.60198H125.901M50.6683 39.7054L38.2743 44.8283M-20.6131 30.0144V25.4273M-20.6131 25.4273V24.6103M38.2743 44.8283L-0.532643 44.8288H-20.6131M38.2743 44.8283L25.3968 50.1531M-0.533171 44.8283L-14.168 50.1531M-14.168 50.1531H25.3968M-14.168 50.1531L-20.6131 52.6697M-14.168 50.1531H-20.6131M-20.6131 44.8288V50.1531M25.3968 50.1531L12.0066 55.6894M12.0066 55.6894L-1.92684 61.4502M12.0066 55.6894H52.3595M12.0066 55.6894H-20.6126M-1.92684 61.4502L-16.4401 67.4498M-1.92684 61.4502H-20.6131M-20.6126 55.6894L-20.6131 61.4502M-20.6126 55.6894L-20.6131 52.6697M-20.6131 52.6697V50.1531M-16.4401 67.4498L-20.6131 69.1747M-16.4401 67.4498H-20.6131M-20.6131 61.4502V67.4498M-20.6131 69.1747V73.7037M-20.6131 69.1747V67.4498M-20.6131 80.2281V87.0406M-20.6131 80.2281V73.7037M-20.6131 73.7037H-20.8377M-20.6131 87.0406V87.7435M-20.6131 87.7435L-21 87.9136M-20.6131 21.0003V24.6103M-20.6131 21.0003V16.725M13.5789 12.5951L24.9418 8.60198H-8.71071M13.5789 12.5951H-20.6131M-20.6131 16.725V12.5951M-20.6131 12.5951H-20.6422L-20.6131 12.585M-20.6131 12.5951V12.585M731.652 8.60145H697.997M327.817 8.60198H294.165M-8.71071 8.60198L-20.6131 12.585M-8.71124 8.60145H-20.6126M1416.61 12.5856V8.60198" stroke="url(#paint0_linear_124_351)" stroke-width="1.28335" stroke-miterlimit="10" stroke-linecap="round" stroke-linejoin="round"/>
<defs>
<linearGradient id="paint0_linear_124_351" x1="697.997" y1="1" x2="697.997" y2="359.975" gradientUnits="userSpaceOnUse">
<stop stop-color="white" stop-opacity="0"/>
<stop offset="1" stop-color="white"/>
</linearGradient>
</defs>
</svg>
