<svg width="1400" height="830" viewBox="0 0 1400 830" fill="none" xmlns="http://www.w3.org/2000/svg">
<g opacity="0.2" clip-path="url(#clip0_68_54)">
<g clip-path="url(#clip1_68_54)">
<path d="M2126.65 204.644L2104.05 197.077M2126.65 204.644H2059.67M2126.65 204.644L2150.01 212.461H2174.09M2126.65 204.644H2174.09M2104.05 197.077L2112.28 197.08L2120.41 197.096L2128.38 197.142L2136.1 197.233L2143.49 197.381L2150.47 197.602L2156.94 197.91L2162.95 198.303L2168.11 198.845L2172.81 199.475L2174.09 199.695V204.644M2104.05 197.077H2038.14M2059.67 204.644L2038.14 197.077M2059.67 204.644H1992.68M2059.67 204.644L2065.16 206.574L2081.91 212.46H2150.01L2174.09 220.523M2174.09 204.644V212.461M2038.14 197.077H1972.23M1972.23 197.077H1906.32M1972.23 197.077L1992.68 204.644M1906.32 197.077H1840.41M1906.32 197.077L1925.7 204.644M1992.68 204.644H1925.7M1992.68 204.644L2013.81 212.46H1945.72H1877.62H1809.51L1798.33 207.544L1796.11 206.574L1791.73 204.644M1840.41 197.077H1774.5M1840.41 197.077L1858.71 204.644M1925.7 204.644H1858.71M1925.7 204.644L1945.72 212.461L1966.41 220.542M1774.5 197.077H1708.59M1774.5 197.077L1791.73 204.644M1858.71 204.644H1791.73M1858.71 204.644L1877.62 212.461L1897.17 220.542M1708.59 197.077H1642.68M1708.59 197.077L1724.74 204.644M1791.73 204.644H1724.74M1642.68 197.077H1576.77M1642.68 197.077L1657.75 204.644M1724.74 204.644H1657.75M1724.74 204.644L1728.85 206.574L1741.42 212.46M1576.77 197.077H1510.85M1576.77 197.077L1590.76 204.644M1657.75 204.644H1590.76M1657.75 204.644L1673.32 212.461M1510.85 197.077H1444.94M1510.85 197.077L1523.77 204.644M1590.76 204.644H1523.77M1590.76 204.644L1594.34 206.574L1596.13 207.544L1605.22 212.46H1537.12L1545.69 217.48L1549.17 219.516L1550.92 220.542M1444.94 197.077H1379.04M1444.94 197.077L1456.79 204.644M1523.77 204.644H1456.79M1523.77 204.644L1537.12 212.461H1469.03M1379.04 197.077H1313.13M1379.04 197.077L1389.8 204.644M1456.79 204.644H1389.8M1456.79 204.644L1459.81 206.574L1461.33 207.544L1469.03 212.46M1313.13 197.077H1247.22M1313.13 197.077L1315.52 198.947L1319.14 201.776L1322.81 204.644M1389.8 204.644H1322.81M1389.8 204.644L1391.17 205.606L1392.55 206.574L1400.93 212.46L1408.07 217.48L1412.42 220.542M1247.22 197.077H1181.31M1247.22 197.077L1249.35 198.947L1255.83 204.644M1322.81 204.644H1255.83M1322.81 204.644L1325.29 206.574L1326.53 207.544L1332.82 212.46L1341.86 219.516L1343.17 220.542M1181.31 197.077H1115.4M1181.31 197.077L1188.84 204.644M1255.83 204.644H1188.84M1255.83 204.644L1264.73 212.461M1115.4 197.077H1049.49M1115.4 197.077L1117.8 199.887L1120.22 202.728L1121.04 203.684L1121.86 204.644M1188.84 204.644H1121.86M1188.84 204.644L1189.8 205.606L1190.77 206.574L1191.74 207.544L1196.63 212.46M1049.49 197.077H983.579M1049.49 197.077L1051.49 199.887L1052.16 200.829L1052.84 201.776L1054.87 204.644M1121.86 204.644H1054.87M1121.86 204.644L1123.51 206.574L1124.33 207.544L1125.16 208.519L1128.53 212.46L1132.81 217.48L1135.43 220.542M983.579 197.077H917.668M983.579 197.077L987.889 204.644M1054.87 204.644H987.889M1054.87 204.644L1056.25 206.574L1059.03 210.482L1059.72 211.469L1060.43 212.46M917.668 197.077L918.064 198.01L918.47 198.947L920.492 203.684L920.898 204.644M917.668 197.077H851.757M987.889 204.644H920.898M987.889 204.644L988.434 205.606L988.98 206.574L989.536 207.544L992.327 212.46M920.898 204.644H853.907M920.898 204.644L924.235 212.461M851.757 197.077H785.847M851.757 197.077L853.907 204.644M785.847 197.077H719.936M785.847 197.077L786.253 199.887L786.927 204.644M853.907 204.644H786.927M853.907 204.644L854.185 205.606L854.463 206.574L854.741 207.544L856.132 212.46M719.936 197.077H654.025M719.936 197.077V204.644M786.927 204.644H719.936M786.927 204.644L788.039 212.461M654.025 197.077H588.114M654.025 197.077L653.629 199.887L652.956 204.644M719.936 204.644H652.956M719.936 204.644V212.461M588.114 197.077H522.204M588.114 197.077L585.965 204.644M652.956 204.644H585.965M652.956 204.644L651.843 212.461H719.936M522.204 197.077L521.808 198.01L521.412 198.947L519.391 203.684L518.984 204.644M522.204 197.077H456.303M585.965 204.644H518.984M585.965 204.644L585.687 205.606L585.419 206.574L585.141 207.544L584.307 210.482L583.74 212.46M518.984 204.644H451.993M518.984 204.644L515.648 212.461M456.303 197.077H390.393M456.303 197.077L452.539 203.684L451.993 204.644M390.393 197.077H324.479M390.393 197.077L388.393 199.887L387.719 200.829L386.371 202.728L385.687 203.684L385.002 204.644M451.993 204.644H385.002M451.993 204.644L451.448 205.606L450.892 206.574L450.346 207.544L447.544 212.46L444.689 217.48L443.523 219.516L442.946 220.542M324.479 197.077H258.569M324.479 197.077L322.082 199.887L319.654 202.728L318.839 203.684L318.019 204.644M385.002 204.644H318.019M385.002 204.644L383.634 206.574L380.853 210.482L379.441 212.46M258.569 197.077H192.659M258.569 197.077L251.034 204.644M318.019 204.644H251.034M318.019 204.644L316.373 206.574L315.543 207.544L314.711 208.519L311.347 212.46L307.063 217.48L304.449 220.542M192.659 197.077H126.748M192.659 197.077L190.532 198.947L184.048 204.644M251.034 204.644L250.074 205.606L243.249 212.461H311.347H379.441M251.034 204.644H184.048M126.748 197.077H60.8385M126.748 197.077L117.061 204.644M184.048 204.644H117.061M184.048 204.644L182.95 205.606L175.15 212.461H107.052M60.8385 197.077H-5.07123M60.8385 197.077L50.0744 204.644M117.061 204.644H50.0744M117.061 204.644L114.59 206.574L113.346 207.544L107.053 212.46M-5.07123 197.077H-70.982M-5.07123 197.077L-16.9123 204.644M50.0744 204.644H-16.9123M50.0744 204.644L48.7033 205.606L47.3281 206.574L38.9531 212.46M-70.982 197.077H-136.892M-70.982 197.077L-83.899 204.644M-16.9123 204.644H-83.899M-16.9123 204.644L-19.9324 206.574L-21.4532 207.544L-29.1469 212.46M-136.892 197.077H-202.802M-136.892 197.077L-150.886 204.644M-83.899 204.644H-150.886M-83.899 204.644L-85.5438 205.606L-97.2448 212.461M-202.802 197.077H-268.711M-202.802 197.077L-217.872 204.644M-150.886 204.644H-217.872M-150.886 204.644L-154.456 206.574L-156.252 207.544L-165.344 212.46L-178.394 219.516L-180.289 220.542M-268.711 197.077H-334.622M-268.711 197.077L-284.859 204.644L-288.978 206.574L-301.54 212.46L-318.785 220.542M-217.872 204.644H-284.86H-351.845M-217.872 204.644L-233.442 212.461M-334.622 197.077H-400.532M-334.622 197.077L-351.845 204.644M-400.532 197.077H-466.442M-400.532 197.077L-418.831 204.644M-351.845 204.644H-418.831M-351.845 204.644L-356.238 206.574L-358.45 207.544L-369.638 212.46L-388.035 220.542M-466.442 197.077H-532.352M-466.442 197.077L-485.818 204.644M-418.831 204.644L-437.737 212.461M-532.352 197.077H-598.262M-532.352 197.077L-552.804 204.644M-598.262 197.077H-664.173M-598.262 197.077L-619.79 204.644M-664.173 197.077L-672.397 197.08L-680.538 197.096L-688.508 197.142L-696.229 197.233L-703.615 197.381L-710.587 197.602L-717.062 197.91L-723.072 198.303L-728.23 198.845L-732.926 199.475L-734.217 199.695V204.644M-664.173 197.077L-686.778 204.644M-619.79 204.644H-552.805M-619.79 204.644H-686.778M-619.79 204.644L-625.282 206.573L-642.034 212.46H-573.935M-734.217 204.644H-686.778M-734.217 204.644V212.461V220.522M-686.778 204.644L-710.132 212.461M-552.805 204.644H-485.819M-552.805 204.644L-573.936 212.461M-485.819 204.644L-505.838 212.461M-485.819 204.644H-418.832M-233.442 212.461L-249.538 220.542M-233.442 212.461H-165.344H-97.2448M-233.442 212.461H-301.54H-369.638H-437.737M-29.1469 212.46L-41.7932 220.542M-29.1469 212.46H38.9531M38.9531 212.46H107.053M515.648 212.461L514.792 214.455L513.498 217.48L512.632 219.516L512.193 220.542M515.648 212.461H447.544H379.441M583.74 212.46H651.843L651.266 216.468L651.127 217.48L650.688 220.542M583.74 212.46H515.648M788.039 212.461L788.178 213.456L788.317 214.455L788.467 215.459L788.606 216.468L788.756 217.48L789.183 220.542M788.039 212.461H856.132M1673.32 212.461L1689.41 220.542M1673.32 212.461H1741.42M1673.32 212.461H1605.22L1620.16 220.542M-734.451 275.406H-734.216M-734.216 275.406H-667.028L-641.454 265.419M-734.216 275.406L-734.217 285.774M-734.216 275.406L-734.217 271.754M-641.454 265.419L-616.804 255.793M-641.454 265.419L-565.821 265.418M-693.582 285.773L-667.027 275.404H-589.974M-641.452 265.418H-717.087M-717.087 265.418L-691.068 255.793M-717.087 265.418H-734.216M-717.087 265.418L-734.217 271.754M-616.804 255.793L-593.032 246.511M-616.804 255.793L-542.541 255.794M-616.804 255.793H-691.068M-565.821 265.418L-542.541 255.794M-565.821 265.418L-589.975 275.406M-565.821 265.418L-490.188 265.419M-691.068 255.793L-665.976 246.511M-691.068 255.793L-734.217 255.794M-734.217 271.754V265.419V255.794M-641.76 237.552H-570.091M-641.76 237.552L-618.375 228.9M-641.76 237.552H-713.427M-641.76 237.552L-665.976 246.511M-570.091 237.552L-547.937 228.9M-570.091 237.552L-593.032 246.511M-570.091 237.552H-498.423M-618.375 228.9H-547.937M-618.375 228.9L-595.78 220.542M-618.375 228.9H-688.812M-713.427 237.552L-688.812 228.9M-713.427 237.552H-734.217M-713.427 237.552L-734.217 244.857M-665.976 246.511H-593.032M-665.976 246.511H-734.217M-547.937 228.9H-477.5M-547.937 228.9L-526.531 220.542M-593.032 246.511H-520.089M-498.423 237.552L-477.5 228.9M-498.423 237.552L-520.089 246.511M-498.423 237.552H-426.754M-595.78 220.542H-526.531M-595.78 220.542L-573.935 212.461H-505.837M-595.78 220.542H-665.027M-688.812 228.9L-665.027 220.542M-688.812 228.9H-734.217M-477.5 228.9H-407.062M-477.5 228.9L-457.284 220.542M-526.531 220.542H-457.284M-526.531 220.542L-505.837 212.461M-734.955 433.034H-734.217M-734.217 433.034H-672.78M-734.217 433.034V416.477M-734.217 433.034V450.415M-672.78 433.034L-639.801 416.477M-672.78 433.034L-707.398 450.415M-672.78 433.034H-573.3M-639.801 416.477L-608.346 400.686H-703.224M-639.801 416.477H-542.677M-639.801 416.477H-734.217M-707.398 450.415H-605.446M-707.398 450.415H-734.217M-707.398 450.415L-734.217 463.88M-573.3 433.034L-605.446 450.415M-573.3 433.034H-473.82M-542.677 416.477L-513.47 400.685M-542.677 416.477L-573.3 433.033M-542.677 416.477H-445.552M-734.217 416.477L-734.218 415.207M-703.224 400.686L-671.048 385.609M-703.224 400.686L-734.218 415.207M-671.048 385.609L-640.296 371.198M-671.048 385.609H-734.217M-703.226 400.686H-734.217M-734.217 400.686L-734.218 415.207M-734.217 400.686V385.609M-640.298 371.198H-549.616M-640.298 371.198L-610.875 357.412M-640.298 371.198H-730.979M-610.875 357.412H-522.153M-610.875 357.412H-699.594M-610.875 357.412L-582.697 344.208M-730.979 371.198L-699.594 357.412M-730.979 371.198H-734.217M-730.979 371.198L-734.217 372.62M-549.614 371.198L-522.153 357.412M-549.614 371.198L-578.318 385.609M-549.614 371.198H-458.932M-522.153 357.412L-495.855 344.208M-522.153 357.412H-433.433M-458.932 371.198L-433.433 357.411M-458.932 371.198L-485.585 385.608M-458.932 371.198H-368.25M-699.594 357.412L-669.538 344.207M-699.594 357.412H-734.217M-582.697 344.208H-495.855M-582.697 344.208L-669.538 344.207M-582.697 344.208L-555.689 331.552M-495.855 344.208L-470.647 331.552M-495.855 344.208L-409.012 344.207M-529.778 319.411H-446.464M-529.778 319.411L-504.898 307.752M-529.778 319.411H-613.092M-529.778 319.411L-555.689 331.552M-446.464 319.411L-423.243 307.752M-446.464 319.411L-470.647 331.552M-446.464 319.411H-363.148M-504.898 307.752H-423.243M-504.898 307.752H-586.554M-504.898 307.752L-480.989 296.549M-613.092 319.411H-696.404M-613.092 319.411L-586.554 307.752M-613.092 319.411L-640.73 331.552L-669.538 344.207M-555.689 331.552H-470.647M-555.689 331.552L-640.729 331.551L-725.773 331.552M-423.243 307.752L-400.927 296.549M-423.243 307.752H-341.585M-470.647 331.552L-385.604 331.551M-363.148 319.411L-341.585 307.752M-363.148 319.411L-385.604 331.551M-363.148 319.411H-279.834M-586.554 307.752L-561.051 296.548M-480.989 296.549H-400.927M-480.989 296.549L-561.051 296.548M-480.989 296.549L-457.997 285.774M-400.927 296.549L-379.468 285.774M-400.927 296.549L-320.866 296.548M-341.585 307.752L-320.866 296.548M-341.585 307.752H-259.93M-435.868 275.406H-358.814M-435.868 275.406L-414.556 265.419M-435.868 275.406H-512.921M-435.868 275.406L-457.997 285.774M-358.814 275.406L-338.922 265.419M-358.814 275.406L-379.468 285.774M-358.814 275.406H-281.761M-414.556 265.419H-338.922M-414.556 265.419H-490.188M-414.556 265.419L-394.015 255.794M-512.921 275.406H-589.975M-512.921 275.406L-490.188 265.419M-512.921 275.406L-536.525 285.774M-457.997 285.774H-379.468M-457.997 285.774H-536.525M-338.922 265.419L-319.75 255.794M-338.922 265.419H-263.29M-379.468 285.774L-300.939 285.773M-281.761 275.406L-263.29 265.419M-281.761 275.406L-300.939 285.773M-281.761 275.406L-204.707 275.404M-490.188 265.419L-468.278 255.794M-394.015 255.794H-319.75M-394.015 255.794H-468.278M-394.015 255.794L-374.204 246.511M-319.75 255.794L-301.261 246.511M-319.75 255.794H-245.487M-263.29 265.419L-245.487 255.794M-263.29 265.419L-187.656 265.418M-355.086 237.552H-283.418M-355.086 237.552L-336.625 228.9M-355.086 237.552H-426.754M-355.086 237.552L-374.204 246.511M-283.418 237.552L-266.187 228.9M-283.418 237.552L-301.261 246.511M-283.418 237.552H-211.75M-336.625 228.9H-266.187M-336.625 228.9L-318.785 220.542M-336.625 228.9H-407.062M-426.754 237.552L-407.062 228.9M-426.754 237.552L-447.146 246.511M-374.204 246.511H-301.261M-374.204 246.511H-447.146M-266.187 228.9H-195.75M-266.187 228.9L-249.538 220.542M-301.261 246.511H-228.318M-211.75 237.552L-195.75 228.9M-211.75 237.552L-228.318 246.511M-211.75 237.552H-140.081M-318.785 220.542H-249.538M-318.785 220.542H-388.035M-407.062 228.9L-388.035 220.542M-195.75 228.9H-125.312M-195.75 228.9L-180.289 220.542M-249.538 220.542H-180.289M-683.25 720.086L-636.835 687.461M-683.25 720.086L-732.955 755.022M-683.25 720.086H-542.93M-683.25 720.086H-734.217M-636.835 687.461L-593.391 656.926M-636.835 687.461H-501.158M-636.835 687.461H-734.217M-732.955 755.022H-587.665M-732.955 755.022H-734.217M-732.955 755.022L-734.217 755.908M-734.217 720.086V755.022M-734.217 720.086V687.461M-593.391 656.926L-552.644 628.284M-593.391 656.926H-462.058M-593.391 656.926H-724.724L-734.216 662.991M-501.158 687.461L-462.058 656.926M-501.158 687.461L-542.931 720.086M-501.158 687.461H-365.481M-734.217 687.461L-734.216 662.991M-637.778 601.366H-514.348M-637.778 601.366L-598.113 576.023M-637.778 601.366L-679.904 628.284M-637.778 601.366H-734.217M-514.348 601.366L-478.291 576.023M-514.348 601.366L-552.644 628.284M-514.348 601.366H-390.919M-598.113 576.023H-478.291M-598.113 576.023H-717.936M-598.113 576.023L-560.702 552.116M-679.904 628.284H-552.644M-679.904 628.284L-724.725 656.926H-734.216M-734.217 601.366V628.284M-734.217 601.366V585.558M-478.291 576.023L-444.279 552.116M-478.291 576.023H-358.468M-552.644 628.284H-425.386M-390.919 601.366L-358.468 576.023M-390.919 601.366L-425.386 628.284M-390.919 601.366H-267.49M-560.702 552.116H-444.279M-560.702 552.116H-677.123M-560.702 552.116L-525.355 529.532M-444.279 552.116L-412.147 529.532M-444.279 552.116H-327.858M-358.468 576.023L-327.858 552.116M-358.468 576.023H-238.646M-491.908 508.157H-381.738M-491.908 508.157L-460.209 487.903M-491.908 508.157H-602.075M-491.908 508.157L-525.355 529.532M-381.738 508.157L-352.922 487.903M-381.738 508.157L-412.147 529.532M-381.738 508.157H-271.571M-460.209 487.903H-352.922M-460.209 487.903H-567.495M-460.209 487.903L-430.127 468.681M-602.075 508.157H-712.243M-602.075 508.157L-567.495 487.903M-602.075 508.157L-638.564 529.532M-525.355 529.532H-412.147M-525.355 529.532H-638.564M-352.922 487.903L-325.574 468.681M-352.922 487.903H-245.638M-412.147 529.532H-298.938M-271.571 508.157L-245.638 487.903M-271.571 508.157L-298.938 529.532M-271.571 508.157H-161.404M-567.495 487.903H-674.781M-567.495 487.903L-534.678 468.681M-430.127 468.681H-325.574M-430.127 468.681H-534.678M-430.127 468.681L-401.539 450.415M-325.574 468.681L-299.588 450.415M-325.574 468.681H-221.024M-245.638 487.903L-221.024 468.681M-245.638 487.903H-138.351M-374.341 433.034H-274.86M-374.341 433.034L-348.428 416.477M-374.341 433.034H-473.82M-374.341 433.034L-401.539 450.415M-274.86 433.034L-251.304 416.477M-274.86 433.034L-299.588 450.415M-274.86 433.034H-175.381M-348.428 416.477H-251.304M-348.428 416.477H-445.552M-348.428 416.477L-323.715 400.686M-473.82 433.034L-445.552 416.477M-473.82 433.034L-503.492 450.415M-401.539 450.415H-299.588M-401.539 450.415H-503.492M-251.304 416.477L-228.838 400.686M-251.304 416.477H-154.18M-299.588 450.415H-197.635M-175.381 433.034L-154.18 416.477M-175.381 433.034L-197.635 450.415M-175.381 433.034H-75.9005M-445.552 416.477L-418.593 400.686M-323.715 400.686H-228.838M-323.715 400.686H-418.593M-323.715 400.686L-300.119 385.609M-228.838 400.686L-207.387 385.609M-228.838 400.686H-133.959M-154.18 416.477L-133.959 400.686M-154.18 416.477H-57.0555M-277.566 371.198H-186.885M-277.566 371.198L-255.99 357.412M-277.566 371.198H-368.25M-277.566 371.198L-300.119 385.609M-186.885 371.198L-167.269 357.412M-186.885 371.198L-207.387 385.609M-186.885 371.198H-96.2031M-255.99 357.412H-167.269M-255.99 357.412H-344.71M-255.99 357.412L-235.328 344.208M-368.25 371.198L-344.71 357.411M-368.25 371.198L-392.852 385.608M-300.119 385.609H-207.387M-300.119 385.609H-392.852M-167.269 357.412L-148.485 344.208M-167.269 357.412H-78.5485M-207.387 385.609H-114.655M-96.2031 371.198L-78.5485 357.412M-96.2031 371.198L-114.655 385.609M-96.2031 371.198H-5.51935M-235.328 344.208H-148.485M-235.328 344.208H-322.169M-235.328 344.208L-215.521 331.552M-148.485 344.208L-130.478 331.552M-148.485 344.208H-61.6424M-78.5485 357.412L-61.6424 344.208M-78.5485 357.412H10.1718M-196.521 319.411H-113.206M-196.521 319.411L-178.275 307.752M-196.521 319.411H-279.834M-196.521 319.411L-215.521 331.552M-113.206 319.411L-111.094 317.927L-96.6191 307.752M-113.206 319.411L-130.478 331.552M-113.206 319.411H-29.8902M-178.275 307.752H-96.6191M-178.275 307.752H-259.93M-178.275 307.752L-160.742 296.549M-279.834 319.411L-259.93 307.752M-279.834 319.411L-300.563 331.552M-215.521 331.552H-130.478M-215.521 331.552H-300.563M-96.6191 307.752L-80.6799 296.549M-96.6191 307.752H-14.9627M-130.478 331.552H-45.438M-29.8902 319.411L-14.9627 307.752M-29.8902 319.411L-45.438 331.552M-29.8902 319.411H53.4239M-259.93 307.752L-240.804 296.549M-160.742 296.549H-80.6799M-160.742 296.549H-240.804M-160.742 296.549L-143.881 285.773M-80.6799 296.549L-67.2346 287.1L-65.3524 285.773M-80.6799 296.549H-0.618003M-14.9627 307.752L-0.618003 296.549M-14.9627 307.752H66.6928M-127.654 275.406H-50.5981M-127.654 275.406L-112.023 265.419M-127.654 275.406L-204.707 275.404M-127.654 275.406L-143.881 285.773M-50.5981 275.406L-36.3903 265.418M-50.5981 275.406L-56.0652 279.247L-65.3524 285.773M-50.5981 275.406L26.4554 275.404M-112.023 265.419L-36.3903 265.418M-112.023 265.419L-187.656 265.418M-112.023 265.419L-96.9603 255.793M-204.707 275.404L-189.754 266.644L-187.656 265.418M-204.707 275.404L-222.41 285.773M-143.881 285.773H-65.3524M-36.3903 265.418L-22.697 255.793M-36.3903 265.418H39.2429M-65.3524 285.773H13.1769M26.4554 275.404L39.2429 265.418M26.4554 275.404L23.1818 277.959L13.1769 285.773M26.4554 275.404L103.509 275.406M-187.656 265.418L-171.224 255.793M-96.9603 255.793H-22.697M-96.9603 255.793H-171.224M-96.9603 255.793L-82.4327 246.511M-22.697 255.793L51.5663 255.794M39.2429 265.418L51.5663 255.794M39.2429 265.418L114.875 265.419M-68.4132 237.552H3.25559M-68.4132 237.552L-54.8749 228.9M-68.4132 237.552H-140.081M-68.4132 237.552L-82.4327 246.511M3.25559 237.552L12.5267 231.036L14.0475 229.965L15.564 228.9M3.25559 237.552L-9.49026 246.511M3.25559 237.552H74.9243M-54.8749 228.9H15.564M-54.8749 228.9L-41.7932 220.542M-54.8749 228.9H-125.312M-140.081 237.552L-125.312 228.9M-140.081 237.552L-155.375 246.51M-82.4327 246.511H-9.48915M-82.4327 246.511L-155.375 246.51M15.564 228.9H86.0007M15.564 228.9L27.4543 220.542M-41.7932 220.542H27.4543M-41.7932 220.542H-111.042M-125.312 228.9L-111.042 220.542M27.4543 220.542H96.705M27.4543 220.542L31.8134 217.48L38.9542 212.46M-632.411 1091.73H-439.217M-632.411 1091.73L-571.579 1030.64M-632.411 1091.73L-699.257 1158.85M-632.411 1091.73L-734.217 1091.73M-439.217 1091.73L-387.075 1030.64M-439.217 1091.73L-496.514 1158.85M-439.217 1091.73H-246.025M-571.579 1030.64H-387.075M-571.579 1030.64L-515.983 974.819M-571.579 1030.64H-734.217M-699.257 1158.85H-496.514M-699.257 1158.85L-734.217 1193.95M-699.257 1158.85H-734.217M-734.217 1091.73V1158.85M-734.217 1091.73V1030.64M-387.075 1030.64L-339.423 974.819M-387.075 1030.64H-202.573M-496.514 1158.85L-559.77 1232.95M-496.514 1158.85H-293.771M-246.025 1091.73L-202.573 1030.64M-246.025 1091.73L-293.771 1158.85M-246.025 1091.73H-52.8312M-515.983 974.819H-339.423M-515.983 974.819H-692.544M-515.983 974.819L-464.976 923.604M-734.217 1030.64V1011.43M-339.423 974.819L-295.702 923.604M-339.423 974.819H-162.863M-202.573 1030.64L-162.863 974.819M-202.573 1030.64H-18.0705M-418.014 876.447H-255.448M-418.014 876.447L-374.632 832.885M-418.014 876.447H-580.577M-418.014 876.447L-464.976 923.604M-255.448 876.447L-218.264 832.885M-255.448 876.447L-295.702 923.604M-255.448 876.447H-92.8846M-374.632 832.885H-218.264M-374.632 832.885H-530.998M-374.632 832.885L-334.435 792.525M-580.577 876.447L-530.998 832.885M-580.577 876.447L-634.25 923.604M-580.577 876.447H-734.216M-464.976 923.604H-295.702M-464.976 923.604H-634.25M-218.264 832.885L-183.81 792.525M-218.264 832.885H-61.897M-295.702 923.604H-126.429M-92.8846 876.447L-61.897 832.885M-92.8846 876.447L-126.429 923.604M-92.8846 876.447H69.6797M-530.998 832.885H-687.366M-530.998 832.885L-485.06 792.525M-334.435 792.525H-183.81M-334.435 792.525H-485.06M-334.435 792.525L-297.087 755.022M-183.81 792.525L-151.797 755.022M-183.81 792.525H-33.1852M-61.897 832.885L-33.1852 792.525M-61.897 832.885H94.4698M-262.293 720.086H-121.975M-262.293 720.086L-229.802 687.461M-262.293 720.086H-402.613M-262.293 720.086L-297.087 755.022M-121.975 720.086L-94.1252 687.461M-121.975 720.086L-151.797 755.022M-121.975 720.086H18.3435M-229.802 687.461H-94.1252M-229.802 687.461H-365.481M-229.802 687.461L-199.392 656.926M-402.613 720.086H-542.931M-402.613 720.086L-365.481 687.461M-402.613 720.086L-442.377 755.022M-297.087 755.022H-151.797M-297.087 755.022H-442.377M-94.1252 687.461L-68.0592 656.926M-94.1252 687.461H41.5529M-151.797 755.022H-6.50754M18.3435 720.086L41.5529 687.461M18.3435 720.086L-6.50754 755.022M18.3435 720.086H158.663M-365.481 687.461L-330.724 656.926M-199.392 656.926H-68.0592M-199.392 656.926H-330.725M-199.392 656.926L-170.87 628.284M-68.0592 656.926L-43.6113 628.284M-68.0592 656.926H63.2737M41.5529 687.461L63.2737 656.926M41.5529 687.461H177.23M-144.062 601.366H-20.634M-144.062 601.366L-118.821 576.023M-144.062 601.366H-267.49M-144.062 601.366L-170.87 628.284M-20.634 601.366L1.00113 576.023M-20.634 601.366L-43.6113 628.284M-20.634 601.366H102.796M-118.821 576.023H1.00113M-118.821 576.023H-238.646M-118.821 576.023L-95.0139 552.116M-267.49 601.366L-238.646 576.023M-267.49 601.366L-298.128 628.284M-170.87 628.284H-43.6113M-170.87 628.284H-298.128M1.00113 576.023L21.4076 552.116M1.00113 576.023H120.823M-43.6113 628.284H83.6469M102.796 601.366L120.823 576.023M102.796 601.366L83.6469 628.284M102.796 601.366H226.224M-238.646 576.023L-211.435 552.116M-95.0139 552.116H21.4076M-95.0139 552.116H-211.435M-95.0139 552.116L-72.521 529.532M21.4076 552.116L40.6877 529.531M21.4076 552.116H137.83M120.823 576.023L137.83 552.116M120.823 576.023H240.648M-51.2366 508.157H58.9327M-51.2366 508.157L-31.0644 487.903M-51.2366 508.157H-161.404M-51.2366 508.157L-72.521 529.532M58.9327 508.157L76.2216 487.903M58.9327 508.157L40.6877 529.532M58.9327 508.157H169.1M-31.0644 487.903H76.2216M-31.0644 487.903H-138.351M-31.0644 487.903L-11.9211 468.681M-161.404 508.157L-138.351 487.903M-161.404 508.157L-185.729 529.532M-72.521 529.532H40.6877M-72.521 529.532H-185.729M76.2216 487.903L92.6292 468.681M76.2216 487.903H183.509M40.6877 529.532H153.896M-138.351 487.903L-116.471 468.681M23.5796 433.034H123.06M23.5796 433.034L40.0696 416.477M23.5796 433.034H-75.9005M23.5796 433.034L6.27148 450.415M123.06 433.034L137.194 416.477M123.06 433.034L108.223 450.415M123.06 433.034H222.539M40.0696 416.477H137.194M40.0696 416.477H-57.0555M40.0696 416.477L55.796 400.686M-75.9005 433.034L-57.0555 416.477M-75.9005 433.034L-95.6823 450.415M137.194 416.477L150.673 400.686M137.194 416.477H234.318M-57.0555 416.477L-39.0822 400.685M55.796 400.686H150.673M55.796 400.686L-39.0822 400.685M55.796 400.686L70.8112 385.608M150.673 400.686L163.544 385.608M150.673 400.686L245.551 400.685M234.318 416.477L241.401 406.52L245.551 400.685M234.318 416.477L222.539 433.033M234.318 416.477H331.442M85.1623 371.198H175.845M85.1623 371.198L98.8931 357.412M85.1623 371.198H-5.51935M85.1623 371.198L70.8112 385.609M175.845 371.198L187.613 357.412M175.845 371.198L163.544 385.609M175.845 371.198H266.527M98.8931 357.412H187.613M98.8931 357.412H10.1718M98.8931 357.412L112.043 344.208M-5.51935 371.198L10.1718 357.412M-5.51935 371.198L-21.9216 385.609M187.613 357.412L198.884 344.208M187.613 357.412H276.335M266.527 371.198L276.335 357.411M266.527 371.198L264.007 374.739L256.277 385.608M266.527 371.198H357.207M10.1718 357.412L25.1988 344.207M112.043 344.208H198.884M112.043 344.208L25.1988 344.207M112.043 344.208L124.646 331.552M198.884 344.208L204.342 337.812L209.688 331.552M198.884 344.208L285.727 344.207M136.738 319.411H220.053M136.738 319.411L148.348 307.752M136.738 319.411H53.4239M136.738 319.411L124.646 331.552M220.053 319.411L218.78 320.9L209.688 331.552M220.053 319.411L230.004 307.752M220.053 319.411H303.367M148.348 307.752H230.004M148.348 307.752H66.6928M148.348 307.752L159.506 296.549M53.4239 319.411L66.6928 307.752M53.4239 319.411L39.6044 331.551M124.646 331.552H209.688M124.646 331.552L39.6044 331.551M209.688 331.552L294.73 331.551M230.004 307.752L239.568 296.549M230.004 307.752H311.66M303.367 319.411L311.66 307.752M303.367 319.411L294.73 331.551M303.367 319.411H386.681M66.6928 307.752L79.4439 296.548M159.506 296.549H239.568M159.506 296.549L79.4439 296.548M159.506 296.549L170.237 285.774M239.568 296.549L248.765 285.774M239.568 296.549L319.63 296.548M311.66 307.752L319.63 296.548M311.66 307.752H393.312M180.562 275.406H257.616M180.562 275.406L190.508 265.419M180.562 275.406H103.509M180.562 275.406L170.237 285.774M257.616 275.406L266.141 265.419M257.616 275.406L254.337 279.248L252.123 281.84L248.765 285.774M257.616 275.406H334.674M190.508 265.419H266.141M190.508 265.419H114.875M190.508 265.419L200.093 255.794M103.509 275.406L114.875 265.419M103.509 275.406L91.7053 285.774M170.237 285.774H248.765M170.237 285.774H91.7053M266.141 265.419L269.258 261.768L271.312 259.361L274.358 255.794M266.141 265.419H341.775M248.765 285.774L327.294 285.773M334.674 275.406L336.47 272.873L341.775 265.419M334.674 275.406L333.764 276.679L332.851 277.959L330.093 281.839L329.164 283.144L327.294 285.773M334.674 275.406H411.728H488.783M114.875 265.419L125.83 255.794M200.093 255.794H274.358M200.093 255.794H125.83M200.093 255.794L207.058 248.799L209.339 246.511M274.358 255.794L278.356 251.11L282.282 246.511M274.358 255.794H348.619M341.775 265.419L342.641 264.196L343.507 262.977L346.93 258.165L348.619 255.794M341.775 265.419H417.407M218.261 237.552H289.929M218.261 237.552L224.75 231.036L226.875 228.9M218.261 237.552H146.592M218.261 237.552L210.471 245.373L209.339 246.511M289.929 237.552L295.492 231.036L296.404 229.965L297.314 228.9M289.929 237.552L286.138 241.99L282.282 246.511M289.929 237.552H361.592M226.875 228.9H297.314M226.875 228.9L235.201 220.542M226.875 228.9H156.439M209.339 246.511H282.282M209.339 246.511H136.395M297.314 228.9H367.752M297.314 228.9L304.449 220.542M282.282 246.511H355.229M361.592 237.552L367.752 228.9M361.592 237.552L355.229 246.511M361.592 237.552H433.267M235.201 220.542H304.449M235.201 220.542L243.249 212.46L175.15 212.459L169.438 217.479L165.953 220.541L235.201 220.542ZM156.439 228.9H86.0018M156.439 228.9L146.593 237.552M156.439 228.9L163.606 222.605L165.954 220.542H96.705M367.752 228.9H438.187M367.752 228.9L372.233 222.605L373.698 220.542M304.449 220.542H373.698M140.361 1091.73H333.553M140.361 1091.73L166.432 1030.64M140.361 1091.73H-52.8312M140.361 1091.73L111.713 1158.85M333.553 1091.73L350.94 1030.64M333.553 1091.73L314.456 1158.85M333.553 1091.73H526.749M166.432 1030.64H350.94M166.432 1030.64H-18.0705M166.432 1030.64L190.258 974.819M-52.8312 1091.73L-18.0705 1030.64M-52.8312 1091.73L-91.0301 1158.85M111.713 1158.85H314.456M111.713 1158.85L80.0845 1232.95M111.713 1158.85H-91.0301M350.94 1030.64L366.822 974.819M350.94 1030.64H535.433M314.456 1158.85L293.37 1232.95M314.456 1158.85H517.198M526.749 1091.73L535.433 1030.64M526.749 1091.73L517.198 1158.85M526.749 1091.73H719.936M-18.0705 1030.64L13.6978 974.819M190.258 974.819H366.822M190.258 974.819H13.6978M190.258 974.819L212.118 923.604M366.822 974.819L381.388 923.604M366.822 974.819H543.379M535.433 1030.64L543.379 974.819M535.433 1030.64H719.936M232.245 876.447H394.809M232.245 876.447L250.838 832.885M232.245 876.447H69.6797M232.245 876.447L212.118 923.604M394.809 876.447L407.204 832.885M394.809 876.447L381.388 923.604M394.809 876.447H557.378M250.838 832.885H407.204M250.838 832.885H94.4698M250.838 832.885L268.065 792.525M69.6797 876.447L94.4698 832.885M69.6797 876.447L42.8449 923.604M212.118 923.604H381.388M212.118 923.604H42.8449M407.204 832.885L418.69 792.525M407.204 832.885H563.57M381.388 923.604H550.662M557.378 876.447L563.57 832.885M557.378 876.447L550.662 923.604M557.378 876.447H719.936M94.4698 832.885L117.44 792.525M268.065 792.525H418.69M268.065 792.525H117.44M268.065 792.525L284.071 755.022M418.69 792.525L429.364 755.022M418.69 792.525H569.313M563.57 832.885L569.313 792.525M563.57 832.885H719.936M298.982 720.086H439.299M298.982 720.086L312.907 687.461M298.982 720.086H158.663M298.982 720.086L284.071 755.022M439.299 720.086L448.582 687.461M439.299 720.086L429.364 755.022M439.299 720.086H579.623M312.907 687.461H448.582M312.907 687.461H177.23M312.907 687.461L325.94 656.926M158.663 720.086L177.23 687.461M158.663 720.086L138.781 755.022M284.071 755.022H429.364M284.071 755.022H138.781M448.582 687.461L457.277 656.926M448.582 687.461H584.264M429.364 755.022H574.65M579.623 720.086L584.264 687.461M579.623 720.086L574.65 755.022M579.623 720.086H719.936M177.23 687.461L194.607 656.926M325.94 656.926H457.277M325.94 656.926H194.607M325.94 656.926L338.16 628.284M457.277 656.926L465.426 628.284M457.277 656.926H588.606M584.264 687.461L588.606 656.926M584.264 687.461H719.936M349.657 601.366H473.083M349.657 601.366L360.469 576.023M349.657 601.366H226.224M349.657 601.366L338.16 628.284M473.083 601.366L480.291 576.023M473.083 601.366L465.426 628.284M473.083 601.366H596.51M360.469 576.023H480.291M360.469 576.023H240.648M360.469 576.023L370.672 552.116M226.224 601.366L240.648 576.023M226.224 601.366L210.905 628.284M338.16 628.284H465.426M338.16 628.284H210.905M480.291 576.023L487.093 552.116M480.291 576.023H600.114M465.426 628.284H592.681M596.51 601.366L600.114 576.023M596.51 601.366L592.681 628.284M596.51 601.366H719.936M240.648 576.023L254.251 552.116M370.672 552.116H487.093M370.672 552.116H254.251M370.672 552.116L380.318 529.532M487.093 552.116L493.521 529.532M487.093 552.116H603.514M600.114 576.023L603.514 552.116M600.114 576.023H719.936M389.43 508.157H499.606M389.43 508.157L398.082 487.903M389.43 508.157H279.267M389.43 508.157L380.318 529.532M499.606 508.157L505.37 487.903M499.606 508.157L493.521 529.532M499.606 508.157H609.771M398.082 487.903H505.37M398.082 487.903H290.795M398.082 487.903L406.285 468.681M380.318 529.532H493.521M380.318 529.532H267.104M505.37 487.903L510.835 468.681M505.37 487.903H612.648M493.521 529.532H606.734M609.771 508.157L612.648 487.903M609.771 508.157L606.734 529.532M609.771 508.157H719.936M406.285 468.681H510.835M406.285 468.681H301.733M406.285 468.681L414.081 450.415M510.835 468.681L516.033 450.415M510.835 468.681H615.386M612.648 487.903L615.386 468.681M612.648 487.903H719.936M421.503 433.034H520.974M421.503 433.034L428.562 416.477M421.503 433.034H322.02M421.503 433.034L414.081 450.415M520.974 433.034L525.69 416.477M520.974 433.034L516.033 450.415M520.974 433.034H620.455M428.562 416.477H525.69M428.562 416.477H331.442M428.562 416.477L431.128 410.469L435.31 400.686M414.081 450.415H516.033M414.081 450.415H312.128M525.69 416.477L530.182 400.686M525.69 416.477H622.818M516.033 450.415H617.984M620.455 433.034L622.818 416.477M620.455 433.034L617.984 450.415M620.455 433.034H719.936M331.442 416.477L340.427 400.686M331.442 416.477L322.02 433.033M435.31 400.686H530.182M435.31 400.686H340.427M435.31 400.686L441.737 385.609M530.182 400.686L534.47 385.609M530.182 400.686H625.064M622.818 416.477L625.064 400.686M622.818 416.477H719.936M447.897 371.198H538.577M447.897 371.198L453.779 357.412M447.897 371.198H357.207M447.897 371.198L443.309 381.946L441.737 385.609M538.577 371.198L540.063 365.957L542.502 357.412M538.577 371.198L534.47 385.609M538.577 371.198H629.256M453.779 357.412L454.496 355.729L459.415 344.208M453.779 357.412H542.502M453.779 357.412H365.057M357.207 371.198L365.057 357.411M357.207 371.198L356.202 372.964L353.154 378.322L349.004 385.608M441.737 385.609H534.47M441.737 385.609H349.004M542.502 357.412L543.924 352.394L544.395 350.738L544.865 349.093L546.256 344.208M542.502 357.412H631.213M534.47 385.609H627.203M629.256 371.198L631.213 357.412M629.256 371.198L627.203 385.609M629.256 371.198H719.936M459.415 344.208H546.256M459.415 344.208H372.565M459.415 344.208L464.816 331.552M546.256 344.208L547.624 339.4L548.074 337.813L549.86 331.552M546.256 344.208H633.096M631.213 357.412L631.459 355.729L633.096 344.208M631.213 357.412H719.936M469.992 319.411H553.314M469.992 319.411L472.506 313.522L473.126 312.07L473.746 310.623L474.356 309.184L474.976 307.752M469.992 319.411H386.681M469.992 319.411L464.816 331.552M553.314 319.411L555.806 310.623L556.223 309.184L556.629 307.752M553.314 319.411L549.86 331.552M553.314 319.411H636.625M474.976 307.752H556.629M474.976 307.752H393.312M474.976 307.752L477.981 300.698L478.57 299.308L479.757 296.549M386.681 319.411L391.687 310.622L393.312 307.752M386.681 319.411L384.125 323.903L381.527 328.468L379.773 331.552M464.816 331.552H549.86M464.816 331.552H379.773M556.629 307.752L558.629 300.698L559.036 299.308L559.421 297.925L559.816 296.549M556.629 307.752H638.283M549.86 331.552H634.892M636.625 319.411L638.283 307.752M636.625 319.411L635.983 323.904L635.331 328.469L634.892 331.552M636.625 319.411H719.936M393.312 307.752L399.686 296.549M479.757 296.549H559.816M479.757 296.549H399.686M479.757 296.549L484.355 285.774M559.816 296.549L562.886 285.774M559.816 296.549H639.876M638.283 307.752L639.876 296.549M638.283 307.752H719.936M488.783 275.406H565.827M488.783 275.406L493.039 265.419M488.783 275.406L487.681 277.96L486.034 281.84L484.355 285.774M565.827 275.406L565.463 276.68L563.26 284.456L562.886 285.774M565.827 275.406L568.671 265.419M565.827 275.406H642.881M493.039 265.419H568.671M493.039 265.419H417.407M493.039 265.419L497.146 255.794M484.355 285.774H562.886M484.355 285.774L405.825 285.775M562.886 285.774H641.405M568.671 265.419L569.709 261.768L570.051 260.561L570.393 259.361L571.409 255.794M568.671 265.419H644.304M642.881 275.406L643.961 267.88L644.133 266.646L644.304 265.419M642.881 275.406L641.405 285.774M642.881 275.406H719.936M417.407 265.419L422.883 255.794M417.407 265.419L416.712 266.644L411.728 275.403L411.001 276.679L410.274 277.959L409.536 279.247L405.825 285.773M497.146 255.794H571.409M497.146 255.794H422.883M497.146 255.794L498.151 253.441L498.654 252.273L499.146 251.111L499.638 249.951L500.13 248.799L500.622 247.653L501.114 246.511M571.409 255.794L571.752 254.614L572.083 253.441L572.746 251.111L573.078 249.951L573.399 248.799L573.73 247.653L574.051 246.511M571.409 255.794H645.673M644.304 265.419L645.673 255.794M644.304 265.419H719.936M504.932 237.552H576.607M504.932 237.552L507.712 231.036L508.621 228.9M504.932 237.552H433.267M504.932 237.552L503.52 240.874L503.039 241.99L502.558 243.113L501.114 246.511M576.607 237.552L576.917 236.454L577.537 234.272L578.147 232.11L579.067 228.901M576.607 237.552L575.334 241.99L575.024 243.113L574.372 245.373L574.051 246.511M576.607 237.552H648.271M508.621 228.9L579.067 228.901M508.621 228.9L511.755 221.571L512.193 220.542M508.621 228.9H438.187M433.267 237.552L438.187 228.9M433.267 237.552L428.166 246.511M501.114 246.511H574.051M501.114 246.511H428.166M579.067 228.901L579.366 227.84L579.666 226.784L579.965 225.732L580.264 224.685L581.152 221.571L581.441 220.542M579.067 228.901L649.501 228.9M574.051 246.511H646.999M648.271 237.552L649.501 228.9M648.271 237.552L646.999 246.511M648.271 237.552H719.936M512.193 220.542H581.441M512.193 220.542H442.946M438.187 228.9L440.593 224.686L442.358 221.571L442.946 220.542M581.441 220.542L581.73 219.516L582.885 215.459L583.74 212.461M581.441 220.542H650.688M649.501 228.9L649.651 227.84L649.801 226.784L649.95 225.732L650.688 220.542M649.501 228.9H719.936M913.134 1091.73H1106.32M913.134 1091.73L904.439 1030.64M913.134 1091.73H719.936M913.134 1091.73L922.684 1158.85M1106.32 1091.73L1088.94 1030.64M1106.32 1091.73L1125.42 1158.85M1106.32 1091.73H1299.52M904.439 1030.64H1088.94M904.439 1030.64H719.936M904.439 1030.64L896.504 974.819M719.936 1091.73V1030.64M719.936 1091.73V1158.85M922.684 1158.85H1125.42M922.684 1158.85L933.229 1232.95M922.684 1158.85H719.936M1088.94 1030.64L1073.06 974.819M1088.94 1030.64H1273.45M1125.42 1158.85L1146.51 1232.95M1125.42 1158.85H1328.17M1299.52 1091.73L1273.45 1030.64M1299.52 1091.73L1328.17 1158.85M1299.52 1091.73H1492.71M719.936 1030.64V974.819M896.504 974.819H1073.06M896.504 974.819H719.936M896.504 974.819L889.21 923.604M1073.06 974.819L1058.48 923.604M1073.06 974.819H1249.62M1273.45 1030.64L1249.62 974.819M1273.45 1030.64H1457.95M882.504 876.447H1045.07M882.504 876.447L876.302 832.885M882.504 876.447H719.936M882.504 876.447L889.21 923.604M1045.07 876.447L1032.68 832.885M1045.07 876.447L1058.48 923.604M1045.07 876.447H1207.63M876.302 832.885H1032.68M876.302 832.885H719.936M876.302 832.885L870.559 792.525M719.936 876.447V832.885M719.936 876.447V923.604M889.21 923.604H1058.48M889.21 923.604H719.936M1032.68 832.885L1021.19 792.525M1032.68 832.885H1189.04M1058.48 923.604H1227.76M1207.63 876.447L1189.04 832.885M1207.63 876.447L1227.76 923.604M1207.63 876.447H1370.2M719.936 832.885V792.525M870.559 792.525H1021.19M870.559 792.525H719.936M870.559 792.525L865.233 755.022M1021.19 792.525L1010.52 755.022M1021.19 792.525H1171.81M1189.04 832.885L1171.81 792.525M1189.04 832.885H1345.41M860.26 720.086H1000.57M860.26 720.086L855.618 687.461M860.26 720.086H719.936M860.26 720.086L865.233 755.022M1000.57 720.086L991.29 687.461M1000.57 720.086L1010.52 755.022M1000.57 720.086H1140.9M855.618 687.461H991.29M855.618 687.461H719.936M855.618 687.461L851.276 656.926M719.936 720.086V687.461M719.936 720.086V755.022M865.233 755.022H1010.52M865.233 755.022H719.936M991.29 687.461L982.606 656.926M991.29 687.461H1126.97M1010.52 755.022H1155.8M1140.9 720.086L1126.97 687.461M1140.9 720.086L1155.8 755.022M1140.9 720.086H1281.21M719.936 687.461V656.926M851.276 656.926H982.606M851.276 656.926H719.936M851.276 656.926L847.202 628.284M982.606 656.926L974.457 628.284M982.606 656.926H1113.94M1126.97 687.461L1113.94 656.926M1126.97 687.461H1262.64M843.373 601.366H966.799M843.373 601.366L839.758 576.023M843.373 601.366H719.936M843.373 601.366L847.202 628.284M966.799 601.366L959.58 576.023M966.799 601.366L974.457 628.284M966.799 601.366H1090.23M839.758 576.023H959.58M839.758 576.023H719.936M839.758 576.023L836.357 552.116M719.936 601.366V576.023M719.936 601.366V628.284M847.202 628.284H974.457M847.202 628.284H719.936M959.58 576.023L952.779 552.116M959.58 576.023H1079.4M974.457 628.284H1101.71M1090.23 601.366L1079.4 576.023M1090.23 601.366L1101.71 628.284M1090.23 601.366H1213.65M719.936 576.023V552.116M836.357 552.116H952.779M836.357 552.116H719.936M836.357 552.116L833.149 529.532M952.779 552.116L946.351 529.532M952.779 552.116H1069.2M1079.4 576.023L1069.2 552.116M1079.4 576.023H1199.22M830.101 508.157H940.277M830.101 508.157L827.224 487.903M830.101 508.157H719.936M830.101 508.157L833.149 529.532M940.277 508.157L934.512 487.903M940.277 508.157L946.351 529.532M940.277 508.157H1050.44M827.224 487.903H934.512M827.224 487.903H719.936M827.224 487.903L824.486 468.681M719.936 508.157V487.903M719.936 508.157V529.532M833.149 529.532H946.351M833.149 529.532H719.936M934.512 487.903L929.037 468.681M934.512 487.903H1041.8M946.351 529.532H1059.56M1050.44 508.157L1041.8 487.903M1050.44 508.157L1059.56 529.532M1050.44 508.157H1160.61M719.936 487.903V468.681M824.486 468.681H929.037M824.486 468.681H719.936M824.486 468.681L822.208 452.649L821.888 450.415M929.037 468.681L923.85 450.415M929.037 468.681H1033.6M1041.8 487.903L1033.6 468.681M1041.8 487.903H1149.08M819.417 433.034H918.898M819.417 433.034L817.064 416.477M819.417 433.034H719.936M819.417 433.034L821.888 450.415M918.898 433.034L914.182 416.477M918.898 433.034L923.85 450.415M918.898 433.034H1018.38M817.064 416.477H914.182M817.064 416.477H719.936M817.064 416.477L814.818 400.686M719.936 433.034V416.477M719.936 433.034V450.415M821.888 450.415H923.85M821.888 450.415H719.936M914.182 416.477L909.69 400.686M914.182 416.477H1011.31M923.85 450.415H1025.8M1018.38 433.034L1011.31 416.477M1018.38 433.034L1025.8 450.415M1018.38 433.034H1117.86M719.936 416.477V400.686M814.818 400.686H909.69M814.818 400.686H719.936M814.818 400.686L812.669 385.609M909.69 400.686L905.402 385.609M909.69 400.686H1004.57M1011.31 416.477L1009.6 412.46L1004.57 400.686M1011.31 416.477H1108.44M810.626 371.198H901.306M810.626 371.198L808.658 357.412M810.626 371.198H719.936M810.626 371.198L812.669 385.609M901.306 371.198L897.862 359.102L897.381 357.412M901.306 371.198L905.402 385.609M901.306 371.198H991.985M808.658 357.412L808.423 355.729L806.776 344.208M808.658 357.412H897.381M808.658 357.412H719.936M719.936 371.198V357.412M719.936 371.198V385.609M812.669 385.609H905.402M812.669 385.609H719.936M897.381 357.412L895.948 352.394L895.488 350.738L895.017 349.093L893.627 344.208M897.381 357.412H986.103M905.402 385.609H998.134M991.985 371.198L986.103 357.412M991.985 371.198L996.573 381.946L998.134 385.609M991.985 371.198H1082.66M806.776 344.208H893.627M806.776 344.208H719.936M806.776 344.208L806.327 340.994L805.429 334.666L804.979 331.552M719.936 357.412V344.208M893.627 344.208L892.258 339.4L891.809 337.813L890.023 331.552M893.627 344.208H980.467M986.103 357.412L980.467 344.208M986.103 357.412H1074.83M803.257 319.411H886.568M803.257 319.411L801.589 307.752M803.257 319.411H719.936M803.257 319.411L803.888 323.904L804.113 325.419L804.327 326.94L804.765 330.007L804.979 331.552M886.568 319.411L884.066 310.623L883.253 307.752M886.568 319.411L890.023 331.552M886.568 319.411H969.879M801.589 307.752H883.253M801.589 307.752H719.936M801.589 307.752L799.996 296.549M719.936 319.411V307.752M719.936 319.411V331.552M804.979 331.552H890.023M804.979 331.552H719.936M883.253 307.752L881.243 300.698L880.847 299.308L880.451 297.925L880.066 296.549M883.253 307.752H964.906M890.023 331.552H975.066M969.879 319.411L966.746 312.07L966.136 310.623L965.516 309.184L964.906 307.752M969.879 319.411L974.403 330.007L975.066 331.552M969.879 319.411H1053.2M719.936 307.752V296.549M799.996 296.549H880.066M799.996 296.549H719.936M799.996 296.549L798.466 285.774M880.066 296.549L876.997 285.774M880.066 296.549H960.126M964.906 307.752L962.489 302.095L961.891 300.698L961.302 299.308L960.126 296.549M964.906 307.752H1046.56M796.99 275.406H874.045M796.99 275.406L795.568 265.419M796.99 275.406H719.936M796.99 275.406L798.466 285.774M874.045 275.406L874.409 276.68L876.622 284.456L876.997 285.774M874.045 275.406L871.2 265.419M874.045 275.406H951.1M795.568 265.419H871.2M795.568 265.419H719.936M795.568 265.419L794.199 255.794M719.936 275.406V265.419M719.936 275.406V285.775M798.466 285.774H876.997M798.466 285.774L719.936 285.775M876.997 285.774H955.527M871.2 265.419L870.163 261.768L869.821 260.561L869.478 259.361L868.462 255.794M871.2 265.419H946.832M951.1 275.406L946.832 265.419M951.1 275.406L952.19 277.96L953.848 281.84L955.527 285.774M951.1 275.406H1028.15M719.936 265.419V255.794M794.199 255.794H868.462M794.199 255.794H719.936M794.199 255.794L792.884 246.511M868.462 255.794L868.131 254.614L867.136 251.111L866.805 249.951L866.473 248.799L866.152 247.653L865.821 246.511M868.462 255.794H942.726M946.832 265.419L942.726 255.794M946.832 265.419H1022.46M791.611 237.552H863.276M791.611 237.552L790.381 228.9M791.611 237.552H719.936M791.611 237.552L792.884 246.511M863.276 237.552L862.965 236.454L862.345 234.272L862.035 233.188L861.425 231.036L861.115 229.965L860.816 228.9M863.276 237.552L864.538 241.99L864.858 243.113L865.5 245.373L865.821 246.511M863.276 237.552H934.94M790.381 228.9L790.221 227.84L790.071 226.784L789.921 225.732L789.183 220.542M790.381 228.9H860.816M790.381 228.9H719.936M719.936 237.552V228.9M719.936 237.552V246.511M792.884 246.511H865.821M792.884 246.511H719.936M860.816 228.9H931.25M860.816 228.9L860.217 226.784L859.907 225.732L859.618 224.685L858.73 221.571L858.431 220.542M865.821 246.511H938.769M934.94 237.552L932.159 231.036L931.25 228.9M934.94 237.552L937.314 243.113L938.769 246.511M934.94 237.552L1006.62 237.551M789.183 220.542H858.431M789.183 220.542H719.936M719.936 228.9V220.542M931.25 228.9H1001.69M931.25 228.9L928.566 222.605L927.678 220.542M858.431 220.542L858.142 219.516L856.987 215.459L856.132 212.461M858.431 220.542H927.678M1685.9 1091.73H1879.09M1685.9 1091.73L1642.45 1030.64M1685.9 1091.73H1492.71M1685.9 1091.73L1733.66 1158.85M1879.09 1091.73L1826.96 1030.64M1879.09 1091.73L1936.39 1158.85M1879.09 1091.73H2072.29M1642.45 1030.64H1826.96M1642.45 1030.64H1457.95M1642.45 1030.64L1602.74 974.819M1492.71 1091.73L1457.95 1030.64M1492.71 1091.73L1530.91 1158.85M1733.66 1158.85H1936.39M1733.66 1158.85L1786.36 1232.95M1733.66 1158.85H1530.91M1826.96 1030.64L1779.3 974.819M1826.96 1030.64H2011.46M1936.39 1158.85L1999.65 1232.95M1936.39 1158.85H2139.13M2072.29 1091.73L2011.46 1030.64M2072.29 1091.73L2139.13 1158.85M2072.29 1091.73H2174.09M1457.95 1030.64L1426.18 974.819M1602.74 974.819H1779.3M1602.74 974.819H1426.18M1602.74 974.819L1566.31 923.604M1779.3 974.819L1735.58 923.604M1779.3 974.819H1955.86M2011.46 1030.64L1955.86 974.819M2011.46 1030.64H2174.09M1532.76 876.447H1695.33M1532.76 876.447L1501.78 832.885M1532.76 876.447H1370.2M1532.76 876.447L1566.31 923.604M1695.33 876.447L1658.14 832.885M1695.33 876.447L1735.58 923.604M1695.33 876.447H1857.89M1501.78 832.885H1658.14M1501.78 832.885H1345.41M1501.78 832.885L1473.06 792.525M1370.2 876.447L1345.41 832.885M1370.2 876.447L1397.03 923.604M1566.31 923.604H1735.58M1566.31 923.604H1397.03M1658.14 832.885L1623.68 792.525M1658.14 832.885H1814.51M1735.58 923.604H1904.85M1857.89 876.447L1814.51 832.885M1857.89 876.447L1904.85 923.604M1857.89 876.447H2020.45M1345.41 832.885L1322.44 792.525M1473.06 792.525H1623.68M1473.06 792.525H1322.44M1473.06 792.525L1446.39 755.022M1623.68 792.525L1591.67 755.022M1623.68 792.525H1774.32M1814.51 832.885L1774.32 792.525M1814.51 832.885H1970.87M1421.53 720.086H1561.86M1421.53 720.086L1398.33 687.461M1421.53 720.086H1281.21M1421.53 720.086L1446.39 755.022M1561.86 720.086L1534.01 687.461M1561.86 720.086L1591.67 755.022M1561.86 720.086H1702.17M1398.33 687.461H1534.01M1398.33 687.461H1262.64M1398.33 687.461L1376.61 656.926M1281.21 720.086L1262.64 687.461M1281.21 720.086L1301.1 755.022M1446.39 755.022H1591.67M1446.39 755.022H1301.1M1534.01 687.461L1507.94 656.926M1534.01 687.461H1669.68M1591.67 755.022H1736.96M1702.17 720.086L1669.68 687.461M1702.17 720.086L1736.96 755.022M1702.17 720.086H1842.49M1262.64 687.461L1245.28 656.926M1376.61 656.926H1507.94M1376.61 656.926H1245.28M1376.61 656.926L1356.23 628.284M1507.94 656.926L1483.49 628.284M1507.94 656.926H1639.26M1669.68 687.461L1639.26 656.926M1669.68 687.461H1805.36M1337.08 601.366H1460.52M1337.08 601.366L1319.06 576.023M1337.08 601.366H1213.65M1337.08 601.366L1356.23 628.284M1460.52 601.366L1438.88 576.023M1460.52 601.366L1483.49 628.284M1460.52 601.366H1583.94M1319.06 576.023H1438.88M1319.06 576.023H1199.22M1319.06 576.023L1302.04 552.116M1213.65 601.366L1199.22 576.023M1213.65 601.366L1228.98 628.284M1356.23 628.284H1483.49M1356.23 628.284H1228.98M1438.88 576.023L1418.47 552.116M1438.88 576.023H1558.7M1483.49 628.284H1610.74M1583.94 601.366L1558.7 576.023M1583.94 601.366L1610.74 628.284M1583.94 601.366H1707.37M1199.22 576.023L1185.62 552.116M1302.04 552.116H1418.47M1302.04 552.116H1185.62M1302.04 552.116L1285.98 529.532M1418.47 552.116L1399.19 529.532M1418.47 552.116H1534.9M1558.7 576.023L1534.9 552.116M1558.7 576.023H1678.52M1270.78 508.157H1380.95M1270.78 508.157L1256.37 487.903M1270.78 508.157H1160.61M1270.78 508.157L1285.98 529.532M1380.95 508.157L1363.65 487.903M1380.95 508.157L1399.19 529.532M1380.95 508.157H1491.11M1256.37 487.903H1363.65M1256.37 487.903H1149.08M1256.37 487.903L1242.7 468.681M1160.61 508.157L1157.67 502.994L1149.08 487.903M1160.61 508.157L1172.78 529.532M1285.98 529.532H1399.19M1285.98 529.532H1172.78M1363.65 487.903L1347.25 468.681M1363.65 487.903H1470.94M1399.19 529.532H1512.39M1491.11 508.157L1470.94 487.903M1491.11 508.157L1512.39 529.532M1491.11 508.157H1601.28M1149.08 487.903L1138.15 468.681M1242.7 468.681H1347.25M1242.7 468.681H1138.15M1242.7 468.681L1229.7 450.415M1347.25 468.681L1331.66 450.415M1347.25 468.681H1451.8M1470.94 487.903L1451.8 468.681M1470.94 487.903H1578.23M1217.34 433.034H1316.82M1217.34 433.034L1205.56 416.477M1217.34 433.034H1117.86M1217.34 433.034L1229.7 450.415M1316.82 433.034L1302.68 416.477M1316.82 433.034L1331.66 450.415M1316.82 433.034H1416.29M1205.56 416.477H1302.68M1205.56 416.477H1108.44M1205.56 416.477L1194.33 400.686M1117.86 433.034L1108.44 416.477M1117.86 433.034L1127.75 450.415M1229.7 450.415H1331.66M1229.7 450.415H1127.75M1302.68 416.477L1289.21 400.686M1302.68 416.477H1399.81M1331.66 450.415H1433.61M1416.29 433.034L1399.81 416.477M1416.29 433.034L1433.61 450.415M1416.29 433.034H1515.77M1108.44 416.477L1099.44 400.686M1194.33 400.686H1289.21M1194.33 400.686H1099.44M1194.33 400.686L1183.6 385.609M1289.21 400.686L1276.33 385.609M1289.21 400.686H1384.08M1399.81 416.477L1384.08 400.686M1399.81 416.477H1496.93M1173.35 371.198L1174.61 372.965L1175.87 374.74L1183.6 385.609M1173.35 371.198H1264.03M1173.35 371.198L1163.55 357.412M1173.35 371.198H1082.66M1183.6 385.609H1276.33M1183.6 385.609H1090.87M1264.03 371.198L1252.26 357.412M1264.03 371.198L1276.33 385.609M1264.03 371.198H1354.71M1163.55 357.412H1252.26M1163.55 357.412H1074.83M1163.55 357.412L1154.15 344.208M1082.66 371.198L1074.83 357.412M1082.66 371.198L1086.72 378.323L1090.87 385.609M1252.26 357.412L1241 344.208M1252.26 357.412H1340.98M1276.33 385.609H1369.07M1354.71 371.198L1340.98 357.412M1354.71 371.198L1369.07 385.609M1354.71 371.198H1445.39M1074.83 357.412L1067.31 344.208M1154.15 344.208H1241M1154.15 344.208H1067.31M1154.15 344.208L1151.86 340.994L1145.14 331.552M1241 344.208L1236.89 339.4L1235.53 337.813L1230.19 331.552M1241 344.208H1327.84M1340.98 357.412L1327.84 344.208M1340.98 357.412H1429.7M1136.51 319.411H1219.82M1136.51 319.411L1128.21 307.752M1136.51 319.411H1053.2M1136.51 319.411L1145.14 331.552M1219.82 319.411L1213.56 312.07L1209.88 307.752M1219.82 319.411L1230.19 331.552M1219.82 319.411H1303.14M1128.21 307.752H1209.88M1128.21 307.752H1046.56M1128.21 307.752L1121.23 297.924L1120.25 296.549M1053.2 319.411L1048.2 310.623L1046.56 307.752M1053.2 319.411L1055.76 323.904L1060.11 331.552M1145.14 331.552H1230.19M1145.14 331.552H1060.11M1209.88 307.752L1200.31 296.549M1209.88 307.752H1291.53M1230.19 331.552H1315.23M1303.14 319.411L1291.53 307.752M1303.14 319.411L1315.23 331.552M1303.14 319.411H1386.46M1046.56 307.752L1040.19 296.549M1120.25 296.549H1200.31M1120.25 296.549H1040.19M1120.25 296.549L1112.59 285.774M1200.31 296.549L1191.11 285.774M1200.31 296.549H1280.38M1291.53 307.752L1284.5 300.698L1283.12 299.308L1280.38 296.549M1291.53 307.752H1373.18M1105.21 275.406H1182.26M1105.21 275.406L1103.41 272.873L1098.11 265.419M1105.21 275.406H1028.15M1105.21 275.406L1107.03 277.96L1110.72 283.145L1112.59 285.774M1182.26 275.406L1173.74 265.419M1182.26 275.406L1185.55 279.248L1187.75 281.84L1191.11 285.774M1182.26 275.406H1259.32M1098.11 265.419H1173.74M1098.11 265.419H1022.46M1098.11 265.419L1092.94 258.166L1091.25 255.794M1028.15 275.406L1023.17 266.646L1022.46 265.419M1028.15 275.406L1028.88 276.68L1029.61 277.96L1030.34 279.248L1034.06 285.775M1112.59 285.774H1191.11M1112.59 285.774L1034.06 285.775M1173.74 265.419L1170.62 261.768L1168.56 259.361L1165.52 255.794M1173.74 265.419H1249.37M1191.11 285.774H1269.64M1259.32 275.406L1249.37 265.419M1259.32 275.406L1265.72 281.84L1267.03 283.145L1269.64 285.774M1259.32 275.406H1336.37M1022.46 265.419L1016.99 255.794M1091.25 255.794H1165.52M1091.25 255.794H1016.99M1091.25 255.794L1084.65 246.511M1165.52 255.794L1161.53 251.111L1160.53 249.951L1157.59 246.511M1165.52 255.794H1239.79M1249.37 265.419L1239.79 255.794M1249.37 265.419H1325M1078.28 237.552H1149.94M1078.28 237.552L1074.41 232.11L1072.13 228.901M1078.28 237.552L1006.62 237.551M1078.28 237.552L1084.65 246.511M1149.94 237.552L1144.38 231.036L1143.47 229.965L1142.57 228.9M1149.94 237.552L1153.74 241.99L1157.59 246.511M1149.94 237.552H1221.62M1072.13 228.901L1142.57 228.9M1072.13 228.901L1069.13 224.686L1067.65 222.605L1066.91 221.571L1066.18 220.542M1072.13 228.901L1001.69 228.9M1006.62 237.551L1002.9 231.036L1001.69 228.9M1006.62 237.551L1011.71 246.511M1084.65 246.511H1157.59M1084.65 246.511H1011.71M1142.57 228.9H1213M1142.57 228.9L1135.43 220.542M1157.59 246.511H1230.54M1221.62 237.552L1215.13 231.036L1213 228.9M1221.62 237.552L1229.41 245.373L1230.54 246.511M1221.62 237.552H1293.28M1066.18 220.542H1135.43M1066.18 220.542L1061.85 214.455L1060.43 212.461M1066.18 220.542H996.937M1001.69 228.9L999.29 224.686L997.514 221.571L996.937 220.542M1213 228.9H1283.43M1213 228.9L1204.68 220.542M1135.43 220.542H1204.68M2127.25 832.885H1970.87M2127.25 832.885L2075.56 792.525M2127.25 832.885H2174.09M2127.25 832.885L2174.09 869.475M1970.87 832.885L1924.94 792.525M1970.87 832.885L2020.45 876.447M2075.56 792.525L2027.54 755.022M2075.56 792.525H1924.94M2075.56 792.525H2174.09M2174.09 832.885V792.525M2174.09 832.885V869.475M2174.09 869.475V876.447M1982.81 720.086H2123.13M1982.81 720.086L1941.03 687.461M1982.81 720.086H1842.49M1982.81 720.086L2027.54 755.022M2123.13 720.086L2076.72 687.461M2123.13 720.086L2172.83 755.022M2123.13 720.086H2174.09M1941.03 687.461H2076.72M1941.03 687.461H1805.36M1941.03 687.461L1901.93 656.926M1842.49 720.086L1805.36 687.461M1842.49 720.086L1882.26 755.022M2027.54 755.022H2172.83M2027.54 755.022H1882.26M2076.72 687.461L2033.26 656.926M2076.72 687.461H2174.09M2172.83 755.022H2174.09M2172.83 755.022L2174.09 755.908M2174.09 720.086V687.461M2174.09 720.086V755.022M1805.36 687.461L1770.61 656.926M1901.93 656.926H2033.26M1901.93 656.926H1770.61M1901.93 656.926L1865.26 628.284M2033.26 656.926L1992.52 628.284M2033.26 656.926H2164.6M2174.09 687.461V662.991M1830.79 601.366H1954.23M1830.79 601.366L1798.35 576.023M1830.79 601.366H1707.37M1830.79 601.366L1865.26 628.284M1954.23 601.366L1918.17 576.023M1954.23 601.366L1992.52 628.284M1954.23 601.366H2077.66M1798.35 576.023H1918.17M1798.35 576.023H1678.52M1798.35 576.023L1767.74 552.116M1707.37 601.366L1678.52 576.023M1707.37 601.366L1738.01 628.284M1865.26 628.284H1992.52M1865.26 628.284H1738.01M1918.17 576.023L1884.16 552.116M1918.17 576.023H2037.99M1992.52 628.284H2119.78M2077.66 601.366L2037.99 576.023M2077.66 601.366L2119.78 628.284M2077.66 601.366H2174.09M1678.52 576.023L1651.32 552.116M1767.74 552.116H1884.16M1767.74 552.116H1651.32M1767.74 552.116L1738.82 529.532M1884.16 552.116L1852.02 529.532M1884.16 552.116H2000.58M2037.99 576.023L2000.58 552.116M2037.99 576.023H2157.81M1711.45 508.157H1821.62M1711.45 508.157L1685.52 487.903M1711.45 508.157H1601.28M1711.45 508.157L1738.82 529.532M1821.62 508.157L1792.8 487.903M1821.62 508.157L1852.02 529.532M1821.62 508.157H1931.78M1685.52 487.903H1792.8M1685.52 487.903H1578.23M1685.52 487.903L1660.9 468.681M1601.28 508.157L1578.23 487.903M1601.28 508.157L1625.61 529.532M1738.82 529.532H1852.02M1738.82 529.532H1625.61M1792.8 487.903L1765.45 468.681M1792.8 487.903H1900.08M1852.02 529.532H1965.24M1931.78 508.157L1900.08 487.903M1931.78 508.157L1965.24 529.532M1931.78 508.157H2041.95M1578.23 487.903L1556.35 468.681M1660.9 468.681H1765.45M1660.9 468.681H1556.35M1660.9 468.681L1637.51 450.415M1765.45 468.681L1739.46 450.415M1765.45 468.681H1870M1900.08 487.903L1870 468.681M1900.08 487.903H2007.37M1615.26 433.034H1714.74M1615.26 433.034L1594.06 416.477M1615.26 433.034H1515.77M1615.26 433.034L1637.51 450.415M1714.74 433.034L1691.18 416.477M1714.74 433.034L1739.46 450.415M1714.74 433.034H1814.22M1594.06 416.477H1691.18M1594.06 416.477H1496.93M1594.06 416.477L1573.84 400.686M1515.77 433.034L1496.93 416.477M1515.77 433.034L1535.56 450.415M1637.51 450.415H1739.46M1637.51 450.415H1535.56M1691.18 416.477L1668.72 400.686M1691.18 416.477H1788.3M1739.46 450.415H1841.41M1814.22 433.034L1788.3 416.477M1814.22 433.034L1841.41 450.415M1814.22 433.034H1913.7M1496.93 416.477L1478.96 400.686M1573.84 400.686H1668.72M1573.84 400.686H1478.96M1573.84 400.686L1554.53 385.609M1668.72 400.686L1647.26 385.609M1668.72 400.686H1763.59M1788.3 416.477L1763.59 400.686M1788.3 416.477H1885.43M1536.08 371.198H1626.76M1536.08 371.198L1518.43 357.412M1536.08 371.198H1445.39M1536.08 371.198L1554.53 385.609M1626.76 371.198L1607.15 357.412M1626.76 371.198L1647.26 385.609M1626.76 371.198H1717.44M1518.43 357.412H1607.15M1518.43 357.412H1429.7M1518.43 357.412L1501.52 344.208M1445.39 371.198L1429.7 357.412M1445.39 371.198L1461.8 385.609M1554.53 385.609H1647.26M1554.53 385.609H1461.8M1607.15 357.412L1588.36 344.208M1607.15 357.412H1695.87M1647.26 385.609H1740M1717.44 371.198L1695.87 357.412M1717.44 371.198L1740 385.609M1717.44 371.198H1808.13M1429.7 357.412L1414.68 344.208M1501.52 344.208H1588.36M1501.52 344.208H1414.68M1501.52 344.208L1485.32 331.552M1588.36 344.208L1570.36 331.552M1588.36 344.208H1675.21M1695.87 357.412L1675.21 344.208M1695.87 357.412H1784.58M1469.77 319.411H1553.08M1469.77 319.411L1454.84 307.752M1469.77 319.411H1386.46M1469.77 319.411L1485.32 331.552M1553.08 319.411L1536.5 307.752M1553.08 319.411L1570.36 331.552M1553.08 319.411H1636.4M1454.84 307.752H1536.5M1454.84 307.752H1373.18M1454.84 307.752L1440.5 296.549M1386.46 319.411L1373.18 307.752M1386.46 319.411L1400.27 331.552M1485.32 331.552H1570.36M1485.32 331.552H1400.27M1536.5 307.752L1520.55 296.549M1536.5 307.752H1618.15M1570.36 331.552H1655.4M1636.4 319.411L1618.15 307.752M1636.4 319.411L1655.4 331.552M1636.4 319.411H1719.71M1373.18 307.752L1360.44 296.549M1440.5 296.549H1520.55M1440.5 296.549H1360.44M1440.5 296.549L1426.7 285.774M1520.55 296.549L1507.11 287.1L1505.23 285.774M1520.55 296.549H1600.61M1618.15 307.752L1600.61 296.549M1618.15 307.752H1699.81M1413.43 275.406H1490.48M1413.43 275.406L1400.64 265.419M1413.43 275.406H1336.37M1413.43 275.406L1416.7 277.96L1418.35 279.248L1426.7 285.774M1490.48 275.406L1476.27 265.419M1490.48 275.406L1505.23 285.774M1490.48 275.406H1567.53M1400.64 265.419H1476.27M1400.64 265.419H1325M1400.64 265.419L1388.32 255.794M1336.37 275.406L1325 265.419M1336.37 275.406L1348.17 285.775M1426.7 285.774H1505.23M1426.7 285.774L1348.17 285.775M1476.27 265.419L1462.58 255.794M1476.27 265.419H1551.9M1505.23 285.774H1583.76M1567.53 275.406L1551.9 265.419M1567.53 275.406L1583.76 285.774M1567.53 275.406H1644.58M1325 265.419L1314.05 255.794M1388.32 255.794H1462.58M1388.32 255.794H1314.05M1388.32 255.794L1376.42 246.511M1462.58 255.794L1449.37 246.511M1462.58 255.794H1536.84M1551.9 265.419L1536.84 255.794M1551.9 265.419H1627.53M1364.95 237.552H1436.62M1364.95 237.552L1353.88 228.9M1364.95 237.552H1293.28M1364.95 237.552L1376.42 246.511M1436.62 237.552L1427.35 231.036L1425.83 229.965L1424.31 228.9M1436.62 237.552L1449.37 246.511M1436.62 237.552H1508.29M1353.88 228.9H1424.31M1353.88 228.9L1344.49 221.571L1343.17 220.542M1353.88 228.9H1283.43M1293.28 237.552L1283.43 228.9M1293.28 237.552L1303.48 246.511M1376.42 246.511H1449.37M1376.42 246.511H1303.48M1424.31 228.9H1494.75M1424.31 228.9L1412.42 220.542M1449.37 246.511H1522.31M1508.29 237.552L1494.75 228.9M1508.29 237.552L1522.31 246.511M1508.29 237.552H1579.96M1343.17 220.542H1412.42M1343.17 220.542H1273.93M1283.43 228.9L1276.27 222.605L1273.93 220.542M1494.75 228.9H1565.19M1494.75 228.9L1481.67 220.542M1412.42 220.542H1481.67M2152.12 508.157L2114.66 487.903M2152.12 508.157H2041.95M2152.12 508.157L2174.09 520.039M2152.12 508.157H2174.09M2114.66 487.903H2007.37M2114.66 487.903L2079.11 468.681M2114.66 487.903H2174.09M2041.95 508.157L2007.37 487.903M2041.95 508.157L2078.44 529.532M2174.09 520.039V508.157M2174.09 520.039V529.532M2174.09 508.157V487.903M2007.37 487.903L1974.55 468.681M2079.11 468.681L2045.33 450.415M2079.11 468.681H1974.55M2079.11 468.681H2174.09M2174.09 487.903V468.681M2013.18 433.034H2112.66M2013.18 433.034L1982.55 416.477M2013.18 433.034H1913.7M2013.18 433.034L2045.33 450.415M2112.66 433.034L2079.68 416.477M2112.66 433.034L2147.28 450.415M2112.66 433.034H2174.09M1982.55 416.477H2079.68M1982.55 416.477H1885.43M1982.55 416.477L1953.34 400.686M1913.7 433.034L1885.43 416.477M1913.7 433.034L1943.37 450.415M2045.33 450.415H2147.28M2045.33 450.415H1943.37M2079.68 416.477L2048.23 400.686M2079.68 416.477H2174.09M2147.28 450.415L2174.09 463.88M2147.28 450.415H2174.09M2174.09 433.034H2174.83M2174.09 433.034V416.477M2174.09 433.034V450.415M1885.43 416.477L1858.47 400.686M1953.34 400.686H2048.23M1953.34 400.686H1858.47M1953.34 400.686L1925.46 385.609M2048.23 400.686L2018.2 385.609M2048.23 400.686H2143.1M2174.09 416.477V415.208M1898.81 371.198H1989.49M1898.81 371.198L1873.31 357.412M1898.81 371.198H1808.13M1898.81 371.198L1925.46 385.609M1989.49 371.198L1962.03 357.412M1989.49 371.198L2018.2 385.609M1989.49 371.198H2080.17M1873.31 357.412H1962.03M1873.31 357.412H1784.58M1873.31 357.412L1848.89 344.208M1808.13 371.198L1784.58 357.412M1808.13 371.198L1832.73 385.609M1925.46 385.609H2018.2M1925.46 385.609H1832.73M1962.03 357.412L1935.73 344.208M1962.03 357.412H2050.75M2018.2 385.609H2110.93M2080.17 371.198L2050.75 357.412M2080.17 371.198L2110.93 385.609M2080.17 371.198H2170.86M1784.58 357.412L1762.05 344.208M1848.89 344.208H1935.73M1848.89 344.208H1762.05M1848.89 344.208L1825.48 331.552M1935.73 344.208L1910.52 331.552M1935.73 344.208H2022.57M2050.75 357.412L2022.57 344.208M2050.75 357.412H2139.47M1803.02 319.411H1886.34M1803.02 319.411L1781.46 307.752M1803.02 319.411H1719.71M1803.02 319.411L1825.48 331.552M1886.34 319.411L1863.12 307.752M1886.34 319.411L1910.52 331.552M1886.34 319.411H1969.65M1781.46 307.752H1863.12M1781.46 307.752H1699.81M1781.46 307.752L1760.74 296.549M1719.71 319.411L1699.81 307.752M1719.71 319.411L1740.45 331.552M1825.48 331.552H1910.52M1825.48 331.552H1740.45M1863.12 307.752L1840.8 296.549M1863.12 307.752H1944.78M1910.52 331.552H1995.57M1969.65 319.411L1944.78 307.752M1969.65 319.411L1995.57 331.552M1969.65 319.411H2052.97M1699.81 307.752L1680.69 296.549M1760.74 296.549H1840.8M1760.74 296.549H1680.69M1760.74 296.549L1740.82 285.774M1840.8 296.549L1819.34 285.774M1840.8 296.549H1920.86M1944.78 307.752L1920.86 296.549M1944.78 307.752H2026.43M1721.63 275.406H1798.69M1721.63 275.406L1703.17 265.419M1721.63 275.406H1644.58M1721.63 275.406L1740.82 285.774M1798.69 275.406L1778.8 265.419M1798.69 275.406L1819.34 285.774M1798.69 275.406H1875.74M1703.17 265.419H1778.8M1703.17 265.419H1627.53M1703.17 265.419L1685.37 255.794M1644.58 275.406L1629.63 266.646L1627.53 265.419M1644.58 275.406L1662.29 285.775M1740.82 285.774H1819.34M1740.82 285.774L1662.29 285.775M1778.8 265.419L1759.63 255.794M1778.8 265.419H1854.43M1819.34 285.774H1897.87M1875.74 275.406L1854.43 265.419M1875.74 275.406L1897.87 285.774M1875.74 275.406H1952.8M1627.53 265.419L1611.11 255.794M1685.37 255.794H1759.63M1685.37 255.794H1611.11M1685.37 255.794L1668.19 246.511M1759.63 255.794L1741.14 246.511M1759.63 255.794H1833.9M1854.43 265.419L1833.9 255.794M1854.43 265.419H1930.06M1651.63 237.552H1723.29M1651.63 237.552L1635.63 228.9M1651.63 237.552H1579.96M1651.63 237.552L1668.19 246.511M1723.29 237.552L1706.06 228.9M1723.29 237.552L1741.14 246.511M1723.29 237.552H1794.97M1635.63 228.9H1706.06M1635.63 228.9L1620.16 220.542M1635.63 228.9H1565.19M1579.96 237.552L1565.19 228.9M1579.96 237.552L1595.26 246.511M1668.19 246.511H1741.14M1668.19 246.511H1595.26M1706.06 228.9H1776.5M1706.06 228.9L1689.41 220.542M1741.14 246.511H1814.08M1794.97 237.552L1776.5 228.9M1794.97 237.552L1814.08 246.511M1794.97 237.552H1866.63M1620.16 220.542H1689.41M1620.16 220.542H1550.92M1565.19 228.9L1550.92 220.542M1776.5 228.9H1846.94M1776.5 228.9L1758.66 220.542M1689.41 220.542H1758.66M2136.29 319.411L2108.08 307.752M2136.29 319.411H2052.97M2136.29 319.411L2165.65 331.552M2136.29 319.411H2174.09M2108.08 307.752H2026.43M2108.08 307.752L2080.99 296.549M2108.08 307.752H2174.09M2052.97 319.411L2026.43 307.752M2052.97 319.411L2080.61 331.552M2165.65 331.552H2080.61M2165.65 331.552H2174.09M2165.65 331.552L2174.09 335.043M2174.09 319.411V307.752M2174.09 319.411V331.552M2026.43 307.752L2000.92 296.549M2080.99 296.549H2161.05M2080.99 296.549H2000.92M2080.99 296.549L2054.93 285.774M2174.09 307.752V301.641M2029.85 275.406H2106.91M2029.85 275.406L2005.69 265.419M2029.85 275.406H1952.8M2029.85 275.406L2054.93 285.774M2106.91 275.406L2081.34 265.419M2106.91 275.406L2133.46 285.774M2106.91 275.406H2174.09M2005.69 265.419H2081.34M2005.69 265.419H1930.06M2005.69 265.419L1982.42 255.794M1952.8 275.406L1930.06 265.419M1952.8 275.406L1976.4 285.774M2054.93 285.774H2133.46M2054.93 285.774H1976.4M2081.34 265.419L2056.69 255.794M2081.34 265.419H2156.97M2133.46 285.774L2161.05 296.549M2133.46 285.774H2174.09M2174.09 275.406H2174.33M2174.09 275.406V271.754M2174.09 275.406V285.774M1930.06 265.419L1908.16 255.794M1982.42 255.794H2056.69M1982.42 255.794H1908.16M1982.42 255.794L1959.96 246.511M2056.69 255.794L2032.91 246.511M2056.69 255.794H2130.95M2156.97 265.419L2130.95 255.794M2156.97 265.419L2174.09 271.754M2156.97 265.419H2174.09M1938.3 237.552H2009.97M1938.3 237.552L1917.38 228.9M1938.3 237.552H1866.63M1938.3 237.552L1959.96 246.511M2009.97 237.552L1987.81 228.9M2009.97 237.552L2032.91 246.511M2009.97 237.552H2081.64M1917.38 228.9H1987.81M1917.38 228.9L1897.17 220.542M1917.38 228.9H1846.94M1866.63 237.552L1846.94 228.9M1866.63 237.552L1887.03 246.511M1959.96 246.511H2032.91M1959.96 246.511H1887.03M1987.81 228.9H2058.26M1987.81 228.9L1966.41 220.542M2032.91 246.511H2105.85M2081.64 237.552L2058.26 228.9M2081.64 237.552L2105.85 246.511M2081.64 237.552H2153.3M1897.17 220.542H1966.41M1897.17 220.542H1827.92M1846.94 228.9L1827.92 220.542M2058.26 228.9H2128.69M2058.26 228.9L2035.66 220.542M1966.41 220.542H2035.66M2105.85 246.511L2130.95 255.794M2105.85 246.511H2174.09M2153.3 237.552L2128.69 228.9M2153.3 237.552L2174.09 244.857M2153.3 237.552H2174.09M2128.69 228.9L2104.91 220.542M2128.69 228.9H2174.09M2035.66 220.542H2104.91M2035.66 220.542L2013.81 212.461H2081.91L2104.91 220.542M2130.95 255.794H2174.09M2174.09 246.511V244.857M2174.09 246.511V255.794M2174.09 244.857V237.552M2174.09 237.552V228.9M2104.91 220.542H2174.09M2174.09 228.9V220.542M2174.09 220.542H2174.16L2174.09 220.523M2174.09 220.542V220.523M2174.09 271.754V265.419M2174.09 265.419V255.794M1908.16 255.794L1887.03 246.511M1908.16 255.794H1833.9M1887.03 246.511H1814.08M2161.05 296.549L2174.09 301.641M2161.05 296.549H2174.09M2174.09 285.774V296.549M2174.09 301.641V296.549M2000.92 296.549L1976.4 285.774M2000.92 296.549H1920.86M1976.4 285.774H1897.87M1814.08 246.511L1833.9 255.794M1758.66 220.542H1827.92M1758.66 220.542L1741.42 212.461M1827.92 220.542L1809.51 212.461H1741.42M1611.11 255.794L1595.26 246.511M1611.11 255.794H1536.84M1595.26 246.511H1522.31M1897.87 285.774L1920.86 296.549M1680.69 296.549L1662.29 285.775M1680.69 296.549H1600.61M1662.29 285.775L1583.76 285.774M1995.57 331.552L2022.57 344.208M1995.57 331.552H2080.61M2080.61 331.552L2109.42 344.208M2022.57 344.208H2109.42M2109.42 344.208L2139.47 357.412M2109.42 344.208H2174.09M2174.09 331.552V335.043M2174.09 335.043V344.208M2139.47 357.412L2170.86 371.198M2139.47 357.412H2174.09M1762.05 344.208L1740.45 331.552M1762.05 344.208H1675.21M2174.09 344.208H2174.55M2174.09 344.208V357.412M1740.45 331.552H1655.4M2110.93 385.609L2143.1 400.686M2110.93 385.609H2174.09M2170.86 371.198L2174.09 372.62M2170.86 371.198H2174.09M2174.09 357.412V371.198M2174.09 372.62L2174.88 372.965M2174.09 372.62V371.198M2174.09 372.62V385.609M2143.1 400.686H2174.09M2143.1 400.686L2174.09 415.208M2174.09 385.609V400.686M2174.09 400.686V415.208M1858.47 400.686L1832.73 385.609M1858.47 400.686H1763.59M1832.73 385.609H1740M2174.09 463.88L2174.39 464.027M2174.09 463.88V450.415M2174.09 463.88V468.681M1943.37 450.415H1841.41M1943.37 450.415L1974.55 468.681M1522.31 246.511L1536.84 255.794M1481.67 220.542H1550.92M1481.67 220.542L1469.03 212.461M1469.03 212.461H1400.93H1332.82H1264.73M1314.05 255.794L1303.48 246.511M1314.05 255.794H1239.79M1303.48 246.511H1230.54M1583.76 285.774L1600.61 296.549M1360.44 296.549L1348.17 285.775M1360.44 296.549H1280.38M1348.17 285.775L1269.64 285.774M1655.4 331.552L1675.21 344.208M1414.68 344.208L1400.27 331.552M1414.68 344.208H1327.84M1400.27 331.552H1315.23M1740 385.609L1763.59 400.686M1478.96 400.686L1461.8 385.609M1478.96 400.686H1384.08M1461.8 385.609H1369.07M1841.41 450.415L1870 468.681M1870 468.681H1974.55M1556.35 468.681L1535.56 450.415M1556.35 468.681H1451.8M1535.56 450.415H1433.61M1965.24 529.532L2000.58 552.116M1965.24 529.532H2078.44M2078.44 529.532L2117 552.116M2078.44 529.532H2174.09M2000.58 552.116H2117M2117 552.116L2157.81 576.023M2117 552.116H2174.09M2174.09 529.532V552.116M2157.81 576.023H2174.09M2157.81 576.023L2174.09 585.558M1651.32 552.116L1625.61 529.532M1651.32 552.116H1534.9M2174.09 552.116V576.023M1625.61 529.532H1512.39M2119.78 628.284L2164.6 656.926M2119.78 628.284H2174.09M2174.09 601.366V585.558M2174.09 601.366V628.284M2174.09 576.023V585.558M2164.6 656.926L2174.09 662.991M2164.6 656.926H2174.09M2174.09 628.284V656.926M2174.09 662.991V656.926M1770.61 656.926L1738.01 628.284M1770.61 656.926H1639.26M1738.01 628.284H1610.74M2174.09 755.022V755.908M2174.09 755.908V792.525M1882.26 755.022H1736.96M1882.26 755.022L1924.94 792.525M1230.54 246.511L1232.82 248.799L1239.79 255.794M1204.68 220.542H1273.93M1204.68 220.542L1196.63 212.461M1273.93 220.542L1270.44 217.48L1264.73 212.46M1196.63 212.461H1128.53H1060.43M1196.63 212.461H1264.73M1016.99 255.794L1015.65 253.441L1011.71 246.511M1016.99 255.794H942.726M1011.71 246.511H938.769M1269.64 285.774L1280.38 296.549M1040.19 296.549L1039.4 295.179L1038.63 293.816L1034.06 285.775M1040.19 296.549H960.126M1034.06 285.775L955.527 285.774M1315.23 331.552L1327.84 344.208M1067.31 344.208L1060.11 331.552M1067.31 344.208H980.467M1060.11 331.552H975.066M1369.07 385.609L1384.08 400.686M1099.44 400.686L1090.87 385.609M1099.44 400.686H1004.57M1090.87 385.609H998.134M1433.61 450.415L1451.8 468.681M1138.15 468.681L1127.75 450.415M1138.15 468.681H1033.6M1127.75 450.415H1025.8M1512.39 529.532L1534.9 552.116M1185.62 552.116L1172.78 529.532M1185.62 552.116H1069.2M1172.78 529.532H1059.56M1610.74 628.284L1639.26 656.926M1245.28 656.926L1228.98 628.284M1245.28 656.926H1113.94M1228.98 628.284H1101.71M1736.96 755.022L1774.32 792.525M1774.32 792.525H1924.94M1322.44 792.525L1301.1 755.022M1322.44 792.525H1171.81M1301.1 755.022H1155.8M1904.85 923.604L1955.86 974.819M1904.85 923.604H2074.13M2020.45 876.447L2074.13 923.604M2020.45 876.447H2174.09M2074.13 923.604L2132.42 974.819M2074.13 923.604H2174.09M2174.09 876.447V923.604M1955.86 974.819H2132.42M2132.42 974.819H2174.09M2132.42 974.819L2174.09 1011.43M2174.09 923.604V974.819M2174.09 1030.64V1011.43M2174.09 1030.64V1091.73M1426.18 974.819L1397.03 923.604M1426.18 974.819H1249.62M2174.09 974.819V1011.43M1397.03 923.604H1227.76M2139.13 1158.85L2174.09 1193.95M2139.13 1158.85H2174.09M2174.09 1091.73V1158.85M1999.65 1232.95H1786.36M1999.65 1232.95L2174.09 1232.95M2174.09 1193.95V1158.85M2174.09 1193.95V1232.95M1786.36 1232.95H1573.08M2174.09 1232.95V1233.21H-734.217V1232.95M1573.08 1232.95L1530.91 1158.85M1573.08 1232.95H1359.79M1530.91 1158.85H1328.17M938.769 246.511L939.25 247.653L939.742 248.799L940.234 249.951L940.726 251.111L942.726 255.794M927.678 220.542L927.251 219.516L926.374 217.48L925.518 215.459L925.09 214.455L924.235 212.461M927.678 220.542H996.937M856.132 212.461H924.235M996.937 220.542L992.905 213.456L992.327 212.461M924.235 212.461H992.327M1060.43 212.461H992.327M719.936 255.794V246.511M719.936 255.794H645.673M719.936 246.511H646.999M955.527 285.774L960.126 296.549M719.936 296.549V285.775M719.936 296.549H639.876M719.936 285.775L641.405 285.774M975.066 331.552L980.467 344.208M719.936 344.208V331.552M719.936 344.208H633.096M719.936 331.552H634.892M998.134 385.609L1004.57 400.686M719.936 400.686V385.609M719.936 400.686H625.064M719.936 385.609H627.203M1025.8 450.415L1033.6 468.681M719.936 468.681V450.415M719.936 468.681H615.386M719.936 450.415H617.984M1059.56 529.532L1069.2 552.116M719.936 552.116V529.532M719.936 552.116H603.514M719.936 529.532H606.734M1101.71 628.284L1113.94 656.926M719.936 656.926V628.284M719.936 656.926H588.606M719.936 628.284H592.681M1155.8 755.022L1171.81 792.525M719.936 792.525V755.022M719.936 792.525H569.313M719.936 755.022H574.65M1227.76 923.604L1249.62 974.819M719.936 974.819V923.604M719.936 974.819H543.379M719.936 923.604H550.662M1328.17 1158.85L1359.79 1232.95M1146.51 1232.95H1359.79M1146.51 1232.95H933.229M933.229 1232.95H719.936M719.936 1232.95V1158.85M719.936 1232.95H506.654M719.936 1158.85H517.198M646.999 246.511L646.828 247.653L646.667 248.799L646.507 249.951L645.673 255.794M650.688 220.542H719.936M719.936 220.542V212.461M422.883 255.794L424.22 253.441L428.166 246.511M422.883 255.794H348.619M428.166 246.511H355.229M641.405 285.774L639.876 296.549M399.686 296.549L405.825 285.773M399.686 296.549L319.63 296.548M634.892 331.552L634.454 334.666L633.556 340.994L633.096 344.208M372.565 344.208L379.773 331.552M372.565 344.208L285.727 344.207M372.565 344.208L365.057 357.411M379.773 331.552L294.73 331.551M627.203 385.609L625.064 400.686M340.427 400.686L349.004 385.608M340.427 400.686L245.551 400.685M617.984 450.415L615.386 468.681M606.734 529.532L603.514 552.116M254.251 552.116L267.104 529.532M254.251 552.116H137.83M267.104 529.532H153.896M592.681 628.284L588.606 656.926M194.607 656.926L210.905 628.284M194.607 656.926H63.2737M210.905 628.284H83.6469M574.65 755.022L569.313 792.525M117.44 792.525L138.781 755.022M117.44 792.525H-33.1852M138.781 755.022H-6.50754M550.662 923.604L543.379 974.819M13.6978 974.819L42.8449 923.604M13.6978 974.819H-162.863M42.8449 923.604H-126.429M517.198 1158.85L506.654 1232.95M293.37 1232.95H506.654M293.37 1232.95H80.0845M80.0845 1232.95H-133.201M-133.201 1232.95L-91.0301 1158.85M-133.201 1232.95H-346.484M-91.0301 1158.85H-293.771M355.229 246.511L348.619 255.794M373.698 220.542H442.946M373.698 220.542L378.03 214.455L379.441 212.461M125.83 255.794H51.5663M136.395 246.511H63.4533M136.395 246.511L146.593 237.552M136.395 246.511L125.831 255.794M327.294 285.773L319.63 296.548M327.294 285.773H405.825M79.4439 296.548L90.2005 287.1L91.7053 285.774M79.4439 296.548L-0.618003 296.549M91.7053 285.774L13.1769 285.773M294.73 331.551L285.727 344.207M285.727 344.207L276.335 357.411M276.335 357.411H365.057M25.1988 344.207L39.6044 331.551M25.1988 344.207L-61.6424 344.208M39.6044 331.551L-45.438 331.552M256.277 385.608H163.544M256.277 385.608L245.551 400.685M256.277 385.608H349.004M163.544 385.608H70.8112M70.8112 385.608H-21.9216M222.539 433.033L210.176 450.414M222.539 433.033H322.02M-39.0822 400.685L-21.9216 385.609M-39.0822 400.685L-133.959 400.686M210.176 450.414H108.223M210.176 450.414L197.182 468.68M210.176 450.414H312.128M322.02 433.033L312.128 450.414M312.128 450.414L301.733 468.68M108.223 450.414L92.6292 468.68M108.223 450.414H6.27148M92.6292 468.68H197.182M92.6292 468.68H-11.9211M6.27148 450.414L-11.9211 468.68M6.27148 450.414H-95.6823M197.182 468.68L183.509 487.902M197.182 468.68H301.733M301.733 468.68L290.795 487.902M-11.9211 468.68H-116.471M183.509 487.902L169.1 508.156M183.509 487.902H290.795M169.1 508.156L153.896 529.531M169.1 508.156H279.267M290.795 487.902L279.267 508.156M279.267 508.156L267.104 529.531M153.896 529.532L137.83 552.116M-211.435 552.116L-185.729 529.532M-211.435 552.116H-327.858M-185.729 529.532H-298.938M83.6469 628.284L63.2737 656.926M-330.725 656.926L-298.128 628.284M-330.725 656.926H-462.058M-298.128 628.284H-425.386M-6.50754 755.022L-33.1852 792.525M-485.06 792.525L-442.377 755.022M-485.06 792.525H-635.686M-442.377 755.022H-587.665M-126.429 923.604L-162.863 974.819M-692.544 974.819L-634.25 923.604M-692.544 974.819H-734.217M-692.544 974.819L-734.217 1011.43M-634.25 923.604H-734.217M-293.771 1158.85L-346.484 1232.95M-559.77 1232.95H-346.484M-559.77 1232.95L-734.217 1232.95M-734.217 1232.95V1193.95M-734.217 1193.95V1158.85M-9.48915 246.511L-22.6959 255.794M-9.48915 246.511H63.4533M63.4533 246.511L74.9255 237.552M63.4533 246.511L51.5674 255.794M74.9255 237.552L86.0018 228.9M74.9255 237.552H146.593M86.0018 228.9L96.705 220.542M96.705 220.542L98.0172 219.516L107.053 212.46M-171.224 255.793L-155.375 246.51M-171.224 255.793L-245.487 255.794M-155.375 246.51L-228.318 246.511M13.1769 285.773L-0.618003 296.549M-240.804 296.549L-222.41 285.773M-240.804 296.549L-320.866 296.548M-143.881 285.775H-222.41M-45.438 331.552L-61.6424 344.208M-322.169 344.208L-300.563 331.552M-322.169 344.208L-409.012 344.207M-322.169 344.208L-344.71 357.411M-300.563 331.552L-385.604 331.551M-114.655 385.609L-133.959 400.686M-114.655 385.609H-21.9216M-418.593 400.686L-392.852 385.608M-418.593 400.686L-513.47 400.685M-197.635 450.415L-221.024 468.681M-197.635 450.415H-95.6823M-95.6823 450.415L-116.471 468.681M-221.024 468.681H-116.471M-534.678 468.681L-503.492 450.415M-534.678 468.681H-639.23M-503.492 450.415H-605.446M-298.938 529.532L-327.858 552.116M-677.123 552.116L-638.564 529.532M-677.123 552.116L-717.937 576.023M-677.123 552.116H-734.217M-425.386 628.284L-462.058 656.926M-542.931 720.086L-587.665 755.022M-734.216 656.926V662.991M-734.216 656.926L-734.217 628.284M-679.901 628.284H-734.217M-587.665 755.022L-635.686 792.525M-734.217 755.022V755.908M-734.217 755.908V792.525M-635.686 792.525L-687.366 832.885M-635.686 792.525H-734.217M-687.366 832.885H-734.217M-687.366 832.885L-734.217 869.475M-734.217 832.885V869.475M-734.217 832.885V792.525M-734.217 869.475L-734.216 876.447M-734.216 876.447L-734.217 923.604M-734.217 923.604V974.819M-734.217 974.819V1011.43M-228.318 246.511L-245.487 255.794M-180.289 220.542H-111.042M-111.042 220.542L-109.292 219.514L-97.2448 212.459M-468.278 255.794L-447.146 246.511M-468.278 255.794H-542.541M-447.146 246.511H-520.089M-300.939 285.773L-320.866 296.548M-300.939 285.773H-222.41M-561.051 296.548L-536.525 285.774M-561.051 296.548L-641.113 296.549M-536.525 285.774L-615.055 285.773M-385.604 331.551L-409.012 344.207M-409.012 344.207L-433.433 357.411M-433.433 357.411H-344.71M-669.538 344.207L-734.217 344.208M-485.585 385.608H-578.318M-485.585 385.608L-513.47 400.685M-485.585 385.608H-392.852M-578.318 385.608L-608.347 400.685H-513.47M-578.318 385.608H-671.05M-734.217 385.609V372.62M-605.446 450.415L-639.23 468.681M-734.217 450.415V463.88M-734.217 463.88L-734.512 464.027M-734.217 463.88V468.681M-639.23 468.681L-674.781 487.903M-639.23 468.681H-734.217M-674.781 487.903L-712.243 508.157M-674.781 487.903H-734.217M-712.243 508.157H-734.217M-712.243 508.157L-734.217 520.039M-734.217 487.903V508.157M-734.217 487.903V468.681M-734.217 508.157V520.039M-734.217 520.039L-734.216 529.532M-638.563 529.532H-734.216M-734.216 529.532L-734.217 552.116M-717.937 576.023H-734.217M-717.937 576.023L-734.217 585.558M-734.217 576.023V585.558M-734.217 576.023V552.116M-520.089 246.511L-542.541 255.794M-457.284 220.542H-388.035M-457.284 220.542L-437.737 212.461M-505.837 212.461H-437.737M-589.975 275.406L-615.055 285.773M-734.217 255.794V246.511M-734.217 246.511V244.857M-615.055 285.773L-693.583 285.774H-734.217M-615.055 285.773L-641.113 296.549M-693.584 285.773L-721.175 296.549M-721.175 296.549H-641.113M-721.175 296.549L-734.217 301.641M-721.175 296.549H-734.217M-734.217 285.774V296.549M-641.113 296.549L-668.209 307.752M-668.209 307.752L-696.404 319.411M-668.209 307.752H-586.553M-668.209 307.752H-734.216M-696.404 319.411L-725.773 331.552M-696.404 319.411H-734.217M-734.216 307.752L-734.217 319.411M-734.216 307.752L-734.217 301.641M-734.217 301.641V296.549M-725.773 331.552L-734.217 335.043M-725.773 331.552H-734.217M-734.217 319.411V331.552M-734.217 335.043V344.208M-734.217 335.043V331.552M-734.217 357.412V371.198M-734.217 357.412V344.208M-734.217 344.208H-734.672M-734.217 371.198V372.62M-734.217 372.62L-735 372.965M-734.217 237.552V244.857M-734.217 237.552V228.9M-665.027 220.542L-642.034 212.461H-710.132M-665.027 220.542H-734.217M-734.217 228.9V220.542M-734.217 220.542H-734.276L-734.217 220.522M-734.217 220.542V220.522M788.039 212.46H719.936M-29.1469 212.461H-97.2448M-710.132 212.461L-734.217 220.522M-710.133 212.46H-734.216M2174.09 220.523V212.461" stroke="url(#paint0_linear_68_54)" stroke-width="1.28335" stroke-miterlimit="10" stroke-linecap="round" stroke-linejoin="round"/>
</g>
</g>
<defs>
<linearGradient id="paint0_linear_68_54" x1="719.936" y1="197.077" x2="719.936" y2="923.537" gradientUnits="userSpaceOnUse">
<stop stop-color="white" stop-opacity="0"/>
<stop offset="1" stop-color="white"/>
</linearGradient>
<clipPath id="clip0_68_54">
<rect width="2910" height="1635" fill="white" transform="translate(-735 -102.27)"/>
</clipPath>
<clipPath id="clip1_68_54">
<rect width="2910" height="1036.31" fill="white" transform="translate(-735 197.077)"/>
</clipPath>
</defs>
</svg>
