<svg width="60" height="62" viewBox="0 0 60 62" fill="none" xmlns="http://www.w3.org/2000/svg">
<g clip-path="url(#clip0_158_750)">
<g clip-path="url(#clip1_158_750)">
<g clip-path="url(#clip2_158_750)">
<path d="M15.1065 37.1676L47.6451 5.06164C38.7078 3.34346 28.9974 4.85496 21.5066 7.48662C10.7901 11.2522 4.74709 19.172 4.06874 24.4393C3.92623 25.5459 3.96129 26.5657 4.13776 27.5051L4.43745 28.6604C6.08259 33.5978 11.7882 36.0529 15.1065 37.1676Z" fill="#F4E9DD"/>
<path d="M47.648 5.0625L15.1094 37.1685L20.794 59.082L53.4003 27.237L47.648 5.0625Z" fill="#F4E9DD"/>
<path d="M15.1105 37.1684C11.7922 36.0536 6.08656 33.5986 4.44141 28.6611L10.1082 50.5062C10.5027 52.3939 13.1922 56.7518 20.795 59.0819L15.1105 37.1684Z" fill="#F4E9DD"/>
<path d="M15.1105 37.1667L47.6491 5.06066M15.1105 37.1667C11.7921 36.052 6.0865 33.5969 4.44136 28.6594M15.1105 37.1667L20.795 59.0802M47.6491 5.06066C38.7117 3.34249 29.0014 4.85398 21.5106 7.48564C10.7941 11.2512 4.751 19.171 4.07265 24.4384C3.93014 25.5449 3.9652 26.5647 4.14168 27.5042L4.44136 28.6594M47.6491 5.06066L53.4013 27.2352L20.795 59.0802M4.44136 28.6594L10.1082 50.5045C10.5027 52.3922 13.1922 56.7501 20.795 59.0802" stroke="black" stroke-width="4" stroke-linecap="round" stroke-linejoin="round"/>
</g>
</g>
</g>
<defs>
<clipPath id="clip0_158_750">
<rect width="60" height="61" fill="white" transform="translate(0 0.560547)"/>
</clipPath>
<clipPath id="clip1_158_750">
<rect width="60" height="61" fill="white" transform="translate(0 0.560547)"/>
</clipPath>
<clipPath id="clip2_158_750">
<rect width="60" height="61" fill="white" transform="translate(0 0.560547)"/>
</clipPath>
</defs>
</svg>
