<svg width="74" height="72" viewBox="0 0 74 72" fill="none" xmlns="http://www.w3.org/2000/svg">
<g clip-path="url(#clip0_158_745)">
<g clip-path="url(#clip1_158_745)">
<path d="M16.9443 16.3716L40.8149 8.91211L64.4073 25.5069L57.0763 54.4107L33.3408 62.373L9.61328 45.2754L16.9443 16.3716Z" fill="#F4E9DD"/>
<path d="M40.8149 8.91211L16.9443 16.3716M40.8149 8.91211L33.3489 37.3131M40.8149 8.91211L64.4073 25.5069M16.9443 16.3716L9.61328 45.2754M16.9443 16.3716L40.9907 33.6534M33.3489 37.3131L9.61328 45.2754M33.3489 37.3131L57.0763 54.4107M64.4073 25.5069L57.0763 54.4107M64.4073 25.5069L40.9907 33.6534M9.61328 45.2754L33.3408 62.373M40.9907 33.6534L33.3408 62.373M33.3408 62.373L57.0763 54.4107" stroke="black" stroke-width="4" stroke-linecap="round" stroke-linejoin="round"/>
</g>
</g>
<defs>
<clipPath id="clip0_158_745">
<rect width="73" height="71" fill="white" transform="translate(0.140625 0.44043)"/>
</clipPath>
<clipPath id="clip1_158_745">
<rect width="73" height="71" fill="white" transform="translate(0.140625 0.44043)"/>
</clipPath>
</defs>
</svg>
