<svg width="1440" height="900" viewBox="0 0 1440 900" fill="none" xmlns="http://www.w3.org/2000/svg">
<g style="mix-blend-mode:plus-lighter" opacity="0.35">
<g clip-path="url(#clip0_158_557)">
<g clip-path="url(#clip1_158_557)">
<path d="M1605.78 0.888428L942.672 337.955H498.342L-164.089 1.77688L1605.78 0.888428ZM1605.78 0.888428L1605.11 899.112M1605.11 899.112H-165.446M1605.11 899.112L941.997 562.935H497.664M943.694 336.548V563.28M-165.446 899.112L495.63 563.451V337.61M-165.446 899.112L-165.785 1.77688H-163.75M1402.28 104.872H38.7441M1274.74 169.521H166.278M1187.56 213.828H253.45M1124.14 246.065H316.877M1075.64 270.545H365.38M1037.65 289.855H403.371M1007.12 305.371H433.896M981.684 318.128H459.335M960.654 328.817H480.365M542.777 337.955L12.2878 1.77688M587.207 337.955L189.343 1.77688M631.642 337.955L366.398 1.77688M676.076 337.955L543.455 1.77688M720.511 337.955V1.77688M764.937 337.955L897.565 1.77688M809.378 337.955L1074.62 1.77688M853.809 337.955L1251.67 1.77688M898.241 337.955L1428.73 1.77688M37.048 104.009V797.053M164.243 168.831V732.402M251.413 213.138V687.923M314.843 245.549V655.685M363.008 270.03V631.031M400.996 289.338V611.724M431.522 304.854V596.208M456.623 317.784V583.45M477.654 328.472V572.589M495.63 540.867L-165.785 810.5M495.63 518.284L-165.785 720.506M495.63 495.699L-165.785 630.515M495.63 473.116L-165.785 540.522M495.63 450.53H-165.785M495.63 427.946L-165.785 360.538M495.63 405.362L-165.785 270.545M495.63 382.778L-165.785 180.554M495.63 360.195L-165.785 90.5624M38.0662 796.018H1401.59M165.601 731.369H1274.06M252.773 687.061H1186.89M316.199 654.823H1123.46M364.701 630.343H1074.96M402.693 611.207H1036.97M433.219 595.691H1006.44M458.658 582.76H981.346M479.687 572.071H959.979M897.565 562.935L1428.05 899.112M853.134 562.935L1251 899.112M808.694 562.935L1073.94 899.112M764.262 562.935L896.881 899.112M719.833 562.935V899.112M675.399 562.935L542.777 899.112M630.964 562.935L365.72 899.112M586.53 562.935L188.665 899.112M542.099 562.935L11.609 899.112M1402.28 796.879V103.837M1275.08 732.057V168.659M1187.91 687.752V212.965M1124.48 655.512V245.203M1076.31 630.86V269.857M1038.33 611.55V289.165M1007.8 596.035V304.682M982.705 583.105V317.612M961.676 572.416V328.299M943.694 360.021L1605.11 90.39M943.694 382.605L1605.11 180.381M943.694 405.191L1605.11 270.375M943.694 427.775L1605.11 360.366M943.694 450.359H1605.11M943.694 472.942L1605.11 540.35M943.694 495.526L1605.11 630.343M943.694 518.11L1605.11 720.336M943.694 540.696L1605.11 810.327" stroke="#EF66FE" stroke-width="1.7769" stroke-linecap="round" stroke-linejoin="round"/>
</g>
</g>
</g>
<defs>
<clipPath id="clip0_158_557">
<rect width="1440" height="900" fill="white"/>
</clipPath>
<clipPath id="clip1_158_557">
<rect width="1773.35" height="900" fill="white" transform="translate(-166.672)"/>
</clipPath>
</defs>
</svg>
