<svg width="90" height="93" viewBox="0 0 90 93" fill="none" xmlns="http://www.w3.org/2000/svg">
<g clip-path="url(#clip0_158_650)">
<g clip-path="url(#clip1_158_650)">
<path d="M23.3829 54.5615L72.8505 9.25599C59.8384 6.24869 45.5163 7.93528 34.388 11.3857C18.4675 16.3228 9.17363 27.6068 7.89143 35.294C7.62207 36.9088 7.61783 38.4063 7.82536 39.7935L8.20177 41.5039C10.3448 48.8342 18.5777 52.7458 23.3829 54.5615Z" fill="#FFC64A"/>
<path d="M72.8561 9.25842L23.3886 54.5639L30.5287 87.0092L80.0813 42.0897L72.8561 9.25842Z" fill="#FFC64A"/>
<path d="M23.3882 54.564C18.5829 52.7482 10.3501 48.8366 8.20703 41.5065L15.3249 73.85C15.8003 76.6397 19.5065 83.177 30.5284 87.0091L23.3882 54.564Z" fill="#FFC64A"/>
<path d="M23.3868 54.5615L72.8544 9.25599M23.3868 54.5615C18.5816 52.7457 10.3487 48.8342 8.20568 41.5039M23.3868 54.5615L30.527 87.0064M72.8544 9.25599C59.8423 6.24869 45.5202 7.93528 34.3919 11.3857C18.4714 16.3227 9.17754 27.6068 7.89534 35.294C7.62597 36.9089 7.62173 38.4062 7.82926 39.7935L8.20568 41.5039M72.8544 9.25599L80.0797 42.0872L30.527 87.0064M8.20568 41.5039L15.3235 73.8474C15.7989 76.6372 19.5052 83.1744 30.527 87.0064" stroke="black" stroke-width="6.64538" stroke-linecap="round" stroke-linejoin="round"/>
</g>
</g>
<defs>
<clipPath id="clip0_158_650">
<rect width="86.39" height="88.87" fill="white" transform="translate(3.67969 0.419922) rotate(2.1312)"/>
</clipPath>
<clipPath id="clip1_158_650">
<rect width="86.39" height="88.87" fill="white" transform="translate(3.67969 0.419922) rotate(2.1312)"/>
</clipPath>
</defs>
</svg>
