<svg width="1350" height="810" viewBox="0 0 1350 810" fill="none" xmlns="http://www.w3.org/2000/svg">
<g clip-path="url(#clip0_158_834)">
<rect width="1350" height="810" fill="#BF543C"/>
<g clip-path="url(#clip1_158_834)">
<g clip-path="url(#clip2_158_834)">
<mask id="mask0_158_834" style="mask-type:luminance" maskUnits="userSpaceOnUse" x="-1084" y="-1065" width="2941" height="2940">
<path d="M-1083.18 1874.6V-1064.6H1856.02V1874.6H-1083.18Z" fill="white"/>
</mask>
<g mask="url(#mask0_158_834)">
<path fill-rule="evenodd" clip-rule="evenodd" d="M1851.35 548.63L816.316 505.973L1762.11 928.561L1694.25 1080.46L721.096 645.65L1443.1 1429.73L1320.72 1542.42L619.009 780.385L988.968 1747.98L833.569 1807.4L452.913 811.829L409.023 1876.78L242.794 1869.93L285.451 834.898L-137.137 1780.69L-289.032 1712.83L145.773 739.678L-638.305 1461.69L-751.002 1339.3L11.0327 637.59L-956.557 1007.56L-1015.97 852.156L-20.3873 471.49L-1085.35 427.599L-1078.5 261.37L-43.491 304.026L-989.272 -118.556L-921.403 -270.456L51.7458 164.355L-670.264 -619.722L-547.878 -732.419L153.828 29.6141L-216.132 -937.969L-60.7388 -997.387L319.934 -1.79969L363.825 -1066.78L530.054 -1059.93L487.398 -24.9093L909.979 -970.69L1061.87 -902.822L627.069 70.3276L1411.15 -651.681L1523.84 -529.296L761.809 172.415L1729.39 -197.545L1788.81 -42.1454L793.242 338.51L1858.2 382.401L1851.35 548.63Z" fill="#DD5F42"/>
</g>
</g>
</g>
</g>
<defs>
<clipPath id="clip0_158_834">
<rect width="1350" height="810" fill="white"/>
</clipPath>
<clipPath id="clip1_158_834">
<rect width="1350" height="810" fill="white"/>
</clipPath>
<clipPath id="clip2_158_834">
<rect width="2939.2" height="2939.2" fill="white" transform="translate(-1083.18 -1064.6)"/>
</clipPath>
</defs>
</svg>
