<svg width="106" height="101" viewBox="0 0 106 101" fill="none" xmlns="http://www.w3.org/2000/svg">
<g clip-path="url(#clip0_158_658)">
<g clip-path="url(#clip1_158_658)">
<g clip-path="url(#clip2_158_658)">
<path d="M9.7994 45.7804C6.60481 33.932 13.5899 21.7475 25.4029 18.5625C36.6928 15.5185 45.8098 23.6078 45.8098 23.6078C45.8098 23.6078 49.6945 12.0129 60.9845 8.96889C72.7975 5.78384 84.9609 12.8054 88.1555 24.6538C94.0772 46.6167 77.2658 71.6681 62.9922 87.0571C42.9172 80.9293 15.7211 67.7432 9.7994 45.7804Z" fill="#DE425E"/>
<path fill-rule="evenodd" clip-rule="evenodd" d="M39.2911 17.9915C43.0217 19.7196 45.311 21.7587 45.311 21.7587C45.311 21.7587 46.2787 18.8517 48.6429 15.486C51.1589 11.904 55.2566 7.80224 61.4528 6.13161C74.028 2.74106 86.9877 10.2583 90.4026 22.9239C96.7327 46.4014 78.8596 73.1542 63.6781 89.5839C42.295 83.0129 13.3213 68.891 6.99125 45.4135C3.57633 32.7479 11.0005 19.7347 23.5757 16.3441C29.7605 14.6766 35.3359 16.1593 39.2911 17.9915ZM61.5096 81.5431C67.8885 74.1967 74.3251 65.2774 78.8073 55.8892C84.0218 44.967 86.2174 34.218 83.6623 24.7412C81.2387 15.7526 72.0773 10.4973 63.2702 12.8719C59.3109 13.9394 56.4867 16.5489 54.5312 19.252C53.5667 20.5853 52.8844 21.8488 52.4515 22.7624C52.2371 23.2146 52.0901 23.5679 52.0049 23.7838C51.9624 23.8913 51.9358 23.9636 51.9242 23.9955C51.9234 23.9978 51.9226 23.9999 51.922 24.0018L48.5855 34.024L40.6983 26.9988L40.6939 26.9951C40.6685 26.9738 40.6102 26.925 40.5206 26.8537C40.3408 26.7104 40.0394 26.4794 39.6309 26.1964C38.8055 25.6249 37.5916 24.8762 36.0996 24.2087C33.0775 22.8568 29.3481 22.0181 25.393 23.0845C16.5859 25.4591 11.308 34.6075 13.7316 43.5961C16.2849 53.0662 23.5982 61.2492 33.6173 68.0672C42.2286 73.9273 52.2946 78.399 61.5096 81.5431Z" fill="black"/>
</g>
</g>
</g>
<defs>
<clipPath id="clip0_158_658">
<rect width="86.39" height="81.14" fill="white" transform="translate(0.808594 22.4896) rotate(-15.0894)"/>
</clipPath>
<clipPath id="clip1_158_658">
<rect width="86.39" height="81.14" fill="white" transform="translate(0.808594 22.4896) rotate(-15.0894)"/>
</clipPath>
<clipPath id="clip2_158_658">
<rect width="86.39" height="81.1542" fill="white" transform="translate(0.808594 22.4827) rotate(-15.0894)"/>
</clipPath>
</defs>
</svg>
