<svg width="24" height="25" viewBox="0 0 24 25" fill="none" xmlns="http://www.w3.org/2000/svg">
<path d="M12 3.10254C10.0716 3.10254 8.18657 3.67437 6.58319 4.74571C4.97982 5.81705 3.73013 7.3398 2.99218 9.12138C2.25422 10.903 2.06114 12.8634 2.43735 14.7547C2.81355 16.646 3.74215 18.3833 5.10571 19.7468C6.46928 21.1104 8.20656 22.039 10.0979 22.4152C11.9892 22.7914 13.9496 22.5983 15.7312 21.8604C17.5127 21.1224 19.0355 19.8727 20.1068 18.2693C21.1782 16.666 21.75 14.7809 21.75 12.8525C21.7473 10.2675 20.7192 7.78915 18.8913 5.96126C17.0634 4.13337 14.585 3.10527 12 3.10254ZM16.2806 11.1332L11.0306 16.3832C10.961 16.4529 10.8783 16.5082 10.7872 16.546C10.6962 16.5837 10.5986 16.6031 10.5 16.6031C10.4014 16.6031 10.3038 16.5837 10.2128 16.546C10.1218 16.5082 10.039 16.4529 9.96938 16.3832L7.71938 14.1332C7.57865 13.9924 7.49959 13.8016 7.49959 13.6025C7.49959 13.4035 7.57865 13.2126 7.71938 13.0719C7.86011 12.9312 8.05098 12.8521 8.25 12.8521C8.44903 12.8521 8.6399 12.9312 8.78063 13.0719L10.5 14.7922L15.2194 10.0719C15.2891 10.0022 15.3718 9.94696 15.4628 9.90924C15.5539 9.87153 15.6515 9.85212 15.75 9.85212C15.8486 9.85212 15.9461 9.87153 16.0372 9.90924C16.1282 9.94696 16.2109 10.0022 16.2806 10.0719C16.3503 10.1416 16.4056 10.2243 16.4433 10.3154C16.481 10.4064 16.5004 10.504 16.5004 10.6025C16.5004 10.7011 16.481 10.7987 16.4433 10.8897C16.4056 10.9808 16.3503 11.0635 16.2806 11.1332Z" fill="#01AB31"/>
</svg>
