<svg width="50" height="50" viewBox="0 0 50 50" fill="none" xmlns="http://www.w3.org/2000/svg">
<path d="M37.4226 39.0579C37.0209 39.0579 36.6953 38.7322 36.6953 38.3306V11.6648C36.6953 11.2631 37.0209 10.9375 37.4226 10.9375C37.8242 10.9375 38.1499 11.2631 38.1499 11.6648V38.3306C38.1499 38.7322 37.8241 39.0579 37.4226 39.0579Z" fill="white"/>
<path d="M12.571 39.0579C12.1694 39.0579 11.8438 38.7322 11.8438 38.3306V11.6648C11.8438 11.2631 12.1694 10.9375 12.571 10.9375C12.9727 10.9375 13.2983 11.2631 13.2983 11.6648V38.3306C13.2983 38.7322 12.9728 39.0579 12.571 39.0579Z" fill="white"/>
<path d="M17.1726 39.0579C16.7709 39.0579 16.4453 38.7322 16.4453 38.3306V11.6648C16.4453 11.2631 16.7709 10.9375 17.1726 10.9375C17.5742 10.9375 17.8999 11.2631 17.8999 11.6648V38.3306C17.8999 38.7322 17.5742 39.0579 17.1726 39.0579Z" fill="white"/>
<path d="M22.3913 39.0579C21.9897 39.0579 21.6641 38.7322 21.6641 38.3306V11.6648C21.6641 11.2631 21.9897 10.9375 22.3913 10.9375C22.793 10.9375 23.1186 11.2631 23.1186 11.6648V38.3306C23.1186 38.7322 22.7931 39.0579 22.3913 39.0579Z" fill="white"/>
<path d="M27.6023 39.0579C27.2006 39.0579 26.875 38.7322 26.875 38.3306V11.6648C26.875 11.2631 27.2006 10.9375 27.6023 10.9375C28.0039 10.9375 28.3295 11.2631 28.3295 11.6648V38.3306C28.3295 38.7322 28.0039 39.0579 27.6023 39.0579Z" fill="white"/>
<path d="M32.821 39.0579C32.4194 39.0579 32.0938 38.7322 32.0938 38.3306V11.6648C32.0938 11.2631 32.4194 10.9375 32.821 10.9375C33.2227 10.9375 33.5483 11.2631 33.5483 11.6648V38.3306C33.5483 38.7322 33.2227 39.0579 32.821 39.0579Z" fill="white"/>
<path d="M43.8605 21.0355C34.3515 21.0355 29.5183 19.9979 24.8443 18.9944C20.2445 18.007 15.4881 16.9858 6.13352 16.9858C5.73189 16.9858 5.40625 16.6602 5.40625 16.2585C5.40625 15.8569 5.73189 15.5312 6.13352 15.5312C15.6424 15.5312 20.4756 16.5689 25.1496 17.5723C29.7495 18.5598 34.506 19.5809 43.8605 19.5809C44.2622 19.5809 44.5878 19.9065 44.5878 20.3082C44.5878 20.7098 44.2622 21.0355 43.8605 21.0355Z" fill="white"/>
<path d="M43.8605 25.5823C34.3515 25.5823 29.5183 24.5448 24.8443 23.5413C20.2445 22.5539 15.4881 21.5327 6.13352 21.5327C5.73189 21.5327 5.40625 21.207 5.40625 20.8054C5.40625 20.4038 5.73189 20.0781 6.13352 20.0781C15.6424 20.0781 20.4756 21.1158 25.1496 22.1191C29.7495 23.1067 34.506 24.1278 43.8605 24.1278C44.2622 24.1278 44.5878 24.4534 44.5878 24.855C44.5878 25.2567 44.2622 25.5823 43.8605 25.5823Z" fill="white"/>
<path d="M43.8605 30.1215C34.3515 30.1215 29.5183 29.0838 24.8443 28.0805C20.2445 27.0929 15.4881 26.0717 6.13352 26.0717C5.73189 26.0717 5.40625 25.7461 5.40625 25.3445C5.40625 24.9428 5.73189 24.6172 6.13352 24.6172C15.6424 24.6172 20.4756 25.6548 25.1497 26.6582C29.7495 27.6457 34.506 28.6669 43.8605 28.6669C44.2622 28.6669 44.5878 28.9926 44.5878 29.3942C44.5878 29.7958 44.2622 30.1215 43.8605 30.1215Z" fill="white"/>
<path d="M43.8605 34.6682C34.3515 34.6682 29.5183 33.6307 24.8443 32.6272C20.2445 31.6398 15.4881 30.6186 6.13352 30.6186C5.73189 30.6186 5.40625 30.293 5.40625 29.8913C5.40625 29.4897 5.73189 29.1641 6.13352 29.1641C15.6424 29.1641 20.4756 30.2016 25.1496 31.2051C29.7495 32.1925 34.506 33.2137 43.8605 33.2137C44.2622 33.2137 44.5878 33.5393 44.5878 33.941C44.5878 34.3426 44.2622 34.6682 43.8605 34.6682Z" fill="white"/>
<path d="M39.2604 12.3881H10.7351C10.3334 12.3881 10.0078 12.0625 10.0078 11.6608V11.5965C10.0078 8.69585 12.3676 6.33594 15.2684 6.33594H34.7272C37.6278 6.33594 39.9876 8.69576 39.9876 11.5965V11.6608C39.9876 12.0625 39.662 12.3881 39.2604 12.3881ZM11.5202 10.9336H38.4753C38.1606 9.14985 36.5996 7.79057 34.7272 7.79057H15.2684C13.3957 7.79057 11.8347 9.14985 11.5202 10.9336Z" fill="white"/>
<path d="M31.897 7.79437H18.0945C17.6928 7.79437 17.3672 7.46873 17.3672 7.0671V2.46946C17.3672 2.06782 17.6928 1.74219 18.0945 1.74219H31.897C32.2986 1.74219 32.6243 2.06782 32.6243 2.46946V7.06701C32.6243 7.46873 32.2986 7.79437 31.897 7.79437ZM18.8217 6.33982H31.1697V3.19673H18.8217V6.33982Z" fill="white"/>
<path d="M34.7271 43.6537H15.2684C12.3677 43.6537 10.0078 41.2938 10.0078 38.3932V38.3288C10.0078 37.9272 10.3334 37.6016 10.7351 37.6016H39.2604C39.662 37.6016 39.9876 37.9272 39.9876 38.3288V38.3932C39.9876 41.2938 37.6278 43.6537 34.7271 43.6537ZM11.5202 39.0561C11.8347 40.8397 13.3958 42.1991 15.2684 42.1991H34.7272C36.5997 42.1991 38.1607 40.8397 38.4753 39.0561H11.5202Z" fill="white"/>
<path d="M31.897 48.2552H18.0945C17.6928 48.2552 17.3672 47.9296 17.3672 47.5279V42.9304C17.3672 42.5288 17.6928 42.2031 18.0945 42.2031H31.897C32.2986 42.2031 32.6243 42.5288 32.6243 42.9304V47.5279C32.6243 47.9296 32.2986 48.2552 31.897 48.2552ZM18.8217 46.8007H31.1697V43.6577H18.8217V46.8007Z" fill="white"/>
</svg>
