<svg width="50" height="50" viewBox="0 0 50 50" fill="none" xmlns="http://www.w3.org/2000/svg">
<path d="M25 1.5625C12.0766 1.5625 1.5625 12.0766 1.5625 25C1.5625 37.9234 12.0766 48.4375 25 48.4375C37.9234 48.4375 48.4375 37.9234 48.4375 25C48.4375 12.0766 37.9234 1.5625 25 1.5625ZM25 46.875C12.9383 46.875 3.125 37.0617 3.125 25C3.125 12.9383 12.9383 3.125 25 3.125C37.0617 3.125 46.875 12.9383 46.875 25C46.875 37.0617 37.0617 46.875 25 46.875Z" fill="white"/>
<path d="M25.0023 5.21094C14.0891 5.21094 5.21094 14.0898 5.21094 25.0031C5.21094 35.9164 14.0898 44.7953 25.0023 44.7953C35.9148 44.7953 44.7938 35.9164 44.7938 25.0031C44.7938 14.0898 35.9156 5.21094 25.0023 5.21094ZM25.0023 43.2328C14.9508 43.2328 6.77344 35.0547 6.77344 25.0031C6.77344 14.9516 14.9508 6.77344 25.0023 6.77344C35.0539 6.77344 43.2313 14.9516 43.2313 25.0031C43.2313 35.0547 35.0539 43.2328 25.0023 43.2328Z" fill="white"/>
<path d="M31.0227 18.1953H18.9766C18.5453 18.1953 18.1953 18.5445 18.1953 18.9766V31.0234C18.1953 31.4555 18.5453 31.8047 18.9766 31.8047H31.0227C31.4539 31.8047 31.8039 31.4555 31.8039 31.0234V18.9766C31.8039 18.5445 31.4539 18.1953 31.0227 18.1953ZM30.2414 30.2422H19.7578V19.7578H30.2414V30.2422Z" fill="white"/>
<path d="M23.0938 16.2578C23.525 16.2578 23.875 15.9086 23.875 15.4766V11.5703C23.875 11.1383 23.525 10.7891 23.0938 10.7891C22.6625 10.7891 22.3125 11.1383 22.3125 11.5703V15.4766C22.3125 15.9086 22.6625 16.2578 23.0938 16.2578Z" fill="white"/>
<path d="M26.9062 16.2578C27.3375 16.2578 27.6875 15.9086 27.6875 15.4766V11.5703C27.6875 11.1383 27.3375 10.7891 26.9062 10.7891C26.475 10.7891 26.125 11.1383 26.125 11.5703V15.4766C26.125 15.9086 26.475 16.2578 26.9062 16.2578Z" fill="white"/>
<path d="M33.7422 23.0938C33.7422 23.5258 34.0922 23.875 34.5234 23.875H38.4297C38.8609 23.875 39.2109 23.5258 39.2109 23.0938C39.2109 22.6617 38.8609 22.3125 38.4297 22.3125H34.5234C34.0922 22.3125 33.7422 22.6617 33.7422 23.0938Z" fill="white"/>
<path d="M38.4297 26.125H34.5234C34.0922 26.125 33.7422 26.4742 33.7422 26.9062C33.7422 27.3383 34.0922 27.6875 34.5234 27.6875H38.4297C38.8609 27.6875 39.2109 27.3383 39.2109 26.9062C39.2109 26.4742 38.8609 26.125 38.4297 26.125Z" fill="white"/>
<path d="M26.9062 33.7422C26.475 33.7422 26.125 34.0914 26.125 34.5234V38.4297C26.125 38.8617 26.475 39.2109 26.9062 39.2109C27.3375 39.2109 27.6875 38.8617 27.6875 38.4297V34.5234C27.6875 34.0914 27.3375 33.7422 26.9062 33.7422Z" fill="white"/>
<path d="M23.0938 33.7422C22.6625 33.7422 22.3125 34.0914 22.3125 34.5234V38.4297C22.3125 38.8617 22.6625 39.2109 23.0938 39.2109C23.525 39.2109 23.875 38.8617 23.875 38.4297V34.5234C23.875 34.0914 23.525 33.7422 23.0938 33.7422Z" fill="white"/>
<path d="M15.4766 26.125H11.5703C11.1391 26.125 10.7891 26.4742 10.7891 26.9062C10.7891 27.3383 11.1391 27.6875 11.5703 27.6875H15.4766C15.9078 27.6875 16.2578 27.3383 16.2578 26.9062C16.2578 26.4742 15.9078 26.125 15.4766 26.125Z" fill="white"/>
<path d="M15.4766 22.3125H11.5703C11.1391 22.3125 10.7891 22.6617 10.7891 23.0938C10.7891 23.5258 11.1391 23.875 11.5703 23.875H15.4766C15.9078 23.875 16.2578 23.5258 16.2578 23.0938C16.2578 22.6617 15.9078 22.3125 15.4766 22.3125Z" fill="white"/>
</svg>
