<svg width="50" height="50" viewBox="0 0 50 50" fill="none" xmlns="http://www.w3.org/2000/svg">
<g clip-path="url(#clip0_98_158)">
<path d="M11.0787 12.92C10.9189 12.5483 10.4884 12.3768 10.1165 12.536L0.442072 16.6908C-0.28654 17.0038 -0.0618336 18.0965 0.731524 18.0965C1.0159 18.0965 0.507013 18.2336 10.6947 13.8822C11.0664 13.7225 11.2382 13.2918 11.0787 12.92Z" fill="white"/>
<path d="M10.6963 36.1596L1.02185 32.0049C0.649581 31.8453 0.219504 32.0172 0.0596407 32.3889C-0.100027 32.7607 0.0719453 33.1913 0.443624 33.3511C10.6313 37.7026 10.1219 37.5654 10.4068 37.5654C10.6908 37.5654 10.961 37.3992 11.0802 37.1218C11.2399 36.7499 11.0679 36.3193 10.6963 36.1596Z" fill="white"/>
<path d="M17.8077 22.2C17.7682 21.7974 17.4089 21.5028 17.0073 21.5427L4.06714 22.8122C3.6646 22.8517 3.37026 23.2101 3.40981 23.6126C3.44907 24.0126 3.80493 24.3097 4.2102 24.2699L17.1503 23.0003C17.5529 22.9609 17.8473 22.6025 17.8077 22.2Z" fill="white"/>
<path d="M17.1504 27.3669L4.21019 26.0973C3.80853 26.058 3.44935 26.3521 3.4098 26.7546C3.37034 27.1571 3.66458 27.5155 4.06712 27.555L17.0073 28.8246C17.412 28.8643 17.7685 28.5679 17.8077 28.1673C17.8473 27.7648 17.5529 27.4064 17.1504 27.3669Z" fill="white"/>
<path d="M33.8888 4.70448C26.8353 -0.349611 17.1765 6.46698 19.3589 15.0318C17.0236 16.6746 14.1992 17.7595 11.1903 18.1694L2.82114 19.3098C2.42036 19.3645 2.1397 19.7337 2.19429 20.1344C2.24917 20.537 2.61987 20.8157 3.0189 20.7613L11.388 19.6209C14.4794 19.1997 17.3942 18.1117 19.8495 16.4696C20.5931 18.1902 21.8354 19.6809 23.4667 20.7381C23.5899 20.8178 23.7278 20.856 23.8644 20.856C24.5895 20.856 24.8758 19.9057 24.2634 19.5087C21.9221 17.9912 20.5242 15.4218 20.5242 12.6357C20.5242 6.22186 27.7684 2.1206 33.0353 5.8952C33.3641 6.13085 33.8218 6.05526 34.0575 5.72645C34.2932 5.39774 34.2177 4.94012 33.8888 4.70448Z" fill="white"/>
<path d="M43.0049 35.3632C42.8412 34.9933 42.4084 34.826 42.0386 34.9902C40.6448 35.6071 39.1597 35.92 37.6247 35.92C37.2201 35.92 36.8923 36.2479 36.8923 36.6525C36.8923 38.8648 36.0088 41.116 34.4686 42.8285C29.269 48.6101 20.5244 44.4516 20.5244 37.3744C20.5244 34.6513 21.8735 32.1143 24.1331 30.5877C24.4684 30.3613 24.5565 29.906 24.3301 29.5707C24.1037 29.2355 23.6483 29.1474 23.3131 29.3738C21.7606 30.4227 20.5736 31.8768 19.8528 33.5428C17.3969 31.8994 14.4808 30.8107 11.388 30.3893L3.0189 29.249C2.61929 29.1945 2.24898 29.4749 2.19429 29.8758C2.1397 30.2766 2.42027 30.6458 2.82114 30.7005L11.1903 31.8408C14.2001 32.251 17.0251 33.3364 19.3611 34.9799C16.933 44.4698 28.7634 51.3629 35.5578 43.8081C37.1726 42.0126 38.1622 39.6982 38.3312 37.3646C39.8214 37.2814 41.265 36.9346 42.6316 36.3294C43.0016 36.1656 43.1687 35.7331 43.0049 35.3632Z" fill="white"/>
<path d="M38.328 12.6445C38.1935 10.795 37.5422 8.93937 36.4581 7.3508C36.23 7.01672 35.7743 6.93088 35.4402 7.15861C35.106 7.38664 35.0201 7.8424 35.248 8.17658C37.0257 10.7816 36.8719 13.2445 36.8959 13.4447C36.825 14.5253 36.5684 15.5822 36.1457 16.5337C35.6361 16.21 35.0683 15.9746 34.4607 15.8427C34.0657 15.7572 33.6754 16.0076 33.5895 16.4029C33.5037 16.7982 33.7544 17.1883 34.1497 17.2742C36.1619 17.7113 37.4368 19.6935 36.9997 21.7059C36.5635 23.7135 34.5757 24.9921 32.5678 24.5559C32.1728 24.4709 31.7826 24.7209 31.6965 25.1162C31.6107 25.5114 31.8615 25.9014 32.2568 25.9875C37.1026 27.0409 40.5368 21.3021 37.2876 17.5228C37.4966 17.2281 38.1091 15.7559 38.3049 14.1109C44.0059 14.4645 48.536 19.214 48.536 25.0024C48.536 28.18 47.1544 31.1938 44.7454 33.2711C44.4391 33.5351 44.4049 33.9976 44.6691 34.3041C44.9336 34.6109 45.3963 34.6442 45.7021 34.3804C48.4343 32.0248 50.0011 28.6066 50.0011 25.0025C50.0011 18.4138 44.8265 13.0114 38.328 12.6445Z" fill="white"/>
</g>
<defs>
<clipPath id="clip0_98_158">
<rect width="50" height="50" fill="white"/>
</clipPath>
</defs>
</svg>
