<svg width="50" height="50" viewBox="0 0 50 50" fill="none" xmlns="http://www.w3.org/2000/svg">
<g clip-path="url(#clip0_98_50)">
<path d="M41.7412 43.2061H8.26953C7.46055 43.2061 6.80469 42.5502 6.80469 41.7412V8.26953C6.80469 7.46055 7.46055 6.80469 8.26953 6.80469H41.7412C42.5502 6.80469 43.2061 7.46055 43.2061 8.26953V41.7412C43.2061 42.5502 42.5502 43.2061 41.7412 43.2061Z" stroke="white" stroke-miterlimit="10" stroke-linecap="round" stroke-linejoin="round"/>
<path d="M15.8984 12.1104V10.5938" stroke="white" stroke-miterlimit="10" stroke-linecap="round" stroke-linejoin="round"/>
<path d="M18.9375 12.1104V10.5938" stroke="white" stroke-miterlimit="10" stroke-linecap="round" stroke-linejoin="round"/>
<path d="M21.9688 12.1104V10.5938" stroke="white" stroke-miterlimit="10" stroke-linecap="round" stroke-linejoin="round"/>
<path d="M25 12.1104V10.5938" stroke="white" stroke-miterlimit="10" stroke-linecap="round" stroke-linejoin="round"/>
<path d="M28.0391 12.1104V10.5938" stroke="white" stroke-miterlimit="10" stroke-linecap="round" stroke-linejoin="round"/>
<path d="M31.0703 12.1104V10.5938" stroke="white" stroke-miterlimit="10" stroke-linecap="round" stroke-linejoin="round"/>
<path d="M37.8906 18.9375H39.4073" stroke="white" stroke-miterlimit="10" stroke-linecap="round" stroke-linejoin="round"/>
<path d="M37.8906 21.9688H39.4073" stroke="white" stroke-miterlimit="10" stroke-linecap="round" stroke-linejoin="round"/>
<path d="M37.8906 25H39.4073" stroke="white" stroke-miterlimit="10" stroke-linecap="round" stroke-linejoin="round"/>
<path d="M37.8906 28.0391H39.4073" stroke="white" stroke-miterlimit="10" stroke-linecap="round" stroke-linejoin="round"/>
<path d="M37.8906 31.0703H39.4073" stroke="white" stroke-miterlimit="10" stroke-linecap="round" stroke-linejoin="round"/>
<path d="M37.8906 34.1016H39.4073" stroke="white" stroke-miterlimit="10" stroke-linecap="round" stroke-linejoin="round"/>
<path d="M34.1016 37.8906V39.4073" stroke="white" stroke-miterlimit="10" stroke-linecap="round" stroke-linejoin="round"/>
<path d="M31.0703 37.8906V39.4073" stroke="white" stroke-miterlimit="10" stroke-linecap="round" stroke-linejoin="round"/>
<path d="M28.0391 37.8906V39.4073" stroke="white" stroke-miterlimit="10" stroke-linecap="round" stroke-linejoin="round"/>
<path d="M25 37.8906V39.4073" stroke="white" stroke-miterlimit="10" stroke-linecap="round" stroke-linejoin="round"/>
<path d="M21.9688 37.8906V39.4073" stroke="white" stroke-miterlimit="10" stroke-linecap="round" stroke-linejoin="round"/>
<path d="M18.9375 37.8906V39.4073" stroke="white" stroke-miterlimit="10" stroke-linecap="round" stroke-linejoin="round"/>
<path d="M15.8984 37.8906V39.4073" stroke="white" stroke-miterlimit="10" stroke-linecap="round" stroke-linejoin="round"/>
<path d="M12.1104 34.1016H10.5938" stroke="white" stroke-miterlimit="10" stroke-linecap="round" stroke-linejoin="round"/>
<path d="M12.1104 31.0703H10.5938" stroke="white" stroke-miterlimit="10" stroke-linecap="round" stroke-linejoin="round"/>
<path d="M12.1104 28.0391H10.5938" stroke="white" stroke-miterlimit="10" stroke-linecap="round" stroke-linejoin="round"/>
<path d="M12.1104 25H10.5938" stroke="white" stroke-miterlimit="10" stroke-linecap="round" stroke-linejoin="round"/>
<path d="M12.1104 21.9688H10.5938" stroke="white" stroke-miterlimit="10" stroke-linecap="round" stroke-linejoin="round"/>
<path d="M12.1104 18.9375H10.5938" stroke="white" stroke-miterlimit="10" stroke-linecap="round" stroke-linejoin="round"/>
<path d="M12.1104 15.8984H10.5938" stroke="white" stroke-miterlimit="10" stroke-linecap="round" stroke-linejoin="round"/>
<path d="M34.4872 13.253L33.7726 12.5384C33.4979 12.2637 33.1253 12.1094 32.7367 12.1094H13.5742C12.7652 12.1094 12.1094 12.7652 12.1094 13.5742V36.4288C12.1094 37.2378 12.7652 37.8937 13.5742 37.8937H36.4288C37.2378 37.8937 37.8937 37.2378 37.8937 36.4288V17.2662C37.8937 16.8777 37.7394 16.5051 37.4646 16.2304L36.9554 15.7211" stroke="white" stroke-miterlimit="10" stroke-linecap="round" stroke-linejoin="round"/>
<path d="M19.3408 25.2378C19.3408 26.3977 18.4006 27.3379 17.2407 27.3379C16.0809 27.3379 15.1406 26.3977 15.1406 25.2378V21.0376C15.1406 19.8777 16.0809 18.9375 17.2407 18.9375C18.4006 18.9375 19.3408 19.8777 19.3408 21.0376" stroke="white" stroke-miterlimit="10" stroke-linecap="round" stroke-linejoin="round"/>
<path d="M24.8267 23.1377H22.7266V18.9375H24.8267C25.9865 18.9375 26.9268 19.8777 26.9268 21.0376C26.9268 22.1975 25.9865 23.1377 24.8267 23.1377Z" stroke="white" stroke-miterlimit="10" stroke-linecap="round" stroke-linejoin="round"/>
<path d="M22.7266 23.1328V27.3329" stroke="white" stroke-miterlimit="10" stroke-linecap="round" stroke-linejoin="round"/>
<path d="M34.5127 18.9375V25.2377C34.5127 26.3976 33.5725 27.3378 32.4126 27.3378C31.2527 27.3378 30.3125 26.3976 30.3125 25.2377V18.9375" stroke="white" stroke-miterlimit="10" stroke-linecap="round" stroke-linejoin="round"/>
<path d="M17.4151 34.1037C18.2528 34.1037 18.9318 33.4247 18.9318 32.587C18.9318 31.7494 18.2528 31.0703 17.4151 31.0703C16.5775 31.0703 15.8984 31.7494 15.8984 32.587C15.8984 33.4247 16.5775 34.1037 17.4151 34.1037Z" stroke="white" stroke-miterlimit="10" stroke-linecap="round" stroke-linejoin="round"/>
<path d="M11.3516 1.9543V1.4668C11.3516 1.0623 11.6795 0.734375 12.084 0.734375H13.6525C14.057 0.734375 14.385 1.0623 14.385 1.4668V6.80127" stroke="white" stroke-miterlimit="10" stroke-linecap="round" stroke-linejoin="round"/>
<path d="M11.3516 6.804V5.375" stroke="white" stroke-miterlimit="10" stroke-linecap="round" stroke-linejoin="round"/>
<path d="M17.4219 6.80127V1.4668C17.4219 1.0623 17.7498 0.734375 18.1543 0.734375H19.7229C20.1273 0.734375 20.4553 1.0623 20.4553 1.4668V6.80127" stroke="white" stroke-miterlimit="10" stroke-linecap="round" stroke-linejoin="round"/>
<path d="M23.4844 6.80127V1.4668C23.4844 1.0623 23.8123 0.734375 24.2168 0.734375H25.7854C26.1898 0.734375 26.5178 1.0623 26.5178 1.4668V6.80127" stroke="white" stroke-miterlimit="10" stroke-linecap="round" stroke-linejoin="round"/>
<path d="M29.5547 6.80127V1.4668C29.5547 1.0623 29.8826 0.734375 30.2871 0.734375H31.8557C32.2602 0.734375 32.5881 1.0623 32.5881 1.4668V6.80127" stroke="white" stroke-miterlimit="10" stroke-linecap="round" stroke-linejoin="round"/>
<path d="M35.6172 6.80127V1.4668C35.6172 1.0623 35.9451 0.734375 36.3496 0.734375H37.9182C38.3227 0.734375 38.6506 1.0623 38.6506 1.4668V6.80127" stroke="white" stroke-miterlimit="10" stroke-linecap="round" stroke-linejoin="round"/>
<path d="M43.2031 11.3516H48.5376C48.9421 11.3516 49.27 11.6795 49.27 12.084V13.6525C49.27 14.057 48.9421 14.385 48.5376 14.385H43.2031" stroke="white" stroke-miterlimit="10" stroke-linecap="round" stroke-linejoin="round"/>
<path d="M43.2031 17.4219H48.5376C48.9421 17.4219 49.27 17.7498 49.27 18.1543V19.7229C49.27 20.1273 48.9421 20.4553 48.5376 20.4553H43.2031" stroke="white" stroke-miterlimit="10" stroke-linecap="round" stroke-linejoin="round"/>
<path d="M43.2031 23.4844H48.5376C48.9421 23.4844 49.27 23.8123 49.27 24.2168V25.7854C49.27 26.1898 48.9421 26.5178 48.5376 26.5178H43.2031" stroke="white" stroke-miterlimit="10" stroke-linecap="round" stroke-linejoin="round"/>
<path d="M43.2031 29.5547H48.5376C48.9421 29.5547 49.27 29.8826 49.27 30.2871V31.8557C49.27 32.2602 48.9421 32.5881 48.5376 32.5881H43.2031" stroke="white" stroke-miterlimit="10" stroke-linecap="round" stroke-linejoin="round"/>
<path d="M43.2031 35.6172H48.5376C48.9421 35.6172 49.27 35.9451 49.27 36.3496V37.9182C49.27 38.3227 48.9421 38.6506 48.5376 38.6506H43.2031" stroke="white" stroke-miterlimit="10" stroke-linecap="round" stroke-linejoin="round"/>
<path d="M38.6506 43.2031V48.5376C38.6506 48.9421 38.3227 49.27 37.9182 49.27H36.3496C35.9451 49.27 35.6172 48.9421 35.6172 48.5376V43.2031" stroke="white" stroke-miterlimit="10" stroke-linecap="round" stroke-linejoin="round"/>
<path d="M32.5881 43.2031V48.5376C32.5881 48.9421 32.2602 49.27 31.8557 49.27H30.2871C29.8826 49.27 29.5547 48.9421 29.5547 48.5376V43.2031" stroke="white" stroke-miterlimit="10" stroke-linecap="round" stroke-linejoin="round"/>
<path d="M26.5178 43.2031V48.5376C26.5178 48.9421 26.1898 49.27 25.7854 49.27H24.2168C23.8123 49.27 23.4844 48.9421 23.4844 48.5376V43.2031" stroke="white" stroke-miterlimit="10" stroke-linecap="round" stroke-linejoin="round"/>
<path d="M20.4553 43.2031V48.5376C20.4553 48.9421 20.1273 49.27 19.7229 49.27H18.1543C17.7498 49.27 17.4219 48.9421 17.4219 48.5376V43.2031" stroke="white" stroke-miterlimit="10" stroke-linecap="round" stroke-linejoin="round"/>
<path d="M14.385 43.2031V48.5376C14.385 48.9421 14.057 49.27 13.6525 49.27H12.084C11.6795 49.27 11.3516 48.9421 11.3516 48.5376V43.2031" stroke="white" stroke-miterlimit="10" stroke-linecap="round" stroke-linejoin="round"/>
<path d="M6.80127 38.6506H1.4668C1.0623 38.6506 0.734375 38.3227 0.734375 37.9182V36.3496C0.734375 35.9451 1.0623 35.6172 1.4668 35.6172H6.80127" stroke="white" stroke-miterlimit="10" stroke-linecap="round" stroke-linejoin="round"/>
<path d="M6.80127 32.5881H1.4668C1.0623 32.5881 0.734375 32.2602 0.734375 31.8557V30.2871C0.734375 29.8826 1.0623 29.5547 1.4668 29.5547H6.80127" stroke="white" stroke-miterlimit="10" stroke-linecap="round" stroke-linejoin="round"/>
<path d="M6.80127 26.5178H1.4668C1.0623 26.5178 0.734375 26.1898 0.734375 25.7854V24.2168C0.734375 23.8123 1.0623 23.4844 1.4668 23.4844H6.80127" stroke="white" stroke-miterlimit="10" stroke-linecap="round" stroke-linejoin="round"/>
<path d="M6.80127 20.4553H1.4668C1.0623 20.4553 0.734375 20.1273 0.734375 19.7229V18.1543C0.734375 17.7498 1.0623 17.4219 1.4668 17.4219H6.80127" stroke="white" stroke-miterlimit="10" stroke-linecap="round" stroke-linejoin="round"/>
<path d="M6.80127 14.3848H1.4668C1.0623 14.3848 0.734375 14.0569 0.734375 13.6524V12.0839C0.734375 11.6794 1.0623 11.3514 1.4668 11.3514H6.80127" stroke="white" stroke-miterlimit="10" stroke-linecap="round" stroke-linejoin="round"/>
</g>
<defs>
<clipPath id="clip0_98_50">
<rect width="50" height="50" fill="white"/>
</clipPath>
</defs>
</svg>
