<svg width="50" height="50" viewBox="0 0 50 50" fill="none" xmlns="http://www.w3.org/2000/svg">
<path d="M31.25 13.2813H30.4688V11.7188H31.25C31.4572 11.7188 31.6559 11.6365 31.8024 11.4899C31.9489 11.3434 32.0312 11.1447 32.0312 10.9375V4.68751C32.0318 4.5847 32.0121 4.48277 31.9733 4.38759C31.9344 4.2924 31.8771 4.20583 31.8047 4.13283L28.6797 1.00783C28.6067 0.935418 28.5201 0.878133 28.4249 0.839254C28.3297 0.800376 28.2278 0.780669 28.125 0.781263H21.875C21.7722 0.780669 21.6703 0.800376 21.5751 0.839254C21.4799 0.878133 21.3933 0.935418 21.3203 1.00783L18.1953 4.13283C18.1229 4.20583 18.0656 4.2924 18.0267 4.38759C17.9879 4.48277 17.9682 4.5847 17.9688 4.68751V10.9375C17.9688 11.1447 18.0511 11.3434 18.1976 11.4899C18.3441 11.6365 18.5428 11.7188 18.75 11.7188H19.5312V13.2813H18.75C17.9212 13.2813 17.1263 13.6105 16.5403 14.1966C15.9542 14.7826 15.625 15.5775 15.625 16.4063V48.4375C15.625 48.6447 15.7073 48.8434 15.8538 48.9899C16.0003 49.1365 16.199 49.2188 16.4062 49.2188H33.5938C33.801 49.2188 33.9997 49.1365 34.1462 48.9899C34.2927 48.8434 34.375 48.6447 34.375 48.4375V16.4063C34.375 15.5775 34.0458 14.7826 33.4597 14.1966C32.8737 13.6105 32.0788 13.2813 31.25 13.2813ZM19.5312 5.46876H21.0938V10.1563H19.5312V5.46876ZM22.6562 5.46876H24.2188V10.1563H22.6562V5.46876ZM25.7812 5.46876H27.3438V10.1563H25.7812V5.46876ZM28.9062 10.1563V5.46876H30.4688V10.1563H28.9062ZM22.1953 2.34376H27.8047L29.3672 3.90626H20.6328L22.1953 2.34376ZM21.0938 11.7188H28.9062V13.2813H21.0938V11.7188ZM18.75 14.8438H31.25C31.6644 14.8438 32.0618 15.0084 32.3549 15.3014C32.6479 15.5944 32.8125 15.9919 32.8125 16.4063V19.5313H17.1875V16.4063C17.1875 15.9919 17.3521 15.5944 17.6451 15.3014C17.9382 15.0084 18.3356 14.8438 18.75 14.8438ZM32.8125 21.0938V41.4063H17.1875V21.0938H32.8125ZM17.1875 47.6563V42.9688H32.8125V47.6563H17.1875Z" fill="white"/>
<path d="M22.6563 35.1539V31.8492L24.3203 34.7633C24.3892 34.8825 24.4883 34.9814 24.6076 35.05C24.727 35.1186 24.8624 35.1544 25 35.1539H25.2031C25.3736 35.1081 25.5235 35.006 25.6285 34.8641C25.7335 34.7223 25.7873 34.549 25.7813 34.3726V28.1226H24.2188V31.4273L22.5547 28.5133C22.4694 28.3628 22.3366 28.2448 22.1771 28.1779C22.0175 28.1111 21.8403 28.099 21.6732 28.1437C21.5061 28.1884 21.3585 28.2873 21.2537 28.4248C21.1488 28.5624 21.0926 28.7309 21.0938 28.9039V35.1539H22.6563Z" fill="white"/>
<path d="M27.3438 28.125H28.9062V35.1562H27.3438V28.125Z" fill="white"/>
</svg>
