<svg width="50" height="50" viewBox="0 0 50 50" fill="none" xmlns="http://www.w3.org/2000/svg">
<path d="M32.2936 22.447L31.1964 23.571L29.7418 25.0623L27.2936 27.5711L25.8004 29.1008L24.3458 30.5911L19.3004 35.7595L12.6613 42.5618C12.6549 42.5686 12.6427 42.5608 12.6466 42.552L15.4123 35.759L18.7467 27.5701H7.298C7.2897 27.5701 7.28628 27.5603 7.29165 27.5549L12.2921 22.4314L20.2848 14.2419L26.924 7.44019C26.9308 7.43336 26.9425 7.44068 26.9386 7.44947L24.173 14.2424L20.8385 22.4319H32.2873C32.2951 22.4319 32.299 22.4417 32.2936 22.447Z" stroke="white" stroke-width="1.5" stroke-miterlimit="10"/>
<path d="M41.4824 15.792V34.21C41.4824 35.0659 40.7886 35.7593 39.9326 35.7593H19.3047L24.3496 30.5908L25.8042 29.1006L27.2974 27.5708L29.7456 25.062L31.2007 23.5708L32.2979 22.4468C32.3032 22.4414 32.2993 22.4316 32.2915 22.4316H20.8428L24.1772 14.2422H39.9326C40.7881 14.2422 41.4824 14.9365 41.4824 15.792Z" stroke="white" stroke-width="1.5" stroke-miterlimit="10"/>
<path d="M41.4766 28.3193H44.0146C44.5537 28.3193 44.9902 27.8823 44.9902 27.3438V22.6553C44.9902 22.1162 44.5532 21.6797 44.0146 21.6797H41.4766V28.3193Z" stroke="white" stroke-width="1.5" stroke-miterlimit="10"/>
<path d="M5 14.2422H13.2563" stroke="white" stroke-width="1.5" stroke-miterlimit="10"/>
<path d="M7.75635 20.875H5" stroke="white" stroke-width="1.5" stroke-miterlimit="10"/>
<path d="M12.7407 35.7578H5" stroke="white" stroke-width="1.5" stroke-miterlimit="10"/>
</svg>
